<svg xmlns="http://www.w3.org/2000/svg" width="512" height="512" viewBox="0 0 512 512" version="1.1">
	<path d="M 89.500 9.053 C 67.033 10.034, 48.404 11.686, 32.500 14.106 C 7.549 17.903, 7.549 18.794, 32.500 16.461 C 55.650 14.296, 106.551 13.482, 129.500 14.909 C 188.562 18.583, 232.100 27.638, 264.787 43.047 C 283.479 51.858, 295.191 61.170, 296.525 68.281 C 298.622 79.457, 285.043 95.698, 262.350 109.155 C 258.033 111.716, 232.225 124.479, 205 137.517 C 144.812 166.343, 103.704 186.918, 91 194.578 C 28.322 232.366, 13.938 276.714, 52.220 314.139 C 64.085 325.739, 83.374 337.005, 103.079 343.845 C 134.576 354.778, 206.380 362.059, 269 360.669 C 320.088 359.534, 352.726 355.251, 407.271 342.525 C 434.653 336.137, 456.156 327.595, 473.500 316.218 C 484.304 309.131, 497.991 294.926, 502.071 286.566 C 507.995 274.429, 507.160 263.132, 499.835 256.299 C 493.831 250.698, 479.792 247.405, 466.500 248.480 C 449.739 249.835, 439.203 252.734, 366.490 276.003 C 266.164 308.108, 230.868 317.185, 168 327.051 C 133.091 332.529, 106.306 332.071, 80.626 325.557 C 63.571 321.231, 50.967 313.637, 46.499 304.998 C 40.288 292.988, 46.922 275.291, 64.934 255.820 C 86.169 232.864, 117.963 210.623, 185.500 171.481 C 240.340 139.698, 271.561 118.778, 285.382 104.553 C 312.983 76.147, 309.261 49.116, 275.415 32.179 C 239.545 14.230, 169.738 5.546, 89.500 9.053 M 458.935 213.366 C 456.424 214.043, 445.399 219.734, 434.435 226.013 C 366.995 264.633, 292.364 295.141, 221.500 313.060 C 200.799 318.294, 198.479 319.417, 216.347 315.554 C 244.249 309.521, 282.494 299.197, 324.413 286.382 C 375.899 270.641, 461.319 241.419, 472.694 235.655 C 479.580 232.166, 483 227.925, 483 222.876 C 483 214.216, 471.961 209.854, 458.935 213.366 M 461.500 214.102 C 455.649 215.419, 449.882 218.166, 450.347 219.415 C 450.568 220.012, 451.369 220.336, 452.125 220.136 C 452.881 219.936, 457.995 219.486, 463.489 219.136 C 471.900 218.601, 473.531 218.224, 473.812 216.753 C 474.029 215.614, 473.227 214.657, 471.508 214.003 C 468.465 212.846, 467.011 212.861, 461.500 214.102 M 476.980 223.524 C 476.284 224.362, 475.940 225.273, 476.214 225.548 C 477.120 226.453, 480 224.814, 480 223.393 C 480 221.558, 478.559 221.621, 476.980 223.524 M 472.980 229.524 C 472.284 230.362, 472.026 231.359, 472.405 231.739 C 473.240 232.573, 476.226 230.823, 476.774 229.179 C 477.344 227.469, 474.468 227.731, 472.980 229.524 M 352.750 249.694 C 355.984 250.119, 357.133 251.706, 354.750 252.456 C 354.063 252.672, 351.137 253.042, 348.249 253.278 C 343.565 253.660, 343.134 253.535, 344.249 252.121 C 345.145 250.985, 344.648 251.092, 342.500 252.500 C 331.159 259.931, 310.941 271.343, 296.500 278.464 C 275.503 288.819, 264.178 293.606, 243 301.075 C 233.925 304.276, 226.997 306.918, 227.604 306.947 C 229.002 307.014, 262.654 296.451, 278.500 290.971 C 305.561 281.613, 354.286 262.821, 356.739 260.796 C 357.420 260.234, 357.713 259.344, 357.388 258.819 C 357.064 258.295, 357.744 257.618, 358.899 257.316 C 361.393 256.664, 361.754 252.870, 359.499 251 C 358.674 250.315, 356.087 249.645, 353.749 249.511 C 351.361 249.374, 350.923 249.454, 352.750 249.694 M 451.951 258.492 C 443.046 260.170, 428.471 265.130, 421.680 268.794 C 415.991 271.863, 414.342 274.209, 416.574 276.061 C 417.821 277.096, 419.722 276.997, 426.803 275.530 C 433.047 274.235, 441.563 273.609, 457 273.309 C 468.825 273.079, 479.699 272.427, 481.164 271.860 C 484.589 270.534, 486.604 265.997, 485.054 263.101 C 484.442 261.957, 482.492 260.256, 480.720 259.322 C 476.423 257.055, 461.814 256.634, 451.951 258.492 M 475.051 296.750 C 473.412 298.262, 471.782 300.738, 471.427 302.250 C 470.864 304.655, 471.079 305, 473.142 304.996 C 477.914 304.989, 486.198 297.747, 484.527 295.044 C 483.272 293.013, 478.090 293.946, 475.051 296.750 M 223.813 307.683 C 224.534 307.972, 225.397 307.936, 225.729 307.604 C 226.061 307.272, 225.471 307.036, 224.417 307.079 C 223.252 307.127, 223.015 307.364, 223.813 307.683 M 198.750 318.662 C 199.438 318.940, 200.563 318.940, 201.250 318.662 C 201.938 318.385, 201.375 318.158, 200 318.158 C 198.625 318.158, 198.063 318.385, 198.750 318.662 M 193.750 319.662 C 194.438 319.940, 195.563 319.940, 196.250 319.662 C 196.938 319.385, 196.375 319.158, 195 319.158 C 193.625 319.158, 193.063 319.385, 193.750 319.662 M 188.813 320.683 C 189.534 320.972, 190.397 320.936, 190.729 320.604 C 191.061 320.272, 190.471 320.036, 189.417 320.079 C 188.252 320.127, 188.015 320.364, 188.813 320.683 M 21.223 397.557 C 19.244 398.942, 19 399.983, 19 407.022 C 19 416.827, 19.243 417, 33 417 C 46.879 417, 47 416.909, 47 406.440 C 47 398.247, 46.910 397.916, 44.435 396.975 C 40.143 395.344, 23.798 395.753, 21.223 397.557 M 79.667 397.399 C 68.067 400.600, 66.772 403.847, 67.192 428.680 C 67.535 448.929, 67.951 450.286, 75.105 454.500 C 78.195 456.321, 80.630 456.528, 102.250 456.815 L 126 457.131 126 466.493 C 126 480.799, 128.212 480, 88.600 480 C 45.834 480, 47.163 480.744, 47.056 456.750 L 47 444 33 444 L 19 444 19 464.184 C 19 482.446, 19.194 484.769, 21.037 488.576 C 23.286 493.222, 28.536 497.222, 34.591 498.904 C 37.154 499.615, 55.231 499.991, 87.068 499.994 C 127.915 499.999, 136.462 499.755, 140.826 498.459 C 147.241 496.554, 152.596 491.483, 153.702 486.265 C 154.141 484.194, 154.500 465.625, 154.500 445 C 154.500 401.957, 154.608 402.558, 146.179 398.662 C 141.770 396.625, 139.854 396.487, 113 396.283 C 91.762 396.121, 83.269 396.406, 79.667 397.399 M 175.002 397.060 C 169.421 398.202, 166.019 400.625, 163.752 405.071 C 162.275 407.966, 162.003 411.356, 162.002 426.849 C 162 448.157, 162.688 450.716, 169.388 454.300 C 173.236 456.359, 175.023 456.520, 197.250 456.815 L 221 457.131 221 466.111 C 221 474.312, 220.787 475.304, 218.545 477.545 L 216.091 480 189.045 480 L 162 480 162 490 L 162 500 196.318 500 C 233.804 500, 237.859 499.516, 243.361 494.383 C 248.916 489.200, 249 488.475, 249 445.936 C 249 401.560, 249.203 402.761, 241.022 398.729 C 236.696 396.597, 235.264 396.492, 208 396.320 C 192.325 396.221, 177.476 396.554, 175.002 397.060 M 291 434.826 L 291 473.651 288.422 476.076 C 285.952 478.399, 285.183 478.513, 269.922 478.819 L 254 479.138 254 489.631 L 254 500.125 279.250 499.812 C 302.864 499.520, 304.759 499.360, 308.500 497.347 C 313.521 494.645, 316.472 491.508, 318.452 486.768 C 319.769 483.618, 320 476.562, 320 439.532 L 320 396 305.500 396 L 291 396 291 434.826 M 364.223 397.557 C 362.244 398.942, 362 399.983, 362 407.022 C 362 416.827, 362.243 417, 376 417 C 389.757 417, 390 416.827, 390 407.022 C 390 396.642, 389.185 396, 376 396 C 368.970 396, 365.858 396.411, 364.223 397.557 M 432.416 396.917 C 432.187 397.146, 432 405.055, 432 414.492 C 432 437.692, 433.376 436.389, 408.422 436.812 L 390 437.124 390 428.562 L 390 420 376 420 L 362 420 362 445.435 C 362 459.863, 361.570 472.001, 361.006 473.483 C 359.331 477.890, 354.808 479, 338.532 479 L 324 479 324 489.548 L 324 500.096 349.250 499.798 C 373.428 499.513, 374.703 499.400, 379.277 497.148 C 381.905 495.854, 385.280 493.191, 386.777 491.229 C 389.397 487.799, 389.519 487.093, 390 472.582 L 390.500 457.500 418 457 C 449.138 456.434, 451.983 455.820, 457.608 448.449 L 460.500 444.660 460.500 420.772 L 460.500 396.885 446.666 396.692 C 439.058 396.587, 432.645 396.688, 432.416 396.917 M 466 448.500 L 466 500 480 500 L 494 500 494 448.500 L 494 397 480 397 L 466 397 466 448.500 M 99 417.245 C 96.697 418.449, 96.477 419.180, 96.204 426.506 C 95.819 436.847, 96.027 437, 110.469 437 C 125.044 437, 126 436.393, 126 427.134 C 126 417.014, 125.430 416.559, 112.332 416.219 C 104.868 416.026, 100.723 416.345, 99 417.245 M 194.028 417.113 C 190.527 418.511, 190.033 419.697, 190.015 426.750 C 189.992 436.259, 191.111 437, 205.500 437 C 219.889 437, 221.008 436.259, 220.985 426.750 C 220.968 419.910, 220.567 418.861, 217.316 417.150 C 214.667 415.756, 197.497 415.729, 194.028 417.113 M 22 420.729 C 19.465 421.694, 19.031 423.219, 19.015 431.215 C 18.996 440.800, 19.282 441, 33 441 C 46.867 441, 47 440.900, 47 430.500 C 47 423.189, 46.743 421.933, 45.066 421.035 C 43.065 419.964, 24.651 419.720, 22 420.729" stroke="none" fill="black" fill-rule="evenodd"/>
</svg>