<svg xmlns="http://www.w3.org/2000/svg" viewBox="0 0 98.03 27.98"><defs><style>.cls-1{fill:#231f20;}.cls-2{fill:#f36d2c;}</style></defs><title>al-tech</title><g id="Layer_2" data-name="Layer 2"><g id="Layer_1-2" data-name="Layer 1"><path class="cls-1" d="M36.54,25.84l-.29.94h-1l1.26-3.67h1.22L39,26.78H38l-.32-.94m-.13-.62-.26-.78c-.07-.21-.15-.49-.2-.71h0c-.06.22-.12.5-.19.71l-.24.78Z"/><rect class="cls-1" x="39.53" y="22.92" width="0.93" height="3.86"/><path class="cls-1" d="M44,25.93c0,.35,0,.63,0,.85h-.81l0-.38h0a1.1,1.1,0,0,1-.94.44c-.6,0-1-.33-1-1.16V24.12h.94v1.43c0,.39.14.62.46.62a.5.5,0,0,0,.47-.29.48.48,0,0,0,0-.18V24.12H44"/><path class="cls-1" d="M44.78,25c0-.33,0-.61,0-.85h.78l0,.36h0a1.06,1.06,0,0,1,.9-.42.84.84,0,0,1,.82.45h0a1.44,1.44,0,0,1,.38-.32,1.17,1.17,0,0,1,.57-.13c.58,0,1,.36,1,1.15v1.57h-.91V25.33c0-.38-.14-.6-.44-.6a.45.45,0,0,0-.42.28.54.54,0,0,0,0,.22v1.55h-.91V25.29c0-.34-.13-.56-.42-.56a.48.48,0,0,0-.44.29.52.52,0,0,0,0,.21v1.55h-.9"/><path class="cls-1" d="M51,23.38a.5.5,0,1,1-.5-.42.45.45,0,0,1,.5.42m-1,.74H51v2.66H50Z"/><path class="cls-1" d="M51.71,25c0-.33,0-.61,0-.85h.81l0,.36h0a1.15,1.15,0,0,1,.92-.42,1,1,0,0,1,1.07,1.14v1.58h-.93V25.31c0-.35-.13-.58-.47-.58a.49.49,0,0,0-.47.31.6.6,0,0,0,0,.21v1.53h-.93"/><path class="cls-1" d="M56.26,23.38a.45.45,0,0,1-.5.41.42.42,0,1,1,0-.83.45.45,0,0,1,.5.42m-1,.74h.93v2.66H55.3Z"/><path class="cls-1" d="M59.79,25.93c0,.35,0,.63,0,.85H59l0-.38h0a1.1,1.1,0,0,1-.94.44c-.6,0-1-.33-1-1.16V24.12h.94v1.43c0,.39.14.62.46.62a.5.5,0,0,0,.47-.29.48.48,0,0,0,0-.18V24.12h.93"/><path class="cls-1" d="M60.54,25c0-.33,0-.61,0-.85h.79l0,.36h0a1.06,1.06,0,0,1,.9-.42.85.85,0,0,1,.82.45h0a1.3,1.3,0,0,1,.38-.32,1.17,1.17,0,0,1,.57-.13c.57,0,1,.36,1,1.15v1.57h-.91V25.33c0-.38-.14-.6-.44-.6a.47.47,0,0,0-.43.28.78.78,0,0,0,0,.22v1.55h-.91V25.29c0-.34-.13-.56-.42-.56a.48.48,0,0,0-.44.29.52.52,0,0,0,0,.21v1.55h-.9"/><polyline class="cls-1" points="67.62 23.81 66.51 23.81 66.51 23.11 69.68 23.11 69.68 23.81 68.56 23.81 68.56 26.78 67.62 26.78"/><path class="cls-1" d="M70.37,25.71c0,.35.41.51.84.51a3,3,0,0,0,.83-.11l.12.56a3.19,3.19,0,0,1-1.08.16c-1,0-1.59-.52-1.59-1.35A1.4,1.4,0,0,1,71,24.06a1.24,1.24,0,0,1,1.33,1.33,1.91,1.91,0,0,1,0,.32m-.83-.56a.5.5,0,0,0-.53-.54.56.56,0,0,0-.57.54Z"/><path class="cls-1" d="M75.13,26.71a2.39,2.39,0,0,1-.83.13c-1,0-1.59-.53-1.59-1.36s.61-1.42,1.72-1.42a2.3,2.3,0,0,1,.71.11l-.15.61a1.31,1.31,0,0,0-.52-.08.73.73,0,0,0-.8.74.74.74,0,0,0,.82.75,1.56,1.56,0,0,0,.53-.08"/><path class="cls-1" d="M75.64,22.92h.93v1.52h0a.88.88,0,0,1,.36-.27,1.1,1.1,0,0,1,.49-.11c.59,0,1,.36,1,1.17v1.55h-.93V25.32c0-.35-.13-.59-.48-.59a.5.5,0,0,0-.47.29.52.52,0,0,0,0,.18v1.58h-.93"/><path class="cls-1" d="M79.23,25c0-.33,0-.61,0-.85H80l0,.36h0a1.18,1.18,0,0,1,.93-.42,1,1,0,0,1,1.07,1.14v1.58h-.93V25.31c0-.35-.14-.58-.47-.58a.49.49,0,0,0-.47.31.44.44,0,0,0,0,.21v1.53h-.93"/><path class="cls-1" d="M85.77,25.42a1.43,1.43,0,0,1-1.58,1.42,1.39,1.39,0,0,1-1.55-1.37,1.42,1.42,0,0,1,1.6-1.41,1.38,1.38,0,0,1,1.53,1.36m-2.17,0c0,.45.22.8.61.8s.59-.32.59-.8-.17-.8-.59-.8-.61.4-.61.8"/><rect class="cls-1" x="86.34" y="22.92" width="0.93" height="3.86"/><path class="cls-1" d="M91,25.42a1.43,1.43,0,0,1-1.58,1.42,1.39,1.39,0,0,1-1.55-1.37,1.42,1.42,0,0,1,1.6-1.41A1.38,1.38,0,0,1,91,25.42m-2.17,0c0,.45.21.8.61.8s.59-.32.59-.8-.17-.8-.59-.8-.61.4-.61.8"/><path class="cls-1" d="M94.41,24.12a6.92,6.92,0,0,0,0,.79V26.4a1.43,1.43,0,0,1-.45,1.19,2,2,0,0,1-1.22.33,2.46,2.46,0,0,1-1.07-.21l.18-.62a2,2,0,0,0,.87.2c.44,0,.77-.21.77-.7v-.18h0a1,1,0,0,1-.81.35,1.22,1.22,0,0,1-1.26-1.3,1.33,1.33,0,0,1,1.36-1.4,1,1,0,0,1,.82.38h0l0-.32m-.15,1.08a.77.77,0,0,0,0-.15.49.49,0,0,0-.5-.37c-.34,0-.61.28-.61.76a.63.63,0,0,0,.61.71.49.49,0,0,0,.49-.34.73.73,0,0,0,0-.22Z"/><path class="cls-1" d="M95.83,24.12l.44,1.31.15.49h0c0-.14.09-.34.13-.49l.37-1.31h1l-.7,1.75a4.09,4.09,0,0,1-1,1.75,1.77,1.77,0,0,1-.91.36l-.19-.7a1.07,1.07,0,0,0,.4-.14,1,1,0,0,0,.39-.33.21.21,0,0,0,.05-.12.38.38,0,0,0,0-.14l-1.1-2.43"/><polyline class="cls-1" points="88.74 0.24 88.74 7.49 94.53 7.49 94.53 0.24 98.03 0.24 98.03 19.1 94.53 19.1 94.53 11.21 88.74 11.21 88.74 19.1 85.22 19.1 85.22 0.24"/><path class="cls-1" d="M78,13.72a5.9,5.9,0,1,1,.66-7.13h4.21a9.75,9.75,0,1,0-.35,7.13"/><rect class="cls-2" x="29.69" y="9.39" width="7.97" height="3.01"/><polyline class="cls-1" points="42.41 3.88 38.03 3.88 38.03 0.3 50.57 0.3 50.57 3.88 46.11 3.88 46.11 19.16 42.41 19.16"/><polyline class="cls-1" points="62.24 11.19 56.23 11.19 56.23 15.66 62.94 15.66 62.94 19.16 52.53 19.16 52.53 0.3 62.6 0.3 62.6 3.8 56.23 3.8 56.23 7.72 62.24 7.72"/><polyline class="cls-1" points="21.95 15.58 21.95 0.3 18.04 0.3 18.04 19.16 28.81 19.16 28.81 15.58"/><path class="cls-1" d="M10.39.3H5.27L0,19.16H4l1.23-4.84h4.94l1.33,4.84h4.2M6.11,10.89,7.78,6.14h.14l1.53,4.75Z"/></g></g></svg>