<svg xmlns="http://www.w3.org/2000/svg" xmlns:xlink="http://www.w3.org/1999/xlink" xml:space="preserve" width="69.5526mm" height="17.5716mm" version="1.1" style="shape-rendering:geometricPrecision; text-rendering:geometricPrecision; image-rendering:optimizeQuality; fill-rule:evenodd; clip-rule:evenodd" viewBox="0 0 7639 1930">
                    <path class="lightblue" d="M3352 336c1374 -317 2390 -293 2262 53 -6 17 -15 35 -27 53l1 -1 7 -4 8 -4 8 -4 7 -3 8 -3 8 -3 8 -2 8 -2 8 -1 8 -2 8 -1 9 0 8 -1 8 0 8 0 54 0c15 -22 26 -43 34 -64 132 -356 -963 -370 -2436 -30 -137 32 -273 66 -407 101l3 2 8 4 8 5 2 2c124 -33 251 -65 379 -95zm1923 377c-24 15 -49 31 -75 46l0 0 5 1 6 1 5 1 5 1 4 1 5 1 5 1 4 1 4 1 4 1 3 0 4 1 3 1 3 0 4 1 8 2 6 1c14 -8 28 -16 42 -23l-3 -3 -3 -4 -3 -3 -3 -3 -3 -3 -3 -3 -2 -3 -1 -1 -2 -1 -2 -2 -2 -2 -2 -1 -2 -2 -3 -2 -3 -1 -2 -2 -3 -1 -3 -2 0 0zm-481 255c-9 4 -18 8 -26 12l-6 12 -10 16 -12 15 -13 11c34 -13 67 -27 99 -41l-2 -2 -7 -5 -7 -5 -7 -5 -6 -5 -3 -3zm-252 109c-63 26 -128 52 -195 77l75 0c72 -26 141 -53 208 -80l-5 1 -8 1 -9 0 -8 1 -9 0 -8 0 -41 0zm-903 317c-241 73 -493 140 -751 199 -1373 318 -2389 294 -2262 -52 16 -43 49 -89 97 -138l-2 -4 -6 -13 -5 -11 -21 -52c-130 94 -215 182 -243 260 -132 356 962 370 2435 30 263 -61 521 -129 767 -202l-7 -12 -2 -5zm-2345 -360c130 -64 275 -129 431 -192l-1 -4 -2 -5 -2 -5 -2 -5 -2 -5 -1 -3c-154 59 -297 119 -428 179l0 4 1 7 1 6 1 7 2 6 1 6 1 4zm1099 -433c91 -29 183 -58 277 -86l1 -2 3 -9 3 -9 1 -1c-97 28 -192 56 -285 85l0 22zm980 -321c1488 -343 2589 -316 2450 61 -9 23 -21 46 -38 70l129 0c31 -37 53 -73 66 -106 143 -388 -1025 -408 -2600 -45 -183 43 -364 88 -541 137l3 0 9 0 9 0 9 0 9 1 9 1 8 1 1 0c156 -42 316 -82 477 -120zm1961 486c-8 5 -17 10 -26 15l5 2 7 1 6 1 6 2 6 1 6 1 6 2 6 1 6 1 5 2 1 0 -3 -2 -9 -8 -10 -8 -9 -8 -3 -3zm-483 242c-111 49 -229 98 -354 146l73 0c57 -22 113 -44 168 -66l1 -1 5 -6 6 -7 7 -6 6 -5 7 -6 7 -5 7 -4 8 -5 8 -3 7 -4 8 -3 8 -3 9 -2 8 -2 8 -1 8 -1 9 -1 8 0 7 -1 -1 0 -9 -4 -8 -4 -8 -5 -3 -1zm-1183 429c-257 78 -526 149 -801 213 -1488 343 -2588 316 -2449 -61 31 -85 124 -181 265 -283l-6 -13 -80 0c-182 120 -300 233 -336 332 -144 388 1024 408 2599 45 283 -66 560 -139 825 -217l-8 -7 -9 -9zm-2383 -467c128 -60 268 -120 416 -178l0 -1 -3 -4 -3 -4 -3 -4 -3 -4 -4 -4 -1 -1c-141 54 -275 109 -400 163l0 5 0 8 0 8 0 7 1 8 0 1zm1107 -422c101 -32 205 -63 311 -94l6 -7 7 -6 7 -6 8 -6 6 -4c-118 33 -235 68 -349 103l1 2 1 10 2 8z"></path>
                    <path class="blue" d="M6998 1387c-52 0 -88 -10 -107 -30 -20 -20 -30 -58 -30 -113l0 -681c0 -32 10 -57 29 -74 20 -18 48 -27 84 -27 37 0 66 9 85 26 19 16 28 41 28 75l0 657 416 0c44 0 77 7 101 21 23 14 35 34 35 60 0 30 -11 52 -32 66 -21 13 -56 20 -104 20l-505 0zm-473 -824c0 -34 9 -59 28 -76 19 -16 47 -25 85 -25 38 0 66 9 85 26 19 16 28 41 28 75l0 735c0 34 -9 59 -28 75 -18 17 -47 25 -85 25 -37 0 -66 -8 -85 -25 -19 -17 -28 -41 -28 -75l0 -735zm-805 75c-37 0 -65 -7 -83 -20 -18 -13 -27 -33 -27 -60 0 -27 9 -47 28 -61 18 -14 46 -20 82 -20l685 0c37 0 65 6 83 20 19 14 28 34 28 61 0 26 -9 46 -28 60 -18 13 -46 20 -83 20l-229 0 0 660c0 34 -10 59 -28 75 -19 17 -47 25 -85 25 -38 0 -66 -8 -85 -25 -19 -17 -29 -41 -29 -75l0 -660 -229 0zm-120 22c0 25 -9 45 -28 60 -18 15 -42 23 -73 23 -39 0 -77 -20 -114 -60 -9 -10 -17 -18 -22 -23 -19 -19 -44 -33 -73 -43 -30 -9 -65 -14 -106 -14 -59 0 -104 10 -137 29 -32 19 -48 47 -48 82 0 48 62 84 188 108 30 6 54 11 70 14 79 17 136 30 173 40 37 10 68 21 94 33 46 21 80 49 101 84 22 34 33 76 33 125 0 91 -38 162 -115 215 -77 53 -182 79 -316 79 -71 0 -132 -6 -184 -19 -52 -13 -102 -33 -151 -62 -33 -19 -59 -43 -79 -71 -20 -27 -29 -54 -29 -80 0 -27 9 -49 28 -66 19 -17 44 -26 74 -26 40 0 77 21 110 64 13 17 24 29 32 37 22 23 49 39 81 50 32 11 70 16 115 16 70 0 123 -10 159 -30 36 -19 53 -49 53 -88 0 -54 -92 -99 -277 -134 -6 -1 -11 -2 -15 -3 -143 -27 -239 -60 -289 -100 -50 -40 -75 -99 -75 -175 0 -86 37 -154 110 -202 73 -48 175 -72 307 -72 60 0 115 6 164 17 49 12 94 29 134 53 31 18 57 40 76 66 19 26 29 50 29 73zm-940 560c41 0 72 7 93 21 20 13 30 34 30 62 0 28 -10 49 -31 63 -21 14 -51 21 -92 21l-581 0c-51 0 -87 -10 -107 -30 -20 -20 -30 -58 -30 -113l0 -625c0 -56 10 -94 30 -114 20 -20 56 -30 107 -30l552 0c41 0 71 7 92 20 21 14 31 34 31 60 0 26 -10 45 -31 59 -21 13 -51 19 -92 19l-466 0 0 195 419 0c41 0 71 6 91 19 20 13 30 33 30 60 0 25 -10 44 -31 57 -20 13 -50 20 -90 20l-419 0 0 236 495 0zm-1495 110c-8 23 -22 40 -40 52 -18 11 -41 16 -69 16 -33 0 -59 -7 -79 -22 -20 -15 -30 -35 -30 -60 0 -8 0 -16 2 -24 2 -8 5 -16 9 -24l304 -709c17 -41 37 -67 58 -79 22 -12 58 -18 109 -18 48 0 83 6 104 17 22 11 42 37 60 77l310 712c4 8 7 16 8 24 2 8 3 16 3 24 0 24 -10 44 -31 59 -20 16 -47 23 -80 23 -27 0 -50 -5 -68 -16 -18 -11 -31 -28 -40 -52l-52 -130 -427 0 -51 130zm264 -672l-153 388 306 0 -153 -388zm-1360 -95c0 -34 10 -59 28 -76 19 -16 47 -25 86 -25 37 0 66 9 86 26 19 16 29 41 29 75l0 482c0 70 16 122 50 154 34 32 88 49 162 49 74 0 129 -16 163 -49 34 -32 51 -83 51 -154l0 -482c0 -34 10 -59 28 -76 19 -16 47 -25 85 -25 38 0 66 9 85 26 19 16 29 41 29 75l0 502c0 112 -38 198 -114 258 -75 59 -184 89 -326 89 -143 0 -252 -29 -328 -89 -76 -60 -114 -146 -114 -258l0 -502zm-324 558c16 -25 28 -53 36 -85 9 -32 13 -67 13 -104 0 -101 -27 -179 -81 -234 -55 -56 -130 -83 -228 -83 -97 0 -172 27 -226 83 -54 55 -81 133 -81 234 0 100 27 178 81 234 54 55 129 83 226 83 25 0 48 -2 70 -6 23 -4 43 -10 63 -18l-65 -52c-8 -7 -15 -15 -20 -23 -5 -9 -7 -18 -7 -27 0 -21 9 -40 28 -56 19 -17 40 -25 64 -25 11 0 21 2 30 6 9 3 21 11 35 23l62 50zm159 127l67 53c11 9 19 17 24 26 4 9 7 18 7 29 0 19 -10 37 -28 52 -19 15 -41 22 -66 22 -11 0 -21 -2 -30 -6 -10 -4 -20 -11 -31 -20l-70 -55c-37 21 -81 37 -130 47 -50 11 -104 16 -162 16 -165 0 -296 -43 -393 -129 -96 -87 -144 -204 -144 -351 0 -148 48 -265 144 -351 97 -87 228 -130 393 -130 164 0 295 44 392 130 98 87 146 204 146 351 0 65 -10 124 -30 177 -20 53 -50 100 -89 139zm-1685 82c-9 23 -22 40 -41 52 -17 11 -41 16 -69 16 -32 0 -59 -7 -79 -22 -20 -15 -30 -35 -30 -60 0 -8 1 -16 3 -24 1 -8 4 -16 8 -24l304 -709c18 -41 37 -67 59 -79 21 -12 57 -18 108 -18 48 0 83 6 105 17 21 11 41 37 59 77l310 712c4 8 7 16 9 24 2 8 2 16 2 24 0 24 -10 44 -30 59 -21 16 -47 23 -80 23 -28 0 -51 -5 -69 -16 -17 -11 -30 -28 -39 -52l-53 -130 -426 0 -51 130zm263 -672l-153 388 306 0 -153 -388z"></path>
                </svg>