<svg xmlns="http://www.w3.org/2000/svg" xmlns:xlink="http://www.w3.org/1999/xlink" viewBox="0 0 97.69 19.58"><defs><style>.cls-1{fill:none;}.cls-2{clip-path:url(#clip-path);}.cls-3{fill:#1d93d2;}</style><clipPath id="clip-path" transform="translate(-0.31 -0.42)"><rect class="cls-1" width="98" height="20"/></clipPath></defs><title>arblu</title><g id="Layer_2" data-name="Layer 2"><g id="Layer_1-2" data-name="Layer 1"><g class="cls-2"><path class="cls-3" d="M13.06,2.72C14.74,2.59,16,1.55,17.27.81A2.79,2.79,0,0,1,21,1.57c.9,1.69-.93,3.2-2.82,4.6L11,11.85s-.69.46-.52.7.89-.25,1.49-.63L18.77,8a2.37,2.37,0,0,1,2.72.38c.6.67,1.93,2,1.93,2a6.73,6.73,0,0,0-3.45.81l-8,4.59a6.93,6.93,0,0,1-2,.91c-1.6.39-3.74.12-4.56-1.31-.92-1.61.23-3.8,2.6-5.48l7.63-6.08a2.88,2.88,0,0,0,.67-.66c.21-.36-.07-.56-.43-.54s-1.74.66-2.83.06" transform="translate(-0.31 -0.42)"/><path class="cls-3" d="M31.49,19.5S28.9,17,28.3,16.29a2.37,2.37,0,0,0-2.72-.38l-6,3.59Z" transform="translate(-0.31 -0.42)"/><path class="cls-3" d="M12.5,17.52a8.62,8.62,0,0,1-6.07.57A4.6,4.6,0,0,1,4.86,17,4.48,4.48,0,0,1,3.5,14.37L1.31,16a2,2,0,0,0-.66,2.8c.43.57,1.45.61,2.71.65H16c2.87-1.64,6.91-4.07,7.36-4.33a6.75,6.75,0,0,1,3.45-.81s-1.33-1.33-1.93-2A2.38,2.38,0,0,0,22.19,12Z" transform="translate(-0.31 -0.42)"/><path class="cls-3" d="M49.06,18.62a2.3,2.3,0,0,1-.64-.24,2.15,2.15,0,0,1-.57-.46,2.44,2.44,0,0,1-.33-.54c-.51-1.22-1.14-2.76-1.87-4.61s-1.76-4.38-3-7.57h-2c-.93,2.25-1.79,4.31-2.56,6.18L35.74,17a2.84,2.84,0,0,1-.47.82,2.46,2.46,0,0,1-.69.59,1.89,1.89,0,0,1-.65.23,6,6,0,0,1-.74.11v.77H39v-.77a5.39,5.39,0,0,1-1.61-.33q-.48-.21-.48-.54a2.05,2.05,0,0,1,0-.34,5.13,5.13,0,0,1,.22-.81l.35-1c.14-.37.26-.68.38-1h4.86l1.21,2.93A1.73,1.73,0,0,1,44,18a1.41,1.41,0,0,1,0,.18c0,.15-.25.28-.73.38a9,9,0,0,1-1.26.2v.77h7.68v-.77c-.2,0-.42,0-.67-.1M40.28,8.68l2,5.11H38.26Z" transform="translate(-0.31 -0.42)"/><path class="cls-3" d="M61.19,11.45a2,2,0,0,1-.46,1.33,1.51,1.51,0,0,1-1.23.57A2,2,0,0,1,58.27,13a1.26,1.26,0,0,1-.5-1.09,2,2,0,0,1,0-.54l.09-.36a2.15,2.15,0,0,0-1,.31,3.35,3.35,0,0,0-.89.8v5.45a1.23,1.23,0,0,0,.11.58.76.76,0,0,0,.37.36,2.63,2.63,0,0,0,.71.18l.71.09v.72H51.3v-.72l.5-.06a2.15,2.15,0,0,0,.43-.09.78.78,0,0,0,.44-.34,1.28,1.28,0,0,0,.12-.6V11.9a1.25,1.25,0,0,0-.17-.64,1.38,1.38,0,0,0-.41-.45,1.56,1.56,0,0,0-.45-.2,3.38,3.38,0,0,0-.6-.11V9.78l4.74-.26.15.15v1.44h0a5.76,5.76,0,0,1,1.45-1.25,3.16,3.16,0,0,1,1.61-.45,1.94,1.94,0,0,1,2,2" transform="translate(-0.31 -0.42)"/><path class="cls-3" d="M72.8,10.79a4.06,4.06,0,0,0-3.29-1.42A3.83,3.83,0,0,0,68,9.7a5.1,5.1,0,0,0-1.5,1h0V4.27l-.15-.16-4.91.26V5.1a3.58,3.58,0,0,1,.67.11,1.89,1.89,0,0,1,.55.2,1.21,1.21,0,0,1,.41.5,1.5,1.5,0,0,1,.16.7v9.3c0,1,0,1.72,0,2.29s-.05,1.09-.08,1.57l.58.23,1.43-1.29a4.81,4.81,0,0,0,.43.3,3.77,3.77,0,0,0,.73.37,6.2,6.2,0,0,0,1.06.31,8.25,8.25,0,0,0,1.51.12A5,5,0,0,0,74,14.63a5.72,5.72,0,0,0-1.21-3.84m-3,7.1A1.77,1.77,0,0,1,68.25,19a1.7,1.7,0,0,1-.75-.14,1.83,1.83,0,0,1-.51-.39,2.4,2.4,0,0,1-.33-.5,2.7,2.7,0,0,1-.22-.52V11.66a2,2,0,0,1,.71-.58,2.28,2.28,0,0,1,1-.2,1.83,1.83,0,0,1,1.09.32,2.39,2.39,0,0,1,.7.86,4.4,4.4,0,0,1,.39,1.24,9.69,9.69,0,0,1,.11,1.45,6.85,6.85,0,0,1-.59,3.14" transform="translate(-0.31 -0.42)"/><path class="cls-3" d="M81.19,18.77v.72H75v-.72l.5-.05a2.47,2.47,0,0,0,.43-.1.77.77,0,0,0,.43-.34,1.28,1.28,0,0,0,.12-.6v-11a1.5,1.5,0,0,0-.16-.7,1.21,1.21,0,0,0-.41-.5,2.23,2.23,0,0,0-.6-.24,3.15,3.15,0,0,0-.71-.14V4.37l5-.26.15.16V17.55a1.28,1.28,0,0,0,.12.6.94.94,0,0,0,.42.36,4.09,4.09,0,0,0,.42.16,3.21,3.21,0,0,0,.52.1" transform="translate(-0.31 -0.42)"/><path class="cls-3" d="M95,18.56v.72l-4.74.29-.15-.14v-1.3H90l-.66.6a3.48,3.48,0,0,1-.77.53,3.94,3.94,0,0,1-2.27.53,2.91,2.91,0,0,1-2.3-.9,3.77,3.77,0,0,1-.8-2.56V11.86a1.18,1.18,0,0,0-.15-.63,1.48,1.48,0,0,0-.4-.43,1.19,1.19,0,0,0-.51-.21,3.59,3.59,0,0,0-.58-.09V9.78l4.82-.26.11.15v6.6a2.38,2.38,0,0,0,.39,1.51,1.29,1.29,0,0,0,1.08.49,2.19,2.19,0,0,0,1.26-.37,2.58,2.58,0,0,0,.82-.78V11.76a1.43,1.43,0,0,0-.12-.6,1.16,1.16,0,0,0-.38-.44,1.23,1.23,0,0,0-.51-.16c-.23,0-.45-.05-.68-.06V9.78l4.81-.26.15.15v7.67a1.2,1.2,0,0,0,.14.59,1.24,1.24,0,0,0,.41.41,1.28,1.28,0,0,0,.49.16q.3,0,.6.06" transform="translate(-0.31 -0.42)"/><path class="cls-3" d="M96.25,12.87A1.75,1.75,0,1,1,98,11.12a1.75,1.75,0,0,1-1.75,1.75m0-3.18a1.43,1.43,0,1,0,1.43,1.43,1.43,1.43,0,0,0-1.43-1.43" transform="translate(-0.31 -0.42)"/><path class="cls-3" d="M95.43,10.16h.92c.42,0,.64.19.64.52a.47.47,0,0,1-.32.48h0c.12,0,.28.1.28.4a.89.89,0,0,0,.11.51H96.7a.54.54,0,0,1,0-.28c0-.36-.07-.51-.38-.51h-.5v.79h-.34Zm.34.87h.55c.22,0,.33-.1.33-.31s-.16-.29-.33-.29h-.55Z" transform="translate(-0.31 -0.42)"/></g></g></g></svg>