<svg xmlns="http://www.w3.org/2000/svg" viewBox="0 0 566.93 69.58"><defs><style>.cls-1{fill:#c6152f;}.cls-2{fill:#fff;}</style></defs><title>atlasconcorde</title><g id="Layer_2" data-name="Layer 2"><g id="Livello_1" data-name="Livello 1"><rect x="155.86" y="0.28" width="11.22" height="55.88"/><path d="M143.84,44.79a5.93,5.93,0,0,1-2.33-5v-13h7.81v-11h-7.74V.2h-11V40.33a16.86,16.86,0,0,0,16.67,16.26,16.69,16.69,0,0,0,2.13-.14V45S146.12,46.36,143.84,44.79Z"/><path d="M103.9,14.83A20.59,20.59,0,0,0,103.79,56a15.06,15.06,0,0,0,9.74-3.16V56h11V35.41A20.65,20.65,0,0,0,103.9,14.83Zm0,30.75A10.1,10.1,0,1,1,114,35.48,10.1,10.1,0,0,1,103.9,45.58Z"/><path d="M315.34,14.54a20.72,20.72,0,1,0,20.72,20.72A20.71,20.71,0,0,0,315.34,14.54Zm0,30.51a9.79,9.79,0,1,1,9.79-9.79A9.78,9.78,0,0,1,315.34,45.05Z"/><path d="M510.36,17.48c-3.05-2.34-6.1-2.64-9.73-2.64a20.59,20.59,0,1,0,20.75,20.61V0h-11Zm-9.84,28a10.1,10.1,0,1,1,10.11-10.1A10.1,10.1,0,0,1,500.52,45.48Z"/><path d="M458.4,31.11V56h10.88V31.23a6.73,6.73,0,0,1,6.54-5.69,9,9,0,0,1,1.72,0V14.75c-.51,0-1.22-.05-1.72-.05A17.45,17.45,0,0,0,458.4,31.11Z"/><path d="M566.93,35.36a21.17,21.17,0,1,0-1.45,7.48H554.17A11.69,11.69,0,0,1,546,46.46a11.1,11.1,0,0,1-10.22-6.77h30.72l0,.23A22,22,0,0,0,566.93,35.36Zm-31.06-4.6a11.09,11.09,0,0,1,20.2,0Z"/><path d="M432.85,14.54a20.72,20.72,0,1,0,20.72,20.72A20.72,20.72,0,0,0,432.85,14.54Zm0,30.51a9.79,9.79,0,1,1,9.78-9.79A9.78,9.78,0,0,1,432.85,45.05Z"/><path d="M358.62,14.7A17.45,17.45,0,0,0,341.2,31.11V56h10.86V31.23a6.75,6.75,0,0,1,6.56-5.69,6.54,6.54,0,0,1,6.51,5.51V55.91h10.93V31.11A17.46,17.46,0,0,0,358.62,14.7Z"/><path d="M236.05,30.05c-7.88-2.66-5.07-7.78-.87-7.3,2.74.31,3.77,3.53,3.77,3.53l9.12-3.59c-2-5.06-7.42-8.56-13.84-8.56-8.11,0-14.66,5.76-14.66,12.87,0,3.44.74,7.28,6.43,10s12.39,3.11,11.92,7.74c-.45,4.15-5.84,3-6.77,2.73a6.28,6.28,0,0,1-4.09-4.58l-8.56,3.16c2.35,7.73,9.5,10.46,15.93,10.46,8.1,0,14.84-5.76,14.84-12.85a12.84,12.84,0,0,0-4.06-9.26S243.91,32.72,236.05,30.05Z"/><path d="M401.08,25.48a9.86,9.86,0,0,1,4.64,1.17l5.42-9.5a20.72,20.72,0,1,0-.45,36.47l-5-9.71a9.67,9.67,0,0,1-4.57,1.14,9.79,9.79,0,0,1,0-19.57Z"/><path d="M283.32,25.48A9.86,9.86,0,0,1,288,26.65l5.41-9.5a20.71,20.71,0,1,0-.44,36.47l-5.05-9.71a9.6,9.6,0,0,1-4.56,1.14,9.79,9.79,0,1,1,0-19.57Z"/><path d="M193.46,14.83A20.59,20.59,0,0,0,193.35,56a15.07,15.07,0,0,0,9.75-3.16V56h11V35.41A20.65,20.65,0,0,0,193.46,14.83Zm0,30.75a10.1,10.1,0,1,1,10.09-10.1A10.1,10.1,0,0,1,193.46,45.58Z"/><path class="cls-1" d="M34.53.88,0,35,34.25,69.58,69.08,34.91Z"/><path class="cls-2" d="M51.57,28A18.44,18.44,0,1,1,17.5,28a17.53,17.53,0,0,0,1.94,13C17.68,35.57,17,29.33,22.75,23.66a29,29,0,0,0,4.33-5.53,12.69,12.69,0,0,1-2.71,6c-2.46,3.15-5.32,9-.56,18,0,0-3.22-8.8,1.32-15.19C29.52,20.73,29,17.54,29,17.54s2.21,3.77-.89,9a16.9,16.9,0,0,0,.31,18.18S25,36.93,28.32,30.48c4.36-8.38,2.52-13.54,2.52-13.54s4.35,4.26.5,13.74a16.33,16.33,0,0,0,1.55,15.59s-3.3-7.69-.14-14.91c3.88-8.88.47-14.84.47-14.84a13.78,13.78,0,0,1,3.12,13.31c-2.21,7.3-2,10.32-.79,14.05,0,0-.7-4.75,2.57-13.53a13.94,13.94,0,0,0-2.44-13.78,12.26,12.26,0,0,1,5.78,12.06c-.28,2.91-2.32,6.94-1.88,11.5,1.21-6.28,3-7.32,3.69-11.72.85-5.83-3.88-11.3-3.88-11.3A14,14,0,0,1,45.48,33.2C43.16,40.05,43.16,44,43.16,44c2-7.19,3.27-7.42,4.18-11.62,1.51-7-2.77-13-2.77-13C54.44,28.76,48.74,41,48.74,41c2.73-3.12,3.55-7,3.12-11.23A15,15,0,0,0,51.57,28"/></g></g></svg>