<svg xmlns="http://www.w3.org/2000/svg" viewBox="0 0 2279.41 395.32"><defs><style>.cls-1{fill:#e8ae30;}</style></defs><title>bisazza</title><g id="Layer_2" data-name="Layer 2"><g id="Layer_1-2" data-name="Layer 1"><path d="M102.05,180.79c49.59,0,66.06,2.52,83.63,7.7,26.8,8.26,52.13,25.3,52.13,67.64,0,69.28-62.5,73.91-96.54,73.91-30,0-39.21-2.07-39.21-21.2v-128ZM0,17.44c42.33,2,49.53,8.21,49.53,46.33v228.7c0,36.62-6.19,45.31-49.53,46.35v10H172.32c114.32,0,124.56-71.34,124.56-90.82,0-54.11-41.1-78.77-85.93-88.15v-1.09c23.25-5.6,68.5-16.93,68.5-74.07,0-79.9-90.13-87.28-135.06-87.28H0ZM102.05,41.76c0-7.78,1-15,11.32-15,5.16,0,12.35-.5,23.18-.5,36.73,0,90.51,9.78,90.51,71.28S165.57,160,151.12,160l-49.07.53V41.76Zm262,297.06c43.84-1,50.07-9.73,50.07-46.35V63.77c0-38.12-7.26-44.3-50.07-46.33v-10H517.12v10c-37.61,1.52-50.53,5.1-50.53,46.33v228.7c0,40.18,12.33,45.31,50.53,46.35v10H364.05Zm424.3-229.13H775.42c-8.84-42.34-41.81-88.87-95.78-88.87-25.67,0-51.88,16-51.88,48.05,0,77.55,172,87.84,172,193.72,0,44-35.19,93.65-108.92,93.65-39,0-64.15-17.73-79.64-17.73-10.88,0-16,8.94-16,17.22H583.89L568.43,246.1h11.89c9.74,24.24,36.08,91.4,105.53,91.4,41.07,0,61.57-29.39,61.57-57.28,0-29.53-8.22-47-83.72-91.47-47.29-27.38-80.31-50.08-80.31-101.28C583.39,28.57,630.3,0,676.58,0c30.87,0,58.57,17.33,71.35,17.33,14.59,0,17.18-11.7,18.14-17.33H777l11.38,109.69ZM964.24,216.43l59.39-141.84,59.89,141.84Zm253,122.39c-22.73-1.57-30-7.2-46.46-44.86L1042.19,1.35h-10.32L924.42,254.29c-9.74,22.72-25.77,60.28-37.61,73.18-9.35,9.78-18.08,10.85-26.34,11.35v10H962.75v-10c-10.89,0-35.14,0-35.14-21.66,0-5.65,1.53-12.89,4.07-19.58l23.82-60.29h135.26l21.11,49.45c3.13,7.22,9.81,24.26,9.81,32.47,0,19.11-17,19.61-36.1,19.61v10h131.63v-10Zm336.48-80.62-12.36,90.66H1250v-7.68L1475.74,26.87h-114.2c-73.84,0-80,34.13-86.75,68.63h-13.38l10.31-88.11H1543.4V15.1L1320.31,329.34H1453c67.69,0,77.55-33.46,88.89-71.12h11.83v0Zm335-.08-12.44,90.74H1585v-7.68L1810.75,26.87H1696.6c-73.89,0-80.15,34.13-86.81,68.63h-13.42l10.36-88.11h271.68V15.1L1655.29,329.34H1788c67.66,0,77.55-33.54,88.87-71.2h11.89v0Zm137.73-41.69,59.4-141.84,59.88,141.84Zm253,122.39c-22.65-1.57-29.92-7.25-46.46-44.86L2104.42,1.35h-10.36l-107.3,252.94c-9.88,22.64-25.86,60.28-37.74,73.18-9.3,9.78-18.11,10.85-26.37,11.35v10h102.29v-10c-10.89,0-35.13,0-35.13-21.66a57.37,57.37,0,0,1,4.15-19.58l23.73-60.29h135.24l21.2,49.45c3.12,7.22,9.81,24.26,9.81,32.47,0,19.11-17,19.61-36.15,19.61v10h131.62v-10Z"/><path class="cls-1" d="M1287.07,395.32c0-6.75,1.52-18.07,5.09-18.07,3,0,5.3,8.13,5.3,18.07"/></g></g></svg>