<svg xmlns="http://www.w3.org/2000/svg" xmlns:xlink="http://www.w3.org/1999/xlink" viewBox="0 0 798.17 136.25"><defs><style>.cls-1{fill:none;}.cls-2{clip-path:url(#clip-path);}.cls-3{clip-path:url(#clip-path-2);}.cls-4{clip-path:url(#clip-path-3);}.cls-5{fill:#7a8186;}</style><clipPath id="clip-path" transform="translate(-23.44 -247.76)"><rect class="cls-1" width="841.89" height="595.28"/></clipPath><clipPath id="clip-path-2" transform="translate(-23.44 -247.76)"><rect class="cls-1" x="21.86" y="246.08" width="801.33" height="139.52"/></clipPath><clipPath id="clip-path-3" transform="translate(-23.44 -247.76)"><rect class="cls-1" x="23.44" y="247.67" width="798.16" height="136.35"/></clipPath></defs><title>catalano</title><g id="Layer_2" data-name="Layer 2"><g id="Layer_1-2" data-name="Layer 1"><g class="cls-2"><g class="cls-3"><g class="cls-4"><path class="cls-5" d="M765.08,248.38c-16.41,0-36,4.38-36,25.35v38.36A22.93,22.93,0,0,0,732,323.43c5.08,9.09,16.26,13.7,33.14,13.7h20.42c24,0,36.07-8.47,36.07-25.11V273.73c0-10.73-4.35-18.11-12.9-22-5.1-2.28-12.71-3.38-23.17-3.38Zm-17.27,63.44V274c0-1.94,0-7.79,17.24-7.79h20.79C803,266.21,803,272.06,803,274v37.82c0,4.94-5.76,7.48-17.1,7.48H765.05c-11.43,0-17.24-2.54-17.24-7.48" transform="translate(-23.44 -247.76)"/></g><g class="cls-4"><path class="cls-5" d="M109.4,319H57.79c-6.18,0-9.06-.5-10.35-.86-5.53-1.74-5.53-4.54-5.53-5.61v-41c0-.89.63-1.79,2-2.74s4.63-2.31,12.11-2.31H109.4V248.83H55.72a62,62,0,0,0-11.42.83,28.23,28.23,0,0,0-13.74,6.75,19.78,19.78,0,0,0-7.12,15.24v41c0,4.66.94,8.49,2.78,11.45a26.79,26.79,0,0,0,8.28,7.71,30,30,0,0,0,9.87,4,80.79,80.79,0,0,0,13.4.81H109.4Z" transform="translate(-23.44 -247.76)"/></g><g class="cls-4"><path class="cls-5" d="M517.67,336.72c5.2-8.83,11.93-20.48,12.77-21.88H582.2c.76,1.29,7.35,12.42,13,21.88h21.41c-11.86-19.52-50.29-82.9-50.4-83.08a8.58,8.58,0,0,0-5.77-5.23,15.57,15.57,0,0,0-4-.62,10.7,10.7,0,0,0-6,1.31,11.08,11.08,0,0,0-4.39,4.5l-47,83.12Zm38.57-65.29c3.12,5.4,11.68,20.08,14.85,25.6H541.15c3.28-5.52,11.92-20.2,15.09-25.6" transform="translate(-23.44 -247.76)"/></g><g class="cls-4"><path class="cls-5" d="M135,336.72c5.15-8.83,11.88-20.48,12.75-21.89H199.5c.8,1.3,7.36,12.43,13,21.89h21.41c-11.89-19.52-50.32-82.9-50.43-83.09a8.36,8.36,0,0,0-5.77-5.23,16.64,16.64,0,0,0-4-.62,10.87,10.87,0,0,0-10.36,5.81l-47,83.13Zm38.51-65.29c3.19,5.4,11.72,20.09,14.93,25.59h-30c3.2-5.5,11.89-20.19,15-25.59" transform="translate(-23.44 -247.76)"/></g><g class="cls-4"><path class="cls-5" d="M303.65,336.72c5.16-8.83,12-20.48,12.75-21.89h51.74c.78,1.3,7.4,12.43,13,21.89h21.4c-11.86-19.52-50.29-82.9-50.42-83.09a8.45,8.45,0,0,0-5.75-5.23,16.89,16.89,0,0,0-4-.62,10.77,10.77,0,0,0-6,1.33,11,11,0,0,0-4.4,4.48L285,336.72Zm38.53-65.29c3.17,5.4,11.73,20.09,14.93,25.59h-30c3.24-5.5,11.86-20.19,15.05-25.59" transform="translate(-23.44 -247.76)"/></g><g class="cls-4"><polygon class="cls-5" points="193.4 1.07 193.4 18.72 226.75 18.72 226.75 88.96 245.08 88.96 245.08 18.72 278.6 18.72 278.6 1.07 193.4 1.07"/></g><g class="cls-4"><path class="cls-5" d="M444.38,319c-6.13,0-10.39-.22-12.72-.71-6.83-1.52-6.83-4.69-6.83-5.9V249H406.35v63.26c0,6.42,1.88,11.69,5.65,15.67,3.36,3.5,8.43,6,15.52,7.65,3,.73,8.51,1.05,16.94,1.05h48.15V319Z" transform="translate(-23.44 -247.76)"/></g><g class="cls-4"><path class="cls-5" d="M697.82,248.74v58.88c-7.9-7.84-55-54.48-55-54.48l-3.09-2.49a13.79,13.79,0,0,0-7.46-2.67,8.42,8.42,0,0,0-4.89,1.5c-3,2-4.52,4.47-4.52,7.3V337h18.47V277.51c7.93,7.81,55.7,55.05,55.7,55.05l2.2,1.95c2.09,1.68,3.93,2.49,5.72,2.49,3.49,0,6-.68,7.75-2.08,2.38-1.93,3.56-5.25,3.56-9.9V248.74Z" transform="translate(-23.44 -247.76)"/></g><g class="cls-4"><polygon class="cls-5" points="389.33 135.33 389.33 114.01 382.91 114.01 382.91 112.03 397.89 112.03 397.89 114.01 391.45 114.01 391.45 135.33 389.33 135.33"/></g><g class="cls-4"><polygon class="cls-5" points="401.74 135.33 401.74 112.03 403.86 112.03 403.86 121.48 416.54 121.48 416.54 112.03 418.66 112.03 418.66 135.33 416.54 135.33 416.54 123.3 403.86 123.3 403.86 135.33 401.74 135.33"/></g><g class="cls-4"><polygon class="cls-5" points="424.78 135.33 424.78 112.03 436.32 112.03 436.32 114.01 426.9 114.01 426.9 121.31 436.32 121.31 436.32 123.3 426.9 123.3 426.9 133.35 436.32 133.35 436.32 135.33 424.78 135.33"/></g><g class="cls-4"><polygon class="cls-5" points="451.55 135.33 451.55 112.03 463.09 112.03 463.09 114.01 453.67 114.01 453.67 121.31 463.09 121.31 463.09 123.3 453.67 123.3 453.67 133.35 463.09 133.35 463.09 135.33 451.55 135.33"/></g><g class="cls-4"><path class="cls-5" d="M490.26,379.19l1.83-1a5,5,0,0,0,1.75,2.66,4.83,4.83,0,0,0,3,.94,4.52,4.52,0,0,0,3.45-1.3,5,5,0,0,0,1.24-3.61,4.57,4.57,0,0,0-.84-2.81,11.15,11.15,0,0,0-3.57-2.57,16.42,16.42,0,0,1-4.69-3.28,5.69,5.69,0,0,1,.52-7.46,6.14,6.14,0,0,1,4.35-1.56,6,6,0,0,1,3,.74,5.53,5.53,0,0,1,2.11,2.22l-1.64,1a3.5,3.5,0,0,0-1.43-1.54,4.53,4.53,0,0,0-2.2-.52,3.5,3.5,0,0,0-3.75,3.74q0,2.46,4,4.58l1.11.59a11.72,11.72,0,0,1,4,3.1,6.5,6.5,0,0,1,1,3.78,6.94,6.94,0,0,1-10.75,5.67,7.49,7.49,0,0,1-2.55-3.4" transform="translate(-23.44 -247.76)"/></g><g class="cls-4"><path class="cls-5" d="M506.83,379.19l1.83-1a5,5,0,0,0,1.75,2.66,4.85,4.85,0,0,0,3,.94,4.54,4.54,0,0,0,3.45-1.3,5.06,5.06,0,0,0,1.23-3.61,4.57,4.57,0,0,0-.83-2.81,11.22,11.22,0,0,0-3.58-2.57,16.33,16.33,0,0,1-4.68-3.28,5.68,5.68,0,0,1,.51-7.46,6.15,6.15,0,0,1,4.36-1.56,5.92,5.92,0,0,1,3,.74A5.55,5.55,0,0,1,519,362.2l-1.64,1a3.62,3.62,0,0,0-1.43-1.54,4.53,4.53,0,0,0-2.2-.52,3.5,3.5,0,0,0-3.75,3.74q0,2.46,4,4.58l1.11.59a11.66,11.66,0,0,1,4,3.1,6.57,6.57,0,0,1,1,3.78,6.93,6.93,0,0,1-10.74,5.67,7.42,7.42,0,0,1-2.55-3.4" transform="translate(-23.44 -247.76)"/></g><g class="cls-4"><polygon class="cls-5" points="501.74 135.33 501.74 112.03 513.28 112.03 513.28 114.01 503.86 114.01 503.86 121.31 513.28 121.31 513.28 123.3 503.86 123.3 503.86 133.35 513.28 133.35 513.28 135.33 501.74 135.33"/></g><g class="cls-4"><polygon class="cls-5" points="518.8 135.33 518.8 111.03 535.33 130.54 535.33 112.03 537.29 112.03 537.29 136.02 520.79 116.48 520.79 135.33 518.8 135.33"/></g><g class="cls-4"><path class="cls-5" d="M585.57,364.05a12.25,12.25,0,0,0-3.55-2.21,10.21,10.21,0,0,0-3.82-.72,9.85,9.85,0,0,0-7.34,2.87,10.16,10.16,0,0,0-2.83,7.47,11.73,11.73,0,0,0,.69,4.15,9.29,9.29,0,0,0,2.11,3.28A9.48,9.48,0,0,0,574,381a10,10,0,0,0,3.88.74,11.67,11.67,0,0,0,3.92-.68,12.83,12.83,0,0,0,3.61-2v2.48a15.21,15.21,0,0,1-3.64,1.62,13.16,13.16,0,0,1-8.64-.34,11.74,11.74,0,0,1-4-2.55,11.36,11.36,0,0,1-2.57-3.92,13.75,13.75,0,0,1,0-9.76,11.28,11.28,0,0,1,2.59-3.91,11.83,11.83,0,0,1,4-2.52,13.06,13.06,0,0,1,4.82-.91,13.3,13.3,0,0,1,4.13.62,11,11,0,0,1,3.46,1.84Z" transform="translate(-23.44 -247.76)"/></g><g class="cls-4"><polygon class="cls-5" points="567.06 135.33 567.06 112.03 578.59 112.03 578.59 114.01 569.17 114.01 569.17 121.31 578.59 121.31 578.59 123.3 569.17 123.3 569.17 133.35 578.59 133.35 578.59 135.33 567.06 135.33"/></g><g class="cls-4"><path class="cls-5" d="M641.12,371.49a12,12,0,0,1-3.65,8.65,12.74,12.74,0,0,1-13.62,2.67,12.37,12.37,0,0,1-4-2.67,12.53,12.53,0,0,1-2.71-4,12,12,0,0,1-.93-4.68,12.08,12.08,0,0,1,.93-4.72,12.28,12.28,0,0,1,2.71-4,11.74,11.74,0,0,1,4-2.63,12.85,12.85,0,0,1,4.81-.9,13,13,0,0,1,4.85.91,12,12,0,0,1,4,2.62,12.31,12.31,0,0,1,2.72,4,12.08,12.08,0,0,1,.93,4.72m-12.5,10.35a10.15,10.15,0,0,0,3.92-.77,10.48,10.48,0,0,0,3.33-2.23,10.73,10.73,0,0,0,2.22-3.37,10.34,10.34,0,0,0,.78-4,10.49,10.49,0,0,0-.77-4,10.33,10.33,0,0,0-2.23-3.36,9.86,9.86,0,0,0-3.3-2.24,10.26,10.26,0,0,0-4-.77,10,10,0,0,0-7.2,3,10.54,10.54,0,0,0-2.23,11.32,10,10,0,0,0,9.43,6.37" transform="translate(-23.44 -247.76)"/></g><g class="cls-4"><polygon class="cls-5" points="622.69 135.33 622.69 112.03 634.23 112.03 634.23 114.01 624.81 114.01 624.81 121.31 633.88 121.31 633.88 123.3 624.81 123.3 624.81 135.33 622.69 135.33"/></g><g class="cls-4"><path class="cls-5" d="M691.22,364.05a12.66,12.66,0,0,0-3.55-2.21,10.25,10.25,0,0,0-3.82-.72A9.88,9.88,0,0,0,676.5,364a10.19,10.19,0,0,0-2.82,7.47,11.73,11.73,0,0,0,.69,4.15,9,9,0,0,0,2.11,3.28,9.39,9.39,0,0,0,3.21,2.13,10,10,0,0,0,3.88.74,11.66,11.66,0,0,0,3.91-.68,12.74,12.74,0,0,0,3.62-2v2.48a15.21,15.21,0,0,1-3.64,1.62,13.16,13.16,0,0,1-8.64-.34,11.64,11.64,0,0,1-4-2.55,11.24,11.24,0,0,1-2.58-3.92,13.17,13.17,0,0,1-.88-4.89,13,13,0,0,1,.9-4.87,11.12,11.12,0,0,1,2.58-3.91,11.88,11.88,0,0,1,4-2.52,13,13,0,0,1,4.82-.91,13.34,13.34,0,0,1,4.13.62,11.3,11.3,0,0,1,3.46,1.84Z" transform="translate(-23.44 -247.76)"/></g><g class="cls-4"><polygon class="cls-5" points="672.7 135.33 672.7 112.03 684.24 112.03 684.24 114.01 674.82 114.01 674.82 121.31 684.24 121.31 684.24 123.3 674.82 123.3 674.82 133.35 684.24 133.35 684.24 135.33 672.7 135.33"/></g><g class="cls-4"><path class="cls-5" d="M727.36,383.09h-2.58L716.59,372h-1.26v11.11H713.2v-23.3h4.29q3.78,0,5.67,1.57a5.88,5.88,0,0,1,1.88,4.78,5.66,5.66,0,0,1-1.61,4.28A6.13,6.13,0,0,1,719,372Zm-12-21.45v8.6h2.13c2,0,3.35-.32,4.12-.94a3.92,3.92,0,0,0,1.18-3.23,4.24,4.24,0,0,0-1.22-3.41,6.34,6.34,0,0,0-4.08-1Z" transform="translate(-23.44 -247.76)"/></g><g class="cls-4"><path class="cls-5" d="M727.55,383.1l10.23-24.23,9.81,24.23h-2.31l-3-7.9h-9.51l-3.09,7.9Zm6-9.71h8.12l-4-10.14Z" transform="translate(-23.44 -247.76)"/></g><g class="cls-4"><polygon class="cls-5" points="737.72 136.25 729.53 117.53 727.77 135.33 725.58 135.33 728.75 111.03 737.69 131.78 746.95 111.03 749.94 135.33 747.76 135.33 746.03 117.53 737.72 136.25"/></g><g class="cls-4"><rect class="cls-5" x="754.68" y="112.03" width="2.12" height="23.31"/></g><g class="cls-4"><path class="cls-5" d="M805.08,364.05a12.25,12.25,0,0,0-3.55-2.21,10.21,10.21,0,0,0-3.82-.72,9.89,9.89,0,0,0-7.35,2.87,10.19,10.19,0,0,0-2.82,7.47,11.73,11.73,0,0,0,.69,4.15,9,9,0,0,0,2.12,3.28,9.35,9.35,0,0,0,3.2,2.13,10,10,0,0,0,3.88.74,11.76,11.76,0,0,0,3.92-.68,12.83,12.83,0,0,0,3.61-2v2.48a15.21,15.21,0,0,1-3.64,1.62,13.16,13.16,0,0,1-8.64-.34,11.84,11.84,0,0,1-4-2.55,11.53,11.53,0,0,1-2.58-3.92,13.37,13.37,0,0,1-.88-4.89,13,13,0,0,1,.9-4.87,11.14,11.14,0,0,1,2.59-3.91,11.73,11.73,0,0,1,4-2.52,13,13,0,0,1,4.82-.91,13.34,13.34,0,0,1,4.13.62,11.19,11.19,0,0,1,3.46,1.84Z" transform="translate(-23.44 -247.76)"/></g><g class="cls-4"><path class="cls-5" d="M808.21,379.19l1.83-1a5.08,5.08,0,0,0,1.75,2.66,4.83,4.83,0,0,0,3,.94,4.52,4.52,0,0,0,3.45-1.3,5,5,0,0,0,1.25-3.61,4.57,4.57,0,0,0-.84-2.81,11.34,11.34,0,0,0-3.58-2.57,16.33,16.33,0,0,1-4.68-3.28,5.65,5.65,0,0,1,.51-7.46,6.14,6.14,0,0,1,4.35-1.56,6,6,0,0,1,3,.74,5.51,5.51,0,0,1,2.1,2.22l-1.63,1a3.58,3.58,0,0,0-1.44-1.54,4.53,4.53,0,0,0-2.2-.52,3.5,3.5,0,0,0-3.75,3.74q0,2.46,4,4.58l1.11.59a11.86,11.86,0,0,1,4,3.1,6.5,6.5,0,0,1,1,3.78,6.93,6.93,0,0,1-10.74,5.67,7.44,7.44,0,0,1-2.56-3.4" transform="translate(-23.44 -247.76)"/></g></g></g></g></g></svg>