<svg xmlns="http://www.w3.org/2000/svg" viewBox="0 0 136.06 23.21"><defs><style>.cls-1{fill:#47a449;}.cls-2{fill:#3d833b;}</style></defs><title>clage</title><g id="Layer_2" data-name="Layer 2"><g id="Layer_1-2" data-name="Layer 1"><path d="M79.31,18.32H72.6V1.68a.77.77,0,0,0-.74-.74H69.1a.74.74,0,0,0-.73.74V21.52a.73.73,0,0,0,.73.74h9c.3,0,.43-.1.72-.66L80,19.14c.18-.46-.37-.82-.73-.82"/><path d="M64,16.64a.71.71,0,0,0-1,0,7,7,0,0,1-4.47,1.66A6.61,6.61,0,0,1,52,11.54a6.62,6.62,0,0,1,6.5-6.81A6.89,6.89,0,0,1,63,6.45a.9.9,0,0,0,.42.24c.29,0,.43-.11.71-.67l1.21-2.48a.56.56,0,0,0-.3-.69A10.17,10.17,0,0,0,58.45.64a11,11,0,1,0,0,21.92,10.42,10.42,0,0,0,7.39-2.95.75.75,0,0,0,0-1.05Z"/><path d="M88.68,14.76,91.4,8.65l2.77,6.11m7.33,6.48L92.28,1.07a.67.67,0,0,0-.66-.43h-.3a.71.71,0,0,0-.66.43L81.35,21.24a.7.7,0,0,0,.67,1h2.6a1,1,0,0,0,1-.7L87,18.64h8.9l1.34,2.93a1,1,0,0,0,1,.69h2.6a.7.7,0,0,0,.67-1"/><path d="M118.82,11.14H116a.69.69,0,0,0-.7.74l0,2.91V17.6a9.08,9.08,0,0,1-3.39.69,6.64,6.64,0,0,1-6.56-6.69,6.69,6.69,0,0,1,6.53-6.78,6.55,6.55,0,0,1,4.4,1.7.71.71,0,0,0,.51.2c.29,0,.42-.12.7-.67l1.21-2.46a.52.52,0,0,0-.15-.57l-.16-.12A11.35,11.35,0,0,0,111.7.64a10.93,10.93,0,0,0-10.91,11,10.84,10.84,0,0,0,10.91,10.9,15.29,15.29,0,0,0,7.51-2,.75.75,0,0,0,.32-.62v-8a.74.74,0,0,0-.71-.74"/><path d="M135.32,4.88a.74.74,0,0,0,.74-.74V1.68a.74.74,0,0,0-.74-.74H123.15a.74.74,0,0,0-.74.74V21.52a.74.74,0,0,0,.74.74h12.17a.74.74,0,0,0,.74-.74V19.07a.74.74,0,0,0-.74-.74h-8.68V13.42h7.22a.74.74,0,0,0,.74-.74V10.19a.77.77,0,0,0-.74-.74h-7.22V4.88Z"/><path class="cls-1" d="M19,.21,1.14,8A2.08,2.08,0,0,0,0,9.77v3.67a2.12,2.12,0,0,0,.9,1.61L8.77,11.6l1.14-.5,9.09-4a2.9,2.9,0,0,1,1.14-.21V0A2.9,2.9,0,0,0,19,.21"/><path class="cls-2" d="M40.28,13.44V9.77A2.08,2.08,0,0,0,39.14,8L21.29.21A3,3,0,0,0,20.14,0V6.92a3,3,0,0,1,1.15.21l9.08,4,1.14.5,7.87,3.45a2.09,2.09,0,0,0,.9-1.61"/><path class="cls-1" d="M31.51,11.6l-1.14.5L24,14.87l-2.76,1.21a2.86,2.86,0,0,1-1.14.21v6.92a3,3,0,0,0,1-.14l10.23-4.48,7.79-3.4.24-.14Z"/><path class="cls-2" d="M19,16.08l-2.25-1-5.1-2.23L5.85,15.4l-1.15.5-1,.42,5,2.2L19,23a3,3,0,0,0,1.15.21V16.29A3,3,0,0,1,19,16.08"/></g></g></svg>