<svg xmlns="http://www.w3.org/2000/svg" viewBox="0 0 113.39 113.38"><defs><style>.cls-1{fill:#fff;}.cls-2{fill:#00803b;}</style></defs><title>dubielvitrum</title><g id="Layer_2" data-name="Layer 2"><g id="Layer_1-2" data-name="Layer 1"><rect class="cls-1" width="113.39" height="113.38"/><rect class="cls-2" x="2.16" y="2.16" width="109.06" height="109.06"/><path class="cls-1" d="M16.58,97.77h0a3.15,3.15,0,0,0,1-.17,2.28,2.28,0,0,0,.87-.56,2.77,2.77,0,0,0,.6-1,4.23,4.23,0,0,0,.23-1.52A6.1,6.1,0,0,0,19.13,93a3.14,3.14,0,0,0-.52-1.14,2.38,2.38,0,0,0-1-.72,3.78,3.78,0,0,0-1.48-.25H14.45v6.85Zm.17-8.86a5.49,5.49,0,0,1,2,.34,4.14,4.14,0,0,1,1.56,1,4.65,4.65,0,0,1,1,1.68,6.7,6.7,0,0,1,.37,2.35,7.63,7.63,0,0,1-.3,2.19,4.83,4.83,0,0,1-.92,1.74,4.45,4.45,0,0,1-1.54,1.15,5.38,5.38,0,0,1-2.17.41H12.07V88.91Z"/><path class="cls-1" d="M27.83,99.77V98.68h0a2.46,2.46,0,0,1-1.06,1,3.22,3.22,0,0,1-1.34.3A3.57,3.57,0,0,1,24,99.74a2,2,0,0,1-.88-.64,2.64,2.64,0,0,1-.45-1,6.82,6.82,0,0,1-.13-1.33V91.91h2.17v4.44A2.68,2.68,0,0,0,25,97.8a1.17,1.17,0,0,0,1.08.48,1.47,1.47,0,0,0,1.27-.52,2.88,2.88,0,0,0,.4-1.73V91.91h2.16v7.86Z"/><path class="cls-1" d="M36.57,94.89h0a2.5,2.5,0,0,0-.33-.8,1.69,1.69,0,0,0-.57-.56,1.73,1.73,0,0,0-1.65,0,1.64,1.64,0,0,0-.58.56,2.5,2.5,0,0,0-.33.8,4.28,4.28,0,0,0-.11,1,4.17,4.17,0,0,0,.11.94,2.55,2.55,0,0,0,.33.81,1.61,1.61,0,0,0,.58.55,1.73,1.73,0,0,0,1.65,0,1.66,1.66,0,0,0,.57-.55,2.55,2.55,0,0,0,.33-.81,3.67,3.67,0,0,0,.11-.94,3.77,3.77,0,0,0-.11-1m-3.49-6v4h0A2.22,2.22,0,0,1,34.18,92a3.58,3.58,0,0,1,1.41-.28,3,3,0,0,1,2.21,1A3.85,3.85,0,0,1,38.55,94a6.14,6.14,0,0,1,0,3.73A3.7,3.7,0,0,1,37.8,99a3,3,0,0,1-1,.75,3.06,3.06,0,0,1-1.17.24A4.25,4.25,0,0,1,34,99.7a2,2,0,0,1-1-.93h0v1h-2V88.91Z"/><path class="cls-1" d="M41.82,91.91h0v7.86H39.67V91.91Zm-2.15-1.22V88.91h2.15v1.78Z"/><path class="cls-1" d="M47.67,93.75h0a1.52,1.52,0,0,0-1.17-.43,1.87,1.87,0,0,0-.87.18,1.68,1.68,0,0,0-.54.43,1.46,1.46,0,0,0-.29.55,2.15,2.15,0,0,0-.1.52h3.51a2.46,2.46,0,0,0-.54-1.25m-2.44,4.14a2,2,0,0,0,1.4.47A1.93,1.93,0,0,0,47.76,98a1.4,1.4,0,0,0,.58-.69h1.9a3.61,3.61,0,0,1-1.4,2,4.09,4.09,0,0,1-2.28.61,4.3,4.3,0,0,1-1.68-.3,3.32,3.32,0,0,1-1.26-.84,3.85,3.85,0,0,1-.8-1.31,4.68,4.68,0,0,1-.28-1.67,4.59,4.59,0,0,1,.29-1.64,3.88,3.88,0,0,1,.82-1.32A3.78,3.78,0,0,1,44.92,92a4,4,0,0,1,1.64-.32,3.76,3.76,0,0,1,1.75.38,3.54,3.54,0,0,1,1.22,1,4.16,4.16,0,0,1,.69,1.49,5.32,5.32,0,0,1,.16,1.75H44.7A2.21,2.21,0,0,0,45.23,97.89Z"/><rect class="cls-1" x="51.1" y="88.91" width="2.16" height="10.86"/><polygon class="cls-1" points="60.26 99.77 56.75 88.91 59.2 88.91 61.62 96.55 61.65 96.55 64.09 88.91 66.56 88.91 62.95 99.77 60.26 99.77"/><path class="cls-1" d="M68.56,91.91h0v7.86H66.41V91.91Zm-2.15-1.22V88.91h2.15v1.78Z"/><path class="cls-1" d="M74.29,91.91v1.44H72.7v3.9a1.07,1.07,0,0,0,.19.73,1.06,1.06,0,0,0,.73.18H74l.32-.05v1.67a5.14,5.14,0,0,1-.61.07H73a5.86,5.86,0,0,1-1-.07,2.16,2.16,0,0,1-.79-.26,1.42,1.42,0,0,1-.54-.57,2,2,0,0,1-.2-1V93.35h-1.3V91.91h1.3V89.55H72.7v2.36Z"/><path class="cls-1" d="M77.07,91.91v1.46h0a2.8,2.8,0,0,1,.41-.68,2.88,2.88,0,0,1,1.31-.87,2.66,2.66,0,0,1,.79-.12,1.74,1.74,0,0,1,.48.07v2l-.37,0-.41,0a2.28,2.28,0,0,0-1,.2,1.8,1.8,0,0,0-.67.54,2.54,2.54,0,0,0-.36.8,4.37,4.37,0,0,0-.1,1v3.54H75V91.91Z"/><path class="cls-1" d="M86,99.77V98.68h0a2.48,2.48,0,0,1-1.07,1,3.15,3.15,0,0,1-1.34.3,3.64,3.64,0,0,1-1.42-.23,2,2,0,0,1-.87-.64,2.38,2.38,0,0,1-.45-1,6.12,6.12,0,0,1-.13-1.33V91.91h2.16v4.44a2.78,2.78,0,0,0,.3,1.45,1.19,1.19,0,0,0,1.08.48,1.49,1.49,0,0,0,1.28-.52A3,3,0,0,0,85.9,96V91.91h2.16v7.86Z"/><path class="cls-1" d="M90.89,91.91V93h0a3,3,0,0,1,1-.94,2.82,2.82,0,0,1,1.38-.33,3.18,3.18,0,0,1,1.36.28,2,2,0,0,1,.94,1,3.35,3.35,0,0,1,.95-.92A2.54,2.54,0,0,1,98,91.7a4.34,4.34,0,0,1,1.16.15,2.34,2.34,0,0,1,.91.48,2.31,2.31,0,0,1,.59.88,3.4,3.4,0,0,1,.22,1.3v5.26H98.7V95.32q0-.41,0-.75a1.61,1.61,0,0,0-.16-.61,1.05,1.05,0,0,0-.4-.41,1.5,1.5,0,0,0-.73-.15,1.37,1.37,0,0,0-.74.18,1.27,1.27,0,0,0-.44.45,2.09,2.09,0,0,0-.21.64,5.81,5.81,0,0,0,0,.72v4.38H93.77V95.36c0-.23,0-.46,0-.69a1.81,1.81,0,0,0-.13-.63.9.9,0,0,0-.38-.46,1.41,1.41,0,0,0-.78-.18,1.35,1.35,0,0,0-.4.07,1.23,1.23,0,0,0-.49.26,1.52,1.52,0,0,0-.41.55,2.19,2.19,0,0,0-.16.93v4.56H88.85V91.91Z"/><path class="cls-1" d="M44.37,68h0A11.37,11.37,0,1,1,55.73,56.67,11.37,11.37,0,0,1,44.37,68M76.08,13.11V50.82L44,13.22H30.53L49.68,35.78A21.55,21.55,0,1,0,65.91,56.67a20,20,0,0,0-.11-2.19L76.08,66.41,86.27,78.22V13.11Z"/></g></g></svg>