<svg xmlns="http://www.w3.org/2000/svg" xmlns:xlink="http://www.w3.org/1999/xlink" viewBox="0 0 113.39 64.34"><defs><style>.cls-1{fill:none;}.cls-2{clip-path:url(#clip-path);}.cls-3{clip-path:url(#clip-path-2);}.cls-4{fill:#fff;}</style><clipPath id="clip-path" transform="translate(-220.81 -43.73)"><rect class="cls-1" x="1.12" y="1.21" width="538.58" height="841.89"/></clipPath><clipPath id="clip-path-2" transform="translate(-220.81 -43.73)"><rect class="cls-1" x="1.12" y="1.21" width="538.58" height="841.89"/></clipPath></defs><title>duscholux</title><g id="Layer_2" data-name="Layer 2"><g id="Layer_1-2" data-name="Layer 1"><g class="cls-3"><path class="cls-4" d="M292.48,47c-2.17-2.17-5.44-3.27-9.73-3.27H260v7.7h20.31c4.2,0,6.52,2.31,6.52,6.52V70.14c0,4.21-2.32,6.52-6.52,6.52H268.92V58.17H260V84.36h22.75c4.29,0,7.56-1.1,9.73-3.27s3.26-5.44,3.26-9.73V56.73c0-4.29-1.09-7.57-3.26-9.73" transform="translate(-220.81 -43.73)"/><path class="cls-4" d="M226.25,96.28h-5.44v1.77h5.52a2.56,2.56,0,0,1,1.78.49c.38.34.58.64.58,3.51s-.21,3.29-.57,3.62a2.73,2.73,0,0,1-1.79.46H223V100h-2v7.87h5.31a7.05,7.05,0,0,0,2.14-.29c1.55-.51,2.33-1.78,2.33-3.75v-3.46a4.73,4.73,0,0,0-.55-2.43c-.67-1.11-2-1.68-3.93-1.68" transform="translate(-220.81 -43.73)"/></g><polygon class="cls-4" points="54.19 52.56 51.84 52.56 51.84 64.16 54.19 64.16 54.19 59.29 59.56 59.29 59.56 64.16 61.91 64.16 61.91 52.56 59.56 52.56 59.56 57.53 54.19 57.53 54.19 52.56"/><polygon class="cls-4" points="81.07 52.56 78.72 52.56 78.72 64.16 87.62 64.16 87.62 62.41 81.07 62.41 81.07 52.56"/><polygon class="cls-4" points="109.46 58.27 113.25 52.56 110.67 52.56 108.2 56.39 105.64 52.56 103.22 52.56 106.97 58.28 103.12 64.16 105.56 64.16 108.2 60.16 110.82 64.16 113.39 64.16 109.46 58.27"/><g class="cls-3"><path class="cls-4" d="M236.67,105.89a1.68,1.68,0,0,1-.44-1.3V96.28H233.9v8c0,1.83.73,3,2.17,3.48a5.7,5.7,0,0,0,1.48.25l1.29,0,1.29,0a5.7,5.7,0,0,0,1.48-.25c1.44-.48,2.17-1.65,2.17-3.48v-8h-2.34v8.31a1.68,1.68,0,0,1-.44,1.3c-.3.28-.77.45-2.16.45s-1.86-.17-2.17-.45" transform="translate(-220.81 -43.73)"/><path class="cls-4" d="M313.69,105.89a1.68,1.68,0,0,1-.43-1.3V96.28h-2.34v8c0,1.83.73,3,2.17,3.48a5.7,5.7,0,0,0,1.48.25l1.29,0,1.29,0a5.7,5.7,0,0,0,1.48-.25c1.44-.48,2.17-1.65,2.17-3.48v-8h-2.34v8.31a1.68,1.68,0,0,1-.44,1.3c-.3.28-.77.45-2.16.45s-1.86-.17-2.17-.45" transform="translate(-220.81 -43.73)"/><path class="cls-4" d="M266.78,98.28a1.65,1.65,0,0,1,.47,1.13l2.22,0a2.94,2.94,0,0,0-2.08-3,6.08,6.08,0,0,0-2-.28h-1.53a6.27,6.27,0,0,0-2,.27c-1.44.48-2.17,1.65-2.17,3.48v4.47c0,1.83.73,3,2.17,3.48a6.27,6.27,0,0,0,2,.27h1.53a6.38,6.38,0,0,0,2-.27c1.42-.48,2.09-1.55,2.1-3.37l-2.22,0v.21a1.7,1.7,0,0,1-.48,1.29c-.3.27-.77.44-2.16.44s-1.9-.14-2.2-.49c-.46-.53-.46-.71-.46-3.73v0c0-3,0-3.26.51-3.79.3-.31.94-.44,2.15-.44a3.29,3.29,0,0,1,2.16.44" transform="translate(-220.81 -43.73)"/><path class="cls-4" d="M293.62,105.89c-.31.29-.77.44-2.5.44s-2.23-.17-2.52-.48-.48-.59-.48-3.76,0-3.27.5-3.79c.27-.28.78-.46,2.5-.46h0c1.68,0,2.18.16,2.48.44s.53.65.53,3.81-.11,3.39-.52,3.8m.53-9.51a6.16,6.16,0,0,0-2-.28h-2.11a6.2,6.2,0,0,0-2,.28c-1.48.47-2.17,1.58-2.17,3.47v4.47c0,1.89.67,3,2.18,3.48a6.14,6.14,0,0,0,2,.27h2.11a6.29,6.29,0,0,0,2-.27c1.5-.51,2.17-1.58,2.17-3.48V99.85c0-1.89-.69-3-2.17-3.47" transform="translate(-220.81 -43.73)"/><path class="cls-4" d="M254.65,101.46a6.94,6.94,0,0,0-2-.23h-1.37a2.87,2.87,0,0,1-1.77-.41,1.58,1.58,0,0,1-.5-1.24,1.71,1.71,0,0,1,.49-1.29c.3-.26.81-.44,2.32-.44a3.11,3.11,0,0,1,2.05.42,1.67,1.67,0,0,1,.55,1.11l2.19,0a3,3,0,0,0-2.13-3,6.29,6.29,0,0,0-2-.28h-1.39a6.29,6.29,0,0,0-2,.28,3.12,3.12,0,0,0-2.2,3.11v.16a3,3,0,0,0,2.2,3,6.57,6.57,0,0,0,2,.25h1.37a2.49,2.49,0,0,1,1.58.37,1.72,1.72,0,0,1,.51,1.28v.08a1.61,1.61,0,0,1-.45,1.35c-.3.3-.68.41-2.27.41a3.29,3.29,0,0,1-2.15-.45,1.8,1.8,0,0,1-.55-1.32v-.14l-2.26,0a3.2,3.2,0,0,0,2.21,3.32,6.61,6.61,0,0,0,2,.27h1.57a6.54,6.54,0,0,0,2-.27,3,3,0,0,0,2.14-3.18v-.11a2.86,2.86,0,0,0-2.13-3.05" transform="translate(-220.81 -43.73)"/></g></g></g></svg>