<svg xmlns="http://www.w3.org/2000/svg" viewBox="0 0 119.58 62.35"><title>gessi</title><g id="Layer_2" data-name="Layer 2"><g id="Layer_1-2" data-name="Layer 1"><path d="M38.66,7.17H30.74a23.93,23.93,0,0,0-23.67,24c0,11.77,9.87,24,22.14,24l2.3,0v-20H19.29V28H38.67V62.35h-8C13.67,62.35,0,48.25,0,31.17S13.69,0,30.67,0h8Z"/><path d="M93.28,7.2C85.74,7.2,87.22,14,89.53,18c1.87,3.19,3.72,6.24,5.87,9.79,4.55,7.81,7.13,15.12,3.72,22.5-4.14,9-10.86,11.25-18.73,12.09V55.18c5.06-.54,9.53-2.11,12.21-8,4.72-10.3-10.93-23-12.17-32.68C79,3.58,88.63,0,93.16,0h3.59V7.2Z"/><polygon points="41.66 0 59.8 0 59.84 7.16 48.88 7.16 48.88 11.8 54.94 11.8 54.94 19 48.88 19 48.88 55.18 59.8 55.18 59.8 62.35 41.66 62.35 41.66 0"/><rect x="102.71" width="7.12" height="62.35"/><path d="M75.25,7.2C67.71,7.2,69.19,14,71.51,18c1.86,3.19,3.72,6.24,5.87,9.79,4.55,7.81,7.13,15.12,3.72,22.5-4.15,9-10.86,11.25-18.74,12.09V55.18c5.06-.54,9.53-2.11,12.21-8,4.72-10.3-10.94-23-12.17-32.68C61,3.58,70.61,0,75.14,0h3.58V7.2Z"/><path d="M114.89,3.63V2.09h1c.54,0,1,.14,1,.76s-.66.78-1.33.78Zm0,.46h.92l1.25,2h.64l-1.32-2a1.19,1.19,0,0,0,1.11-1.24c0-.79-.44-1.23-1.45-1.23h-1.7V6.06h.55Zm.85-3.54A3.21,3.21,0,0,1,119,3.84a3.25,3.25,0,1,1-6.49,0A3.22,3.22,0,0,1,115.74.55m0-.55a3.79,3.79,0,0,0-3.85,3.84,3.85,3.85,0,1,0,7.69,0A3.79,3.79,0,0,0,115.74,0"/></g></g></svg>