<svg xmlns="http://www.w3.org/2000/svg" viewBox="0 0 80.93 42.42"><defs><style>.cls-1{fill:#1a3c34;}</style></defs><title>glass1989</title><g id="Layer_2" data-name="Layer 2"><g id="Layer_1-2" data-name="Layer 1"><path class="cls-1" d="M78.55,10.78h-.41v.78h.39c.33,0,.47-.12.47-.39s-.14-.39-.45-.39M79,13.23l-.42-1.14h-.4v1.14h-.63v-3h1a1.4,1.4,0,0,1,.73.13,1,1,0,0,1,.4.82.81.81,0,0,1-.51.81l.53,1.25Zm-.44-3.64a2.16,2.16,0,1,0,2.14,2.2,2.13,2.13,0,0,0-2.14-2.2m0,4.56a2.4,2.4,0,1,1,2.41-2.45,2.39,2.39,0,0,1-2.41,2.45"/><path class="cls-1" d="M25,34.19h.24l.26,0a.7.7,0,0,1,.23.06.25.25,0,0,1,.13.09s0,0,0,.06v3.65a.08.08,0,0,1,0,.07.38.38,0,0,1-.12.09l-.21.07a1,1,0,0,1-.25,0h-.23v.59h3.1v-.59h-.24a1.1,1.1,0,0,1-.25,0,.86.86,0,0,1-.23-.06.28.28,0,0,1-.14-.09s0,0,0-.06V34.44s0,0,0-.06a.56.56,0,0,1,.14-.1.9.9,0,0,1,.22-.06l.26,0h.24V33.6H25"/><path class="cls-1" d="M33.48,37.21a2.18,2.18,0,0,1-.42.85.35.35,0,0,1-.2.14,1.18,1.18,0,0,1-.34,0,1,1,0,0,1-.63-.2,1.76,1.76,0,0,1-.48-.56,2.59,2.59,0,0,1-.3-.79,4.26,4.26,0,0,1-.09-.86,1.82,1.82,0,0,1,.36-1.21,1.13,1.13,0,0,1,.93-.41,1,1,0,0,1,.54.15,1.45,1.45,0,0,1,.41.44,2.19,2.19,0,0,1,.24.65,3.16,3.16,0,0,1,.08.76,4.58,4.58,0,0,1-.1,1m.79-2.76a2.52,2.52,0,0,0-.87-.64,2.59,2.59,0,0,0-2.16,0,2.77,2.77,0,0,0-.86.6,3,3,0,0,0-.57.87,2.89,2.89,0,0,0-.2,1.06,3,3,0,0,0,.17,1,2.45,2.45,0,0,0,.53.84,2.37,2.37,0,0,0,.82.55,2.72,2.72,0,0,0,1.09.21,3.75,3.75,0,0,0,.5,0c-.12.23-.25.45-.38.65a5,5,0,0,1-.72.84,4.14,4.14,0,0,1-.8.61,6,6,0,0,1-.87.45l-.21.09.23.56.2-.05a6.81,6.81,0,0,0,1.68-.71,7.58,7.58,0,0,0,1.58-1.2,6.51,6.51,0,0,0,1.17-1.62,4.46,4.46,0,0,0,.46-2,3.1,3.1,0,0,0-.21-1.13,3.15,3.15,0,0,0-.58-.95"/><path class="cls-1" d="M40.31,41a1.13,1.13,0,0,1-.19.38,1,1,0,0,1-.35.27,1.21,1.21,0,0,1-.54.1,1.36,1.36,0,0,1-1-.38,1.51,1.51,0,0,1-.38-1.12,2.68,2.68,0,0,1,0-.46,2.43,2.43,0,0,1,.18-.49,2.18,2.18,0,0,1,.28-.46,1.39,1.39,0,0,1,.28-.26c.25.13.48.25.68.38a2.74,2.74,0,0,1,.58.46,1.86,1.86,0,0,1,.35.51,1.48,1.48,0,0,1,.13.61,1.9,1.9,0,0,1-.07.46M38,35.36a1,1,0,0,1,.1-.48.88.88,0,0,1,.26-.34,1.16,1.16,0,0,1,.39-.22,1.55,1.55,0,0,1,.47-.08,1.33,1.33,0,0,1,.54.1,1.26,1.26,0,0,1,.39.28,1.64,1.64,0,0,1,.24.43,1.91,1.91,0,0,1,.08.54,2,2,0,0,1-.25,1,1.86,1.86,0,0,1-.65.66L39.05,37a3.09,3.09,0,0,1-.54-.43A2.19,2.19,0,0,1,38.1,36a1.45,1.45,0,0,1-.15-.68m3.1,2.94a3.88,3.88,0,0,0-.65-.5l-.21-.12h0l.32-.23a3.67,3.67,0,0,0,.59-.51,2.51,2.51,0,0,0,.43-.61,1.64,1.64,0,0,0,.16-.74,1.84,1.84,0,0,0-.18-.8,1.92,1.92,0,0,0-.52-.65,2.29,2.29,0,0,0-.79-.42,2.9,2.9,0,0,0-1-.16,2.77,2.77,0,0,0-1,.18,2.85,2.85,0,0,0-.8.5,2.33,2.33,0,0,0-.57.75,2,2,0,0,0-.22.95,2.24,2.24,0,0,0,.15.84,2.27,2.27,0,0,0,.38.66,4.59,4.59,0,0,0,.54.54l.31.24-.3.22a4.7,4.7,0,0,0-.57.51,2.51,2.51,0,0,0-.43.61,1.63,1.63,0,0,0-.17.76,1.83,1.83,0,0,0,.23.9,2.19,2.19,0,0,0,.59.66,2.58,2.58,0,0,0,.81.41,3,3,0,0,0,.88.13,3.3,3.3,0,0,0,1.05-.17,2.5,2.5,0,0,0,.88-.52,2.41,2.41,0,0,0,.59-.79,2.35,2.35,0,0,0,.23-1,1.89,1.89,0,0,0-.23-.93,3.67,3.67,0,0,0-.52-.69"/><path class="cls-1" d="M47.15,37.21a2.16,2.16,0,0,1-.41.85.39.39,0,0,1-.2.14,1.25,1.25,0,0,1-.35,0,1,1,0,0,1-.63-.2,1.76,1.76,0,0,1-.48-.56,2.86,2.86,0,0,1-.29-.79,3.67,3.67,0,0,1-.1-.86,1.82,1.82,0,0,1,.36-1.21,1.15,1.15,0,0,1,.94-.41,1,1,0,0,1,.54.15,1.42,1.42,0,0,1,.4.44,2.1,2.1,0,0,1,.25.65,3.77,3.77,0,0,1,.08.76,4.64,4.64,0,0,1-.11,1m.8-2.76a2.73,2.73,0,0,0-.87-.64,2.59,2.59,0,0,0-2.16,0,2.77,2.77,0,0,0-.86.6,3,3,0,0,0-.57.87,2.71,2.71,0,0,0-.21,1.06,2.79,2.79,0,0,0,.18,1,2.42,2.42,0,0,0,.52.84,2.51,2.51,0,0,0,.83.55,2.68,2.68,0,0,0,1.09.21,4,4,0,0,0,.5,0,5.77,5.77,0,0,1-1.1,1.49,4.53,4.53,0,0,1-.81.61,6.43,6.43,0,0,1-.86.45l-.21.09.23.56.19-.05a6.71,6.71,0,0,0,1.69-.71,7.27,7.27,0,0,0,1.57-1.2,6.26,6.26,0,0,0,1.17-1.62,4.33,4.33,0,0,0,.46-2,3.06,3.06,0,0,0-.21-1.13,3.12,3.12,0,0,0-.57-.95"/><path class="cls-1" d="M46,27.83V18.62a9.16,9.16,0,1,0-5.18,8.26l.34-.17V23l-.94.64A6.1,6.1,0,1,1,43,18.62v9.21"/><path class="cls-1" d="M56.61,17.31c-.47-.19-1.07-.4-1.63-.6a6.32,6.32,0,0,1-1.27-.59,2.33,2.33,0,0,1-1-1.32,2,2,0,0,1,2-2.45c.91,0,2.07.61,2.45,2.53l2.47-1.39a5.19,5.19,0,0,0-5-4.12h-.12a4.92,4.92,0,0,0-4.86,4.89,4.5,4.5,0,0,0,2.08,4c2.28,1.54,5.36,1.44,5.41,4a2.39,2.39,0,0,1-.84,1.91,2.68,2.68,0,0,1-1.9.74h-.07a3,3,0,0,1-2.09-.86,4,4,0,0,1-1-2l-2.44,1.41a5.77,5.77,0,0,0,5.52,4.37h.14c1.63,0,5.56-1.24,5.56-5.57a5,5,0,0,0-3.5-5"/><path class="cls-1" d="M70.26,17.31c-.47-.19-1.07-.4-1.62-.6a5.94,5.94,0,0,1-1.28-.59,2.33,2.33,0,0,1-1-1.32,2,2,0,0,1,2-2.45c.91,0,2.07.61,2.46,2.53l2.46-1.39a5.2,5.2,0,0,0-5-4.12h-.12a4.92,4.92,0,0,0-4.86,4.89,4.5,4.5,0,0,0,2.08,4c2.28,1.54,5.37,1.44,5.41,4A2.39,2.39,0,0,1,70,24.17a2.7,2.7,0,0,1-1.9.74h-.06a3,3,0,0,1-2.1-.86,4,4,0,0,1-1-2l-2.44,1.41a5.77,5.77,0,0,0,5.52,4.37h.14c1.63,0,5.56-1.24,5.56-5.57a5,5,0,0,0-3.5-5"/><rect class="cls-1" x="21.51" width="3.08" height="27.83"/><path class="cls-1" d="M9.24,9.44a9.18,9.18,0,1,0,4,17.44l.34-.17V23l-.95.64a6.1,6.1,0,1,1,2.71-5.07V29.08c0,3.51-2.35,6.37-5.87,6.37a6.39,6.39,0,0,1-6.38-6.37v-.62H0v.62a9.47,9.47,0,0,0,9.46,9.46c5.22,0,9-4.24,9-9.46V18.61A9.18,9.18,0,0,0,9.24,9.44"/></g></g></svg>