<svg xmlns="http://www.w3.org/2000/svg" viewBox="0 0 92.1 70.79"><defs><style>.cls-1{fill:#002b53;}.cls-2,.cls-3{fill:#fff;}.cls-3{fill-rule:evenodd;}</style></defs><title>grohe</title><g id="Layer_2" data-name="Layer 2"><g id="Ebene_1" data-name="Ebene 1"><rect class="cls-1" width="92.1" height="70.79"/><path class="cls-2" d="M79.57,39.06a14.52,14.52,0,0,1-2.43.26,20.24,20.24,0,0,1-6-1.21L67.79,37a22.69,22.69,0,0,0-6-1.11A22.77,22.77,0,0,0,55.9,37l-3.4,1.15a20.12,20.12,0,0,1-5.94,1.21,20.12,20.12,0,0,1-6-1.21L37.2,37a22.62,22.62,0,0,0-5.94-1.11A22.62,22.62,0,0,0,25.32,37l-3.4,1.15a20.24,20.24,0,0,1-6,1.21,14.52,14.52,0,0,1-2.43-.26l.14.24a7.57,7.57,0,0,0,.94,1.29,8.23,8.23,0,0,0,1.32.1,22.11,22.11,0,0,0,6-1.14l3.4-1.15a20,20,0,0,1,5.94-1.21,19.38,19.38,0,0,1,5.1.93l4.25,1.43a21.74,21.74,0,0,0,6,1.14,22.13,22.13,0,0,0,5.94-1.14l4.25-1.43a19.38,19.38,0,0,1,5.1-.93,20,20,0,0,1,5.94,1.21l3.4,1.15a22.11,22.11,0,0,0,6,1.14,8.23,8.23,0,0,0,1.32-.1,7.6,7.6,0,0,0,.94-1.29l.14-.24Z"/><path class="cls-2" d="M74.5,43.85l-5-1.52c-2.23-.69-3.09-.93-4.28-1.19a16.85,16.85,0,0,0-3.42-.44,23.1,23.1,0,0,0-6,1.11L52.5,43a20,20,0,0,1-6,1.21,20,20,0,0,1-6-1.21l-3.4-1.16a23.46,23.46,0,0,0-6-1.11,17.68,17.68,0,0,0-3.42.44c-1.17.26-2.1.52-4.27,1.19l-5,1.52a8.58,8.58,0,0,0,1.26,1L22.59,44l2.27-.67.91-.27a19.77,19.77,0,0,1,5.46-1,19.77,19.77,0,0,1,5.09.94l4.25,1.43a22,22,0,0,0,6,1.13,21.86,21.86,0,0,0,6-1.13L56.75,43a19.69,19.69,0,0,1,5.1-.94,19.77,19.77,0,0,1,5.45,1l.91.27,2.27.67,2.75.84a9.23,9.23,0,0,0,1.27-1Z"/><path class="cls-2" d="M69,47.07,68.64,47l-.85-.29a21.79,21.79,0,0,0-6-1.11,21,21,0,0,0-5.09.86l-.85.25-.85.29-.85.29-.85.29-.85.29A20,20,0,0,1,46.56,49a18.7,18.7,0,0,1-5.1-.94l-.85-.27-.85-.29-.85-.29L38.06,47l-.86-.29a21.8,21.8,0,0,0-5.94-1.11,21.12,21.12,0,0,0-5.1.86l-.84.25-1.17.4,1.71.89.39-.12a17.81,17.81,0,0,1,5-.94,17.4,17.4,0,0,1,4.24.69l.85.25.84.27.86.29.85.29.85.29.85.28a20.7,20.7,0,0,0,6,1.14,19.84,19.84,0,0,0,5.09-.88l.85-.26.85-.28.85-.29.85-.29.85-.29.85-.27a18.53,18.53,0,0,1,5.1-.94,18.12,18.12,0,0,1,5,.94l.39.12,1.7-.89Z"/><path class="cls-2" d="M20.39,27V30.7a6.45,6.45,0,0,1-2.54.54,3.76,3.76,0,0,1-3.72-4.08,4.24,4.24,0,0,1,4.47-4.39,10,10,0,0,1,4.69,1.32V21.62a11.73,11.73,0,0,0-5-1.18c-4.6,0-7.54,2.6-7.54,6.68,0,3.88,2.85,6.46,7.14,6.46A12.49,12.49,0,0,0,23.69,32V27Z"/><path class="cls-2" d="M26.42,20.8V33.22h3.24V23.14h1.39c1.84,0,2.66.59,2.66,1.89s-.92,2.09-2.53,2.09l-.72,0H30.1l4.5,6.12h4.14l-4.12-5A3.7,3.7,0,0,0,37,24.69c0-2.63-1.71-3.89-5.26-3.89Z"/><polygon class="cls-2" points="56.57 20.8 56.57 33.22 59.81 33.22 59.81 27.91 65.53 27.91 65.53 33.22 68.78 33.22 68.78 20.8 65.53 20.8 65.53 25.39 59.81 25.39 59.81 20.8 56.57 20.8 56.57 20.8"/><polygon class="cls-2" points="72.23 20.8 72.23 33.22 81.55 33.22 81.55 30.78 75.47 30.78 75.47 27.83 79.94 27.83 79.94 25.49 75.47 25.49 75.47 23.23 80.84 23.23 80.84 20.8 72.23 20.8 72.23 20.8"/><path class="cls-3" d="M39,27c0,3.86,3.24,6.69,7.64,6.69s7.64-2.83,7.64-6.69S51,20.32,46.62,20.32,39,23.14,39,27Zm3.42,0a4.23,4.23,0,1,1,8.45,0,4.23,4.23,0,1,1-8.45,0Z"/></g></g></svg>