<svg xmlns="http://www.w3.org/2000/svg" xmlns:xlink="http://www.w3.org/1999/xlink" viewBox="0 0 817.46 312.3"><defs><style>.cls-1,.cls-5{fill:none;}.cls-2{fill:#004c99;}.cls-3{clip-path:url(#clip-path);}.cls-4{clip-path:url(#clip-path-8);}.cls-5{stroke:#004c99;stroke-width:0.05px;}</style><clipPath id="clip-path" transform="translate(-22.96 -48.99)"><rect class="cls-1" width="879.61" height="377.21"/></clipPath><clipPath id="clip-path-8" transform="translate(-22.96 -48.99)"><rect class="cls-1" x="22.96" y="48.99" width="817.45" height="312.3"/></clipPath></defs><title>hansa</title><g id="Layer_2" data-name="Layer 2"><g id="Layer_1-2" data-name="Layer 1"><path class="cls-2" d="M163.43,189.4H28.34v-135H163.43ZM166.12,49H23V194.77H168.81V49Z" transform="translate(-22.96 -48.99)"/><g class="cls-3"><path class="cls-2" d="M158,139.78a49.62,49.62,0,0,0-43.86,44.27h-12A61.63,61.63,0,0,1,158,127.73Z" transform="translate(-22.96 -48.99)"/></g><g class="cls-3"><path class="cls-2" d="M34,139.78a49.61,49.61,0,0,1,43.84,44.27h12a61.63,61.63,0,0,0-55.9-56.32Z" transform="translate(-22.96 -48.99)"/></g><g class="cls-3"><path class="cls-2" d="M158.07,104a49.63,49.63,0,0,1-43.84-44.29h-12a61.59,61.59,0,0,0,55.91,56.32Z" transform="translate(-22.96 -48.99)"/></g><g class="cls-3"><path class="cls-2" d="M34,104A49.64,49.64,0,0,0,77.82,59.75h12a61.6,61.6,0,0,1-55.9,56.32Z" transform="translate(-22.96 -48.99)"/></g><g class="cls-3"><path class="cls-2" d="M583.31,49.28l0,146-30.85-.06C537,167,519.14,137.49,503.89,109.3v85.87H473V49.28h30.91c5.4,10.24,48.52,88.62,48.52,88.42V49.28h30.9" transform="translate(-22.96 -48.99)"/></g><g class="cls-3"><polygon class="cls-2" points="224.65 74.92 264.66 74.92 264.66 0.18 295.32 0.15 295.32 146.1 264.66 146.14 264.6 106.67 224.65 106.67 224.65 146.14 194.06 146.1 194.06 0.15 224.65 0.18 224.65 74.92"/></g><g class="cls-3"><path class="cls-2" d="M713.88,182.35c-.26,6.86-6.89,12.58-13.46,12.58H609.75v-31.7h72.64V137.89l-60.1,0c-6.59-.09-12.54-6.74-12.54-13.62V62.08a13.87,13.87,0,0,1,13.3-12.88H714V80.92l-72.63,0v25.13l59.37,0c6.47.06,13.12,6.07,13.17,12.88v63.36" transform="translate(-22.96 -48.99)"/></g><g class="cls-4"><path class="cls-2" d="M377,124.09h39.31V80.92H377Zm70.05-61.6c.07.77,0,132.6,0,132.6H416.31V155.66H377v39.43h-30.8V62.22l.08-.94A13.6,13.6,0,0,1,360,49.2l73.71,0c6.67,0,12.91,6.31,13.41,13.27" transform="translate(-22.96 -48.99)"/></g><g class="cls-4"><path class="cls-2" d="M770.34,124.67h39.31V81.79H770.34ZM840.4,62.49c.05.77,0,132.6,0,132.6H809.61l0-39.43H770.32l0,39.43h-30.8l0-132.87.1-.94A13.57,13.57,0,0,1,753.25,49.2l73.72,0c6.68,0,12.92,6.31,13.43,13.27" transform="translate(-22.96 -48.99)"/></g><g class="cls-4"><path class="cls-2" d="M770.34,124.67h39.31V81.79H770.34ZM840.4,62.49c.05.77,0,132.6,0,132.6H809.61l0-39.43H770.32l0,39.43h-30.8l0-132.87.1-.94A13.57,13.57,0,0,1,753.25,49.2l73.72,0c6.68,0,12.92,6.31,13.43,13.27" transform="translate(-22.96 -48.99)"/></g><g class="cls-3"><path class="cls-2" d="M222.5,320.72c0,9,4.69,17.43,14.71,17.43a28.37,28.37,0,0,0,12.47-3.25l.54,5.5a35.51,35.51,0,0,1-13.1,2.35c-14.36,0-20-10.56-20-23.56,0-11,6.5-23.21,18.33-23.21,12.19,0,17.07,10.56,17.07,22v2.71Zm13.09-20.13c-8.58,0-13.09,9.39-13.09,15.8h24.74c0-7.32-3.07-15.8-11.65-15.8" transform="translate(-22.96 -48.99)"/></g><g class="cls-3"><path class="cls-5" d="M222.5,320.72c0,9,4.69,17.43,14.71,17.43a28.37,28.37,0,0,0,12.47-3.25l.54,5.5a35.51,35.51,0,0,1-13.1,2.35c-14.36,0-20-10.56-20-23.56,0-11,6.5-23.21,18.33-23.21,12.19,0,17.07,10.56,17.07,22v2.71Zm13.09-20.13c-8.58,0-13.09,9.39-13.09,15.8h24.74C247.24,309.07,244.17,300.59,235.59,300.59Z" transform="translate(-22.96 -48.99)"/></g><g class="cls-3"><polygon class="cls-2" points="264.81 292.77 252.98 272.9 240.43 292.77 234.65 292.77 250.27 269.3 236.18 247.89 242.23 247.89 253.16 265.5 263.9 247.89 269.6 247.89 255.78 269.3 270.95 292.77 264.81 292.77"/></g><g class="cls-3"><polygon class="cls-2" points="264.81 292.77 252.98 272.9 240.43 292.77 234.65 292.77 250.27 269.3 236.18 247.89 242.23 247.89 253.16 265.5 263.9 247.89 269.6 247.89 255.78 269.3 270.95 292.77 264.81 292.77"/></g><g class="cls-3"><polygon class="cls-5" points="264.81 292.77 252.98 272.9 240.43 292.77 234.65 292.77 250.27 269.3 236.18 247.89 242.23 247.89 253.16 265.5 263.9 247.89 269.6 247.89 255.78 269.3 270.95 292.77 264.81 292.77"/></g><g class="cls-3"><path class="cls-2" d="M320.64,342.75c-5.87,0-11.56-3.06-13.82-8.3v26.82h-4.88V312.5c0-5.14-.18-10.38-.45-15.61h4.61l.36,7.94c2.35-5.24,8.4-8.85,14.18-8.85,13.73,0,18.15,11.29,18.15,23.21,0,11.46-4.88,23.56-18.15,23.56m-.45-42.07c-9.85,0-13.54,10.2-13.54,18.51s3.51,18.87,13.54,18.87c10.56,0,13.27-10.2,13.27-18.87,0-8.85-2.53-18.51-13.27-18.51" transform="translate(-22.96 -48.99)"/></g><g class="cls-4"><path class="cls-5" d="M320.64,342.75c-5.87,0-11.56-3.06-13.82-8.3v26.82h-4.88V312.5c0-5.14-.18-10.38-.45-15.61h4.61l.36,7.94c2.35-5.24,8.4-8.85,14.18-8.85,13.73,0,18.15,11.29,18.15,23.21C338.79,330.65,333.91,342.75,320.64,342.75Zm-.45-42.07c-9.85,0-13.54,10.2-13.54,18.51s3.51,18.87,13.54,18.87c10.56,0,13.27-10.2,13.27-18.87C333.46,310.34,330.93,300.68,320.19,300.68Z" transform="translate(-22.96 -48.99)"/></g><g class="cls-3"><path class="cls-2" d="M352.24,320.72c0,9,4.69,17.43,14.71,17.43a28.32,28.32,0,0,0,12.46-3.25l.55,5.5a35.51,35.51,0,0,1-13.1,2.35c-14.36,0-19.95-10.56-19.95-23.56,0-11,6.5-23.21,18.33-23.21,12.19,0,17.07,10.56,17.07,22v2.71Zm13.09-20.13c-8.58,0-13.09,9.39-13.09,15.8H377c0-7.32-3.07-15.8-11.65-15.8" transform="translate(-22.96 -48.99)"/></g><g class="cls-3"><path class="cls-5" d="M352.24,320.72c0,9,4.69,17.43,14.71,17.43a28.32,28.32,0,0,0,12.46-3.25l.55,5.5a35.51,35.51,0,0,1-13.1,2.35c-14.36,0-19.95-10.56-19.95-23.56,0-11,6.5-23.21,18.33-23.21,12.19,0,17.07,10.56,17.07,22v2.71Zm13.09-20.13c-8.58,0-13.09,9.39-13.09,15.8H377C377,309.07,373.91,300.59,365.33,300.59Z" transform="translate(-22.96 -48.99)"/></g><g class="cls-3"><path class="cls-2" d="M412.46,301.67a12,12,0,0,0-3.52-.54c-9.4,0-11.12,10.65-11.12,17.7v22.93H393V307.54a102.41,102.41,0,0,0-.45-10.65h4.42l.36,8.39c1.72-4.51,6.24-9.3,11.66-9.3a13.85,13.85,0,0,1,3.88.37Z" transform="translate(-22.96 -48.99)"/></g><g class="cls-3"><path class="cls-5" d="M412.46,301.67a12,12,0,0,0-3.52-.54c-9.4,0-11.12,10.65-11.12,17.7v22.93H393V307.54a102.41,102.41,0,0,0-.45-10.65h4.42l.36,8.39c1.72-4.51,6.24-9.3,11.66-9.3a13.85,13.85,0,0,1,3.88.37Z" transform="translate(-22.96 -48.99)"/></g><g class="cls-3"><path class="cls-2" d="M421.13,279.18H426v7.23h-4.87Zm0,17.71H426v44.88h-4.87Z" transform="translate(-22.96 -48.99)"/><path class="cls-5" d="M421.13,279.18H426v7.23h-4.87Zm0,17.71H426v44.88h-4.87Z" transform="translate(-22.96 -48.99)"/></g><g class="cls-3"><path class="cls-2" d="M442.25,320.72c0,9,4.69,17.43,14.71,17.43a28.37,28.37,0,0,0,12.47-3.25l.54,5.5a35.47,35.47,0,0,1-13.1,2.35c-14.35,0-19.95-10.56-19.95-23.56,0-11,6.5-23.21,18.33-23.21,12.19,0,17.07,10.56,17.07,22v2.71Zm13.09-20.13c-8.57,0-13.09,9.39-13.09,15.8H467c0-7.32-3.07-15.8-11.65-15.8" transform="translate(-22.96 -48.99)"/></g><g class="cls-3"><path class="cls-5" d="M442.25,320.72c0,9,4.69,17.43,14.71,17.43a28.37,28.37,0,0,0,12.47-3.25l.54,5.5a35.47,35.47,0,0,1-13.1,2.35c-14.35,0-19.95-10.56-19.95-23.56,0-11,6.5-23.21,18.33-23.21,12.19,0,17.07,10.56,17.07,22v2.71Zm13.09-20.13c-8.57,0-13.09,9.39-13.09,15.8H467C467,309.07,463.92,300.59,455.34,300.59Z" transform="translate(-22.96 -48.99)"/></g><g class="cls-3"><path class="cls-2" d="M511.86,341.76V315c0-7.59-1.62-14.36-10.75-14.36-10,0-13.27,8.48-13.27,17.07v24H483V307.54a105.68,105.68,0,0,0-.44-10.66h4.42l.27,7.86c3.26-5.69,7.86-8.76,14.54-8.76,11.65,0,15,7.95,15,18.33v27.45Z" transform="translate(-22.96 -48.99)"/></g><g class="cls-3"><path class="cls-5" d="M511.86,341.76V315c0-7.59-1.62-14.36-10.75-14.36-10,0-13.27,8.48-13.27,17.07v24H483V307.54a105.68,105.68,0,0,0-.44-10.66h4.42l.27,7.86c3.26-5.69,7.86-8.76,14.54-8.76,11.65,0,15,7.95,15,18.33v27.45Z" transform="translate(-22.96 -48.99)"/></g><g class="cls-3"><path class="cls-2" d="M548.52,342.75c-13.55,0-20.86-10.92-20.86-23.56,0-13,7.94-23.21,21.49-23.21a31.86,31.86,0,0,1,10.47,1.9l-.45,5.06a22.77,22.77,0,0,0-9.48-2.26c-11.2,0-16.7,8-16.7,18.51,0,9.75,5.59,18.87,16.25,18.87a28.93,28.93,0,0,0,9.93-2l.45,5a33.27,33.27,0,0,1-11.1,1.71" transform="translate(-22.96 -48.99)"/></g><g class="cls-3"><path class="cls-5" d="M548.52,342.75c-13.55,0-20.86-10.92-20.86-23.56,0-13,7.94-23.21,21.49-23.21a31.86,31.86,0,0,1,10.47,1.9l-.45,5.06a22.77,22.77,0,0,0-9.48-2.26c-11.2,0-16.7,8-16.7,18.51,0,9.75,5.59,18.87,16.25,18.87a28.93,28.93,0,0,0,9.93-2l.45,5A33.27,33.27,0,0,1,548.52,342.75Z" transform="translate(-22.96 -48.99)"/></g><g class="cls-3"><path class="cls-2" d="M572.17,320.72c0,9,4.69,17.43,14.72,17.43a28.39,28.39,0,0,0,12.46-3.25l.54,5.5a35.45,35.45,0,0,1-13.09,2.35c-14.36,0-20-10.56-20-23.56,0-11,6.5-23.21,18.33-23.21,12.19,0,17.07,10.56,17.07,22v2.71Zm13.09-20.13c-8.58,0-13.09,9.39-13.09,15.8h24.74c0-7.32-3.07-15.8-11.65-15.8" transform="translate(-22.96 -48.99)"/></g><g class="cls-3"><path class="cls-5" d="M572.17,320.72c0,9,4.69,17.43,14.72,17.43a28.39,28.39,0,0,0,12.46-3.25l.54,5.5a35.45,35.45,0,0,1-13.09,2.35c-14.36,0-20-10.56-20-23.56,0-11,6.5-23.21,18.33-23.21,12.19,0,17.07,10.56,17.07,22v2.71Zm13.09-20.13c-8.58,0-13.09,9.39-13.09,15.8h24.74C596.91,309.07,593.84,300.59,585.26,300.59Z" transform="translate(-22.96 -48.99)"/></g><g class="cls-3"><polygon class="cls-2" points="659.09 292.77 653.22 292.77 641.03 253.22 628.75 292.77 622.88 292.77 608.25 247.89 613.76 247.89 625.95 287.63 638.32 247.89 644.19 247.89 656.47 287.63 668.56 247.89 673.45 247.89 659.09 292.77"/></g><g class="cls-3"><polygon class="cls-5" points="659.09 292.77 653.22 292.77 641.03 253.22 628.75 292.77 622.88 292.77 608.25 247.89 613.76 247.89 625.95 287.63 638.32 247.89 644.19 247.89 656.47 287.63 668.56 247.89 673.45 247.89 659.09 292.77"/></g><g class="cls-3"><path class="cls-2" d="M729.63,341.76l-.27-7.32c-2.35,5.33-8.31,8.31-13.91,8.31-8,0-14.53-4.06-14.53-12.63,0-11.48,10.83-15.54,24.92-15.54h3.07v-2.35c0-7-2.35-11.64-10-11.64a22,22,0,0,0-12.73,3.51l-.54-5.05A34.82,34.82,0,0,1,718.7,296c10.93,0,15.09,6,15.09,16.61v19.87a64,64,0,0,0,.63,9.3Zm-.72-22.84h-1.18c-8.58,0-21.49.63-21.49,11.1,0,5.51,4.43,8.13,9.57,8.13,10.12,0,13.1-7.59,13.1-16.43Z" transform="translate(-22.96 -48.99)"/></g><g class="cls-3"><path class="cls-5" d="M729.63,341.76l-.27-7.32c-2.35,5.33-8.31,8.31-13.91,8.31-8,0-14.53-4.06-14.53-12.63,0-11.48,10.83-15.54,24.92-15.54h3.07v-2.35c0-7-2.35-11.64-10-11.64a22,22,0,0,0-12.73,3.51l-.54-5.05A34.82,34.82,0,0,1,718.7,296c10.93,0,15.09,6,15.09,16.61v19.87a64,64,0,0,0,.63,9.3Zm-.72-22.84h-1.18c-8.58,0-21.49.63-21.49,11.1,0,5.51,4.43,8.13,9.57,8.13,10.12,0,13.1-7.59,13.1-16.43Z" transform="translate(-22.96 -48.99)"/></g><g class="cls-3"><path class="cls-2" d="M760.78,342.75c-8.94,0-9.76-6.77-9.76-14.62V301.21h-8.58v-4.32H751V286.5l4.88-1.72v12.11h10.21v4.32H755.9v29.18c0,4.05,1.08,7.67,5.87,7.67a12.36,12.36,0,0,0,5.06-1.27l.35,4.7a17.61,17.61,0,0,1-6.4,1.26" transform="translate(-22.96 -48.99)"/></g><g class="cls-3"><path class="cls-5" d="M760.78,342.75c-8.94,0-9.76-6.77-9.76-14.62V301.21h-8.58v-4.32H751V286.5l4.88-1.72v12.11h10.21v4.32H755.9v29.18c0,4.05,1.08,7.67,5.87,7.67a12.36,12.36,0,0,0,5.06-1.27l.35,4.7A17.61,17.61,0,0,1,760.78,342.75Z" transform="translate(-22.96 -48.99)"/></g><g class="cls-3"><path class="cls-2" d="M778.56,320.72c0,9,4.69,17.43,14.72,17.43a28.36,28.36,0,0,0,12.46-3.25l.54,5.5a35.45,35.45,0,0,1-13.09,2.35c-14.36,0-20-10.56-20-23.56,0-11,6.5-23.21,18.32-23.21,12.19,0,17.07,10.56,17.07,22v2.71Zm13.09-20.13c-8.57,0-13.09,9.39-13.09,15.8H803.3c0-7.32-3.07-15.8-11.65-15.8" transform="translate(-22.96 -48.99)"/></g><g class="cls-3"><path class="cls-5" d="M778.56,320.72c0,9,4.69,17.43,14.72,17.43a28.36,28.36,0,0,0,12.46-3.25l.54,5.5a35.45,35.45,0,0,1-13.09,2.35c-14.36,0-20-10.56-20-23.56,0-11,6.5-23.21,18.32-23.21,12.19,0,17.07,10.56,17.07,22v2.71Zm13.09-20.13c-8.57,0-13.09,9.39-13.09,15.8H803.3C803.3,309.07,800.23,300.59,791.65,300.59Z" transform="translate(-22.96 -48.99)"/></g><g class="cls-3"><path class="cls-2" d="M838.78,301.67a11.93,11.93,0,0,0-3.51-.54c-9.4,0-11.11,10.65-11.11,17.7v22.93h-4.88V307.54a105.25,105.25,0,0,0-.45-10.65h4.42l.37,8.39c1.71-4.51,6.23-9.3,11.65-9.3a13.89,13.89,0,0,1,3.88.37Z" transform="translate(-22.96 -48.99)"/></g><g class="cls-3"><path class="cls-5" d="M838.78,301.67a11.93,11.93,0,0,0-3.51-.54c-9.4,0-11.11,10.65-11.11,17.7v22.93h-4.88V307.54a105.25,105.25,0,0,0-.45-10.65h4.42l.37,8.39c1.71-4.51,6.23-9.3,11.65-9.3a13.89,13.89,0,0,1,3.88.37Z" transform="translate(-22.96 -48.99)"/></g></g></g></svg>