<svg xmlns="http://www.w3.org/2000/svg" xmlns:xlink="http://www.w3.org/1999/xlink" viewBox="0 0 96.05 20.01"><defs><style>.cls-1{fill:none;}.cls-2{clip-path:url(#clip-path);}.cls-3{fill:#231f20;}</style><clipPath id="clip-path" transform="translate(0 0)"><rect class="cls-1" width="96.05" height="20.01"/></clipPath></defs><title>hoesch</title><g id="Layer_2" data-name="Layer 2"><g id="Layer_1-2" data-name="Layer 1"><g class="cls-2"><path class="cls-3" d="M33.86,19.19H47.59V16.36H37.26V11H46.2V8.08H37.26V3.65H47.42V.84H33.86v6a9.12,9.12,0,0,0-17.55-.12,11.78,11.78,0,0,0,.41,7.64,9.14,9.14,0,0,0,11.82,5,9,9,0,0,0,5.32-5.7Zm-7-2.08a5,5,0,0,1-6.43-2.87,11.45,11.45,0,0,1,0-8.19,5,5,0,0,1,2.63-2.77,5,5,0,0,1,6.6,2.5,10.63,10.63,0,0,1,0,8.73,4.94,4.94,0,0,1-2.8,2.6m54.05,2.08V.84h3.53V8.08h8.18V.84h3.4V19.18h-3.4V11H84.47v8.24Zm-17.44-5a9.14,9.14,0,0,0,11.82,5,8.84,8.84,0,0,0,.83-.38,7,7,0,0,0,3.72-5.17H76.65A4.94,4.94,0,0,1,73.5,16.8a5,5,0,0,1-6.33-3.1,11.29,11.29,0,0,1,.07-7.46,4.93,4.93,0,0,1,3.1-3,5,5,0,0,1,6.33,3.08h3.25a7,7,0,0,0-3.27-4.95A9.15,9.15,0,0,0,64.12,4.25a8.93,8.93,0,0,0-1,2.32,11.9,11.9,0,0,0-.29,5.17,4.91,4.91,0,0,0-2.23-2A10.27,10.27,0,0,0,58.48,9a45.55,45.55,0,0,1-5.13-1.48,2.21,2.21,0,0,1-.16-4.12,5.24,5.24,0,0,1,5.33.66,2.48,2.48,0,0,1,.93,1.8h3.21A6.19,6.19,0,0,0,60.82,2,5.64,5.64,0,0,0,57.91.47,14.62,14.62,0,0,0,53.15.38,6.24,6.24,0,0,0,49.85,2a5.06,5.06,0,0,0,2.06,8.6c2.06.59,4.09,1.25,6.11,2a2.21,2.21,0,0,1,1.35,2.78,2.81,2.81,0,0,1-1.82,1.78A5.67,5.67,0,0,1,52.14,16a2.56,2.56,0,0,1-.92-1.79H47.88a4.64,4.64,0,0,0,2.06,4,10,10,0,0,0,3.72,1.53,10.41,10.41,0,0,0,7.58-1.47,2.77,2.77,0,0,0,.75-.7,6.53,6.53,0,0,0,1.28-4c.07.19.15.42.23.61M3.65,8.08V.84H0V19.19H3.65V11h7.93v8.24h3.65V.84H11.58V8.08Z" transform="translate(0 0)"/></g></g></g></svg>