<svg xmlns="http://www.w3.org/2000/svg" viewBox="0 0 75.34 75.34"><defs><style>.cls-1{fill:#fff;}.cls-2{fill:#1b2f27;}</style></defs><title>ibb</title><g id="Layer_2" data-name="Layer 2"><g id="Layer_1-2" data-name="Layer 1"><rect class="cls-1" x="7.19" y="7.39" width="66.15" height="62.66"/><path class="cls-2" d="M32.33,39H26.55v6.63h5.68c2.1,0,3.93-.68,3.93-3.18S34.6,39,32.33,39"/><path class="cls-2" d="M59,32.49c0-2.3-1.76-2.77-3.65-2.77h-5v5.65h5.37c1.86,0,3.25-.85,3.25-2.88"/><path class="cls-2" d="M35.18,32.49c0-2.3-1.76-2.77-3.66-2.77h-5v5.65h5.38c1.86,0,3.25-.85,3.25-2.88"/><path class="cls-2" d="M56.76,49.74H45.05V25.59H56.42c4.6,0,7.71,1.49,7.71,6a5.29,5.29,0,0,1-3.28,5,5.9,5.9,0,0,1,4.43,6.12c0,4.91-4.16,7-8.52,7m-23.82,0H21.24V25.59H32.61c4.6,0,7.71,1.49,7.71,6a5.29,5.29,0,0,1-3.28,5,5.9,5.9,0,0,1,4.43,6.12c0,4.91-4.16,7-8.53,7m-16.36,0H11.26V25.59h5.32ZM68,0H7.38A7.39,7.39,0,0,0,0,7.39V68a7.39,7.39,0,0,0,7.39,7.39H68a7.39,7.39,0,0,0,7.24-5.9A7.31,7.31,0,0,0,75.34,68V7.39A7.39,7.39,0,0,0,68,0"/><path class="cls-2" d="M56.15,39H50.37v6.63h5.68c2.1,0,3.92-.68,3.92-3.18S58.41,39,56.15,39"/></g></g></svg>