<svg xmlns="http://www.w3.org/2000/svg" viewBox="0 0 70.94 70.94"><defs><style>.cls-1{fill:#830628;}.cls-2,.cls-3{fill:#fff;}.cls-3{fill-rule:evenodd;}</style></defs><title>knief</title><g id="Layer_2" data-name="Layer 2"><g id="Layer_1-2" data-name="Layer 1"><rect class="cls-1" width="70.94" height="70.94"/><rect class="cls-2" x="18.13" y="8.85" width="0.82" height="0.82"/><rect class="cls-2" x="19.3" y="8.85" width="0.82" height="0.82"/><rect class="cls-2" x="20.47" y="8.85" width="0.82" height="0.82"/><rect class="cls-2" x="21.65" y="8.85" width="0.82" height="0.82"/><rect class="cls-2" x="22.82" y="8.85" width="0.82" height="0.82"/><rect class="cls-2" x="23.99" y="8.85" width="0.82" height="0.82"/><rect class="cls-2" x="25.16" y="8.85" width="0.82" height="0.82"/><rect class="cls-2" x="26.34" y="8.85" width="0.82" height="0.82"/><rect class="cls-2" x="27.51" y="8.85" width="0.82" height="0.82"/><rect class="cls-2" x="28.68" y="8.85" width="0.82" height="0.82"/><rect class="cls-2" x="34.55" y="8.85" width="0.82" height="0.82"/><rect class="cls-2" x="35.72" y="8.85" width="0.82" height="0.82"/><rect class="cls-2" x="13.44" y="10.02" width="0.82" height="0.82"/><rect class="cls-2" x="15.78" y="10.02" width="0.82" height="0.82"/><rect class="cls-2" x="16.95" y="10.02" width="0.82" height="0.82"/><rect class="cls-2" x="18.13" y="10.02" width="0.82" height="0.82"/><rect class="cls-2" x="19.3" y="10.02" width="0.82" height="0.82"/><rect class="cls-2" x="21.65" y="10.02" width="0.82" height="0.82"/><rect class="cls-2" x="22.82" y="10.02" width="0.82" height="0.82"/><rect class="cls-2" x="23.99" y="10.02" width="0.82" height="0.82"/><rect class="cls-2" x="25.16" y="10.02" width="0.82" height="0.82"/><rect class="cls-2" x="26.34" y="10.02" width="0.82" height="0.82"/><rect class="cls-2" x="27.51" y="10.02" width="0.82" height="0.82"/><rect class="cls-2" x="28.68" y="10.02" width="0.82" height="0.82"/><rect class="cls-2" x="33.37" y="10.02" width="0.82" height="0.82"/><rect class="cls-2" x="34.55" y="10.02" width="0.82" height="0.82"/><rect class="cls-2" x="35.72" y="10.02" width="0.82" height="0.82"/><rect class="cls-2" x="47.45" y="10.02" width="0.82" height="0.82"/><rect class="cls-2" x="12.26" y="11.19" width="0.82" height="0.82"/><rect class="cls-2" x="16.95" y="11.19" width="0.82" height="0.82"/><rect class="cls-2" x="18.13" y="11.19" width="0.82" height="0.82"/><rect class="cls-2" x="23.99" y="11.19" width="0.82" height="0.82"/><rect class="cls-2" x="25.16" y="11.19" width="0.82" height="0.82"/><rect class="cls-2" x="26.34" y="11.19" width="0.82" height="0.82"/><rect class="cls-2" x="27.51" y="11.19" width="0.82" height="0.82"/><rect class="cls-2" x="28.68" y="11.19" width="0.82" height="0.82"/><rect class="cls-2" x="41.58" y="11.19" width="0.82" height="0.82"/><rect class="cls-2" x="46.27" y="11.19" width="0.82" height="0.82"/><rect class="cls-2" x="47.45" y="11.19" width="0.82" height="0.82"/><rect class="cls-2" x="48.62" y="11.19" width="0.82" height="0.82"/><rect class="cls-2" x="49.79" y="11.19" width="0.82" height="0.82"/><rect class="cls-2" x="54.48" y="11.19" width="0.82" height="0.82"/><rect class="cls-2" x="55.66" y="11.19" width="0.82" height="0.82"/><rect class="cls-2" x="11.09" y="12.37" width="0.82" height="0.82"/><rect class="cls-2" x="12.26" y="12.37" width="0.82" height="0.82"/><rect class="cls-2" x="13.44" y="12.37" width="0.82" height="0.82"/><rect class="cls-2" x="14.61" y="12.37" width="0.82" height="0.82"/><rect class="cls-2" x="15.78" y="12.37" width="0.82" height="0.82"/><rect class="cls-2" x="16.95" y="12.37" width="0.82" height="0.82"/><rect class="cls-2" x="18.13" y="12.37" width="0.82" height="0.82"/><rect class="cls-2" x="19.3" y="12.37" width="0.82" height="0.82"/><rect class="cls-2" x="21.65" y="12.37" width="0.82" height="0.82"/><rect class="cls-2" x="22.82" y="12.37" width="0.82" height="0.82"/><rect class="cls-2" x="23.99" y="12.37" width="0.82" height="0.82"/><rect class="cls-2" x="25.16" y="12.37" width="0.82" height="0.82"/><rect class="cls-2" x="26.34" y="12.37" width="0.82" height="0.82"/><rect class="cls-2" x="27.51" y="12.37" width="0.82" height="0.82"/><rect class="cls-2" x="39.24" y="12.37" width="0.82" height="0.82"/><rect class="cls-2" x="40.41" y="12.37" width="0.82" height="0.82"/><rect class="cls-2" x="43.93" y="12.37" width="0.82" height="0.82"/><rect class="cls-2" x="45.1" y="12.37" width="0.82" height="0.82"/><rect class="cls-2" x="46.27" y="12.37" width="0.82" height="0.82"/><rect class="cls-2" x="47.45" y="12.37" width="0.82" height="0.82"/><rect class="cls-2" x="48.62" y="12.37" width="0.82" height="0.82"/><rect class="cls-2" x="49.79" y="12.37" width="0.82" height="0.82"/><rect class="cls-2" x="50.97" y="12.37" width="0.82" height="0.82"/><rect class="cls-2" x="52.14" y="12.37" width="0.82" height="0.82"/><rect class="cls-2" x="54.48" y="12.37" width="0.82" height="0.82"/><rect class="cls-2" x="61.52" y="12.37" width="0.82" height="0.82"/><rect class="cls-2" x="5.23" y="13.54" width="0.82" height="0.82"/><rect class="cls-2" x="6.4" y="13.54" width="0.82" height="0.82"/><rect class="cls-2" x="7.57" y="13.54" width="0.82" height="0.82"/><rect class="cls-2" x="8.74" y="13.54" width="0.82" height="0.82"/><rect class="cls-2" x="9.92" y="13.54" width="0.82" height="0.82"/><rect class="cls-2" x="11.09" y="13.54" width="0.82" height="0.82"/><rect class="cls-2" x="12.26" y="13.54" width="0.82" height="0.82"/><rect class="cls-2" x="13.44" y="13.54" width="0.82" height="0.82"/><rect class="cls-2" x="14.61" y="13.54" width="0.82" height="0.82"/><rect class="cls-2" x="15.78" y="13.54" width="0.82" height="0.82"/><rect class="cls-2" x="16.95" y="13.54" width="0.82" height="0.82"/><rect class="cls-2" x="18.13" y="13.54" width="0.82" height="0.82"/><rect class="cls-2" x="19.3" y="13.54" width="0.82" height="0.82"/><rect class="cls-2" x="20.47" y="13.54" width="0.82" height="0.82"/><rect class="cls-2" x="23.99" y="13.54" width="0.82" height="0.82"/><rect class="cls-2" x="25.16" y="13.54" width="0.82" height="0.82"/><rect class="cls-2" x="26.34" y="13.54" width="0.82" height="0.82"/><rect class="cls-2" x="35.72" y="13.54" width="0.82" height="0.82"/><rect class="cls-2" x="36.89" y="13.54" width="0.82" height="0.82"/><rect class="cls-2" x="38.06" y="13.54" width="0.82" height="0.82"/><rect class="cls-2" x="41.58" y="13.54" width="0.82" height="0.82"/><rect class="cls-2" x="42.76" y="13.54" width="0.82" height="0.82"/><rect class="cls-2" x="43.93" y="13.54" width="0.82" height="0.82"/><rect class="cls-2" x="45.1" y="13.54" width="0.82" height="0.82"/><rect class="cls-2" x="46.27" y="13.54" width="0.82" height="0.82"/><rect class="cls-2" x="47.45" y="13.54" width="0.82" height="0.82"/><rect class="cls-2" x="48.62" y="13.54" width="0.82" height="0.82"/><rect class="cls-2" x="49.79" y="13.54" width="0.82" height="0.82"/><rect class="cls-2" x="50.97" y="13.54" width="0.82" height="0.82"/><rect class="cls-2" x="52.14" y="13.54" width="0.82" height="0.82"/><rect class="cls-2" x="53.31" y="13.54" width="0.82" height="0.82"/><rect class="cls-2" x="54.48" y="13.54" width="0.82" height="0.82"/><rect class="cls-2" x="55.66" y="13.54" width="0.82" height="0.82"/><rect class="cls-2" x="56.83" y="13.54" width="0.82" height="0.82"/><rect class="cls-2" x="58" y="13.54" width="0.82" height="0.82"/><rect class="cls-2" x="59.17" y="13.54" width="0.82" height="0.82"/><rect class="cls-2" x="60.35" y="13.54" width="0.82" height="0.82"/><rect class="cls-2" x="61.52" y="13.54" width="0.82" height="0.82"/><rect class="cls-2" x="62.69" y="13.54" width="0.82" height="0.82"/><rect class="cls-2" x="4.05" y="14.71" width="0.82" height="0.82"/><rect class="cls-2" x="5.23" y="14.71" width="0.82" height="0.82"/><rect class="cls-2" x="6.4" y="14.71" width="0.82" height="0.82"/><rect class="cls-2" x="7.57" y="14.71" width="0.82" height="0.82"/><rect class="cls-2" x="8.74" y="14.71" width="0.82" height="0.82"/><rect class="cls-2" x="9.92" y="14.71" width="0.82" height="0.82"/><rect class="cls-2" x="11.09" y="14.71" width="0.82" height="0.82"/><rect class="cls-2" x="12.26" y="14.71" width="0.82" height="0.82"/><rect class="cls-2" x="13.44" y="14.71" width="0.82" height="0.82"/><rect class="cls-2" x="14.61" y="14.71" width="0.82" height="0.82"/><rect class="cls-2" x="16.95" y="14.71" width="0.82" height="0.82"/><rect class="cls-2" x="18.13" y="14.71" width="0.82" height="0.82"/><rect class="cls-2" x="19.3" y="14.71" width="0.82" height="0.82"/><rect class="cls-2" x="21.65" y="14.71" width="0.82" height="0.82"/><rect class="cls-2" x="22.82" y="14.71" width="0.82" height="0.82"/><rect class="cls-2" x="23.99" y="14.71" width="0.82" height="0.82"/><rect class="cls-2" x="25.16" y="14.71" width="0.82" height="0.82"/><rect class="cls-2" x="27.51" y="14.71" width="0.82" height="0.82"/><rect class="cls-2" x="31.03" y="14.71" width="0.82" height="0.82"/><rect class="cls-2" x="34.55" y="14.71" width="0.82" height="0.82"/><rect class="cls-2" x="36.89" y="14.71" width="0.82" height="0.82"/><rect class="cls-2" x="38.06" y="14.71" width="0.82" height="0.82"/><rect class="cls-2" x="39.24" y="14.71" width="0.82" height="0.82"/><rect class="cls-2" x="40.41" y="14.71" width="0.82" height="0.82"/><rect class="cls-2" x="41.58" y="14.71" width="0.82" height="0.82"/><rect class="cls-2" x="42.76" y="14.71" width="0.82" height="0.82"/><rect class="cls-2" x="43.93" y="14.71" width="0.82" height="0.82"/><rect class="cls-2" x="45.1" y="14.71" width="0.82" height="0.82"/><rect class="cls-2" x="46.27" y="14.71" width="0.82" height="0.82"/><rect class="cls-2" x="47.45" y="14.71" width="0.82" height="0.82"/><rect class="cls-2" x="48.62" y="14.71" width="0.82" height="0.82"/><rect class="cls-2" x="49.79" y="14.71" width="0.82" height="0.82"/><rect class="cls-2" x="50.97" y="14.71" width="0.82" height="0.82"/><rect class="cls-2" x="52.14" y="14.71" width="0.82" height="0.82"/><rect class="cls-2" x="53.31" y="14.71" width="0.82" height="0.82"/><rect class="cls-2" x="54.48" y="14.71" width="0.82" height="0.82"/><rect class="cls-2" x="55.66" y="14.71" width="0.82" height="0.82"/><rect class="cls-2" x="56.83" y="14.71" width="0.82" height="0.82"/><rect class="cls-2" x="58" y="14.71" width="0.82" height="0.82"/><rect class="cls-2" x="59.17" y="14.71" width="0.82" height="0.82"/><rect class="cls-2" x="60.35" y="14.71" width="0.82" height="0.82"/><rect class="cls-2" x="61.52" y="14.71" width="0.82" height="0.82"/><rect class="cls-2" x="62.69" y="14.71" width="0.82" height="0.82"/><rect class="cls-2" x="4.05" y="15.88" width="0.82" height="0.82"/><rect class="cls-2" x="5.23" y="15.88" width="0.82" height="0.82"/><rect class="cls-2" x="8.74" y="15.88" width="0.82" height="0.82"/><rect class="cls-2" x="9.92" y="15.88" width="0.82" height="0.82"/><rect class="cls-2" x="11.09" y="15.88" width="0.82" height="0.82"/><rect class="cls-2" x="12.26" y="15.88" width="0.82" height="0.82"/><rect class="cls-2" x="13.44" y="15.88" width="0.82" height="0.82"/><rect class="cls-2" x="14.61" y="15.88" width="0.82" height="0.82"/><rect class="cls-2" x="15.78" y="15.88" width="0.82" height="0.82"/><rect class="cls-2" x="18.13" y="15.88" width="0.82" height="0.82"/><rect class="cls-2" x="19.3" y="15.88" width="0.82" height="0.82"/><rect class="cls-2" x="23.99" y="15.88" width="0.82" height="0.82"/><rect class="cls-2" x="29.85" y="15.88" width="0.82" height="0.82"/><rect class="cls-2" x="31.03" y="15.88" width="0.82" height="0.82"/><rect class="cls-2" x="33.37" y="15.88" width="0.82" height="0.82"/><rect class="cls-2" x="34.55" y="15.88" width="0.82" height="0.82"/><rect class="cls-2" x="35.72" y="15.88" width="0.82" height="0.82"/><rect class="cls-2" x="36.89" y="15.88" width="0.82" height="0.82"/><rect class="cls-2" x="38.06" y="15.88" width="0.82" height="0.82"/><rect class="cls-2" x="39.24" y="15.88" width="0.82" height="0.82"/><rect class="cls-2" x="40.41" y="15.88" width="0.82" height="0.82"/><rect class="cls-2" x="41.58" y="15.88" width="0.82" height="0.82"/><rect class="cls-2" x="42.76" y="15.88" width="0.82" height="0.82"/><rect class="cls-2" x="43.93" y="15.88" width="0.82" height="0.82"/><rect class="cls-2" x="45.1" y="15.88" width="0.82" height="0.82"/><rect class="cls-2" x="46.27" y="15.88" width="0.82" height="0.82"/><rect class="cls-2" x="47.45" y="15.88" width="0.82" height="0.82"/><rect class="cls-2" x="48.62" y="15.88" width="0.82" height="0.82"/><rect class="cls-2" x="49.79" y="15.88" width="0.82" height="0.82"/><rect class="cls-2" x="50.97" y="15.88" width="0.82" height="0.82"/><rect class="cls-2" x="52.14" y="15.88" width="0.82" height="0.82"/><rect class="cls-2" x="53.31" y="15.88" width="0.82" height="0.82"/><rect class="cls-2" x="54.48" y="15.88" width="0.82" height="0.82"/><rect class="cls-2" x="55.66" y="15.88" width="0.82" height="0.82"/><rect class="cls-2" x="56.83" y="15.88" width="0.82" height="0.82"/><rect class="cls-2" x="58" y="15.88" width="0.82" height="0.82"/><rect class="cls-2" x="60.35" y="15.88" width="0.82" height="0.82"/><rect class="cls-2" x="4.05" y="17.05" width="0.82" height="0.82"/><rect class="cls-2" x="8.74" y="17.05" width="0.82" height="0.82"/><rect class="cls-2" x="9.92" y="17.05" width="0.82" height="0.82"/><rect class="cls-2" x="11.09" y="17.05" width="0.82" height="0.82"/><rect class="cls-2" x="12.26" y="17.05" width="0.82" height="0.82"/><rect class="cls-2" x="13.44" y="17.05" width="0.82" height="0.82"/><rect class="cls-2" x="14.61" y="17.05" width="0.82" height="0.82"/><rect class="cls-2" x="15.78" y="17.05" width="0.82" height="0.82"/><rect class="cls-2" x="16.95" y="17.05" width="0.82" height="0.82"/><rect class="cls-2" x="18.13" y="17.05" width="0.82" height="0.82"/><rect class="cls-2" x="19.3" y="17.05" width="0.82" height="0.82"/><rect class="cls-2" x="20.47" y="17.05" width="0.82" height="0.82"/><rect class="cls-2" x="33.37" y="17.05" width="0.82" height="0.82"/><rect class="cls-2" x="35.72" y="17.05" width="0.82" height="0.82"/><rect class="cls-2" x="36.89" y="17.05" width="0.82" height="0.82"/><rect class="cls-2" x="38.06" y="17.05" width="0.82" height="0.82"/><rect class="cls-2" x="39.24" y="17.05" width="0.82" height="0.82"/><rect class="cls-2" x="40.41" y="17.05" width="0.82" height="0.82"/><rect class="cls-2" x="41.58" y="17.05" width="0.82" height="0.82"/><rect class="cls-2" x="42.76" y="17.05" width="0.82" height="0.82"/><rect class="cls-2" x="43.93" y="17.05" width="0.82" height="0.82"/><rect class="cls-2" x="45.1" y="17.05" width="0.82" height="0.82"/><rect class="cls-2" x="46.27" y="17.05" width="0.82" height="0.82"/><rect class="cls-2" x="47.45" y="17.05" width="0.82" height="0.82"/><rect class="cls-2" x="48.62" y="17.05" width="0.82" height="0.82"/><rect class="cls-2" x="49.79" y="17.05" width="0.82" height="0.82"/><rect class="cls-2" x="50.97" y="17.05" width="0.82" height="0.82"/><rect class="cls-2" x="52.14" y="17.05" width="0.82" height="0.82"/><rect class="cls-2" x="53.31" y="17.05" width="0.82" height="0.82"/><rect class="cls-2" x="54.48" y="17.05" width="0.82" height="0.82"/><rect class="cls-2" x="55.66" y="17.05" width="0.82" height="0.82"/><rect class="cls-2" x="59.17" y="17.05" width="0.82" height="0.82"/><rect class="cls-2" x="60.35" y="17.05" width="0.82" height="0.82"/><rect class="cls-2" x="9.92" y="18.23" width="0.82" height="0.82"/><rect class="cls-2" x="11.09" y="18.23" width="0.82" height="0.82"/><rect class="cls-2" x="12.26" y="18.23" width="0.82" height="0.82"/><rect class="cls-2" x="13.44" y="18.23" width="0.82" height="0.82"/><rect class="cls-2" x="14.61" y="18.23" width="0.82" height="0.82"/><rect class="cls-2" x="15.78" y="18.23" width="0.82" height="0.82"/><rect class="cls-2" x="16.95" y="18.23" width="0.82" height="0.82"/><rect class="cls-2" x="18.13" y="18.23" width="0.82" height="0.82"/><rect class="cls-2" x="19.3" y="18.23" width="0.82" height="0.82"/><rect class="cls-2" x="20.47" y="18.23" width="0.82" height="0.82"/><rect class="cls-2" x="21.65" y="18.23" width="0.82" height="0.82"/><rect class="cls-2" x="31.03" y="18.23" width="0.82" height="0.82"/><rect class="cls-2" x="32.2" y="18.23" width="0.82" height="0.82"/><rect class="cls-2" x="33.37" y="18.23" width="0.82" height="0.82"/><rect class="cls-2" x="34.55" y="18.23" width="0.82" height="0.82"/><rect class="cls-2" x="35.72" y="18.23" width="0.82" height="0.82"/><rect class="cls-2" x="36.89" y="18.23" width="0.82" height="0.82"/><rect class="cls-2" x="38.06" y="18.23" width="0.82" height="0.82"/><rect class="cls-2" x="39.24" y="18.23" width="0.82" height="0.82"/><rect class="cls-2" x="40.41" y="18.23" width="0.82" height="0.82"/><rect class="cls-2" x="41.58" y="18.23" width="0.82" height="0.82"/><rect class="cls-2" x="42.76" y="18.23" width="0.82" height="0.82"/><rect class="cls-2" x="43.93" y="18.23" width="0.82" height="0.82"/><rect class="cls-2" x="45.1" y="18.23" width="0.82" height="0.82"/><rect class="cls-2" x="46.27" y="18.23" width="0.82" height="0.82"/><rect class="cls-2" x="47.45" y="18.23" width="0.82" height="0.82"/><rect class="cls-2" x="48.62" y="18.23" width="0.82" height="0.82"/><rect class="cls-2" x="49.79" y="18.23" width="0.82" height="0.82"/><rect class="cls-2" x="50.97" y="18.23" width="0.82" height="0.82"/><rect class="cls-2" x="52.14" y="18.23" width="0.82" height="0.82"/><rect class="cls-2" x="53.31" y="18.23" width="0.82" height="0.82"/><rect class="cls-2" x="54.48" y="18.23" width="0.82" height="0.82"/><rect class="cls-2" x="55.66" y="18.23" width="0.82" height="0.82"/><rect class="cls-2" x="56.83" y="18.23" width="0.82" height="0.82"/><rect class="cls-2" x="58" y="18.23" width="0.82" height="0.82"/><rect class="cls-2" x="60.35" y="18.23" width="0.82" height="0.82"/><rect class="cls-2" x="61.52" y="18.23" width="0.82" height="0.82"/><rect class="cls-2" x="9.92" y="19.4" width="0.82" height="0.82"/><rect class="cls-2" x="11.09" y="19.4" width="0.82" height="0.82"/><rect class="cls-2" x="12.26" y="19.4" width="0.82" height="0.82"/><rect class="cls-2" x="13.44" y="19.4" width="0.82" height="0.82"/><rect class="cls-2" x="14.61" y="19.4" width="0.82" height="0.82"/><rect class="cls-2" x="15.78" y="19.4" width="0.82" height="0.82"/><rect class="cls-2" x="16.95" y="19.4" width="0.82" height="0.82"/><rect class="cls-2" x="18.13" y="19.4" width="0.82" height="0.82"/><rect class="cls-2" x="19.3" y="19.4" width="0.82" height="0.82"/><rect class="cls-2" x="20.47" y="19.4" width="0.82" height="0.82"/><rect class="cls-2" x="28.68" y="19.4" width="0.82" height="0.82"/><rect class="cls-2" x="29.85" y="19.4" width="0.82" height="0.82"/><rect class="cls-2" x="31.03" y="19.4" width="0.82" height="0.82"/><rect class="cls-2" x="32.2" y="19.4" width="0.82" height="0.82"/><rect class="cls-2" x="33.37" y="19.4" width="0.82" height="0.82"/><rect class="cls-2" x="34.55" y="19.4" width="0.82" height="0.82"/><rect class="cls-2" x="35.72" y="19.4" width="0.82" height="0.82"/><rect class="cls-2" x="36.89" y="19.4" width="0.82" height="0.82"/><rect class="cls-2" x="38.06" y="19.4" width="0.82" height="0.82"/><rect class="cls-2" x="39.24" y="19.4" width="0.82" height="0.82"/><rect class="cls-2" x="40.41" y="19.4" width="0.82" height="0.82"/><rect class="cls-2" x="41.58" y="19.4" width="0.82" height="0.82"/><rect class="cls-2" x="42.76" y="19.4" width="0.82" height="0.82"/><rect class="cls-2" x="43.93" y="19.4" width="0.82" height="0.82"/><rect class="cls-2" x="45.1" y="19.4" width="0.82" height="0.82"/><rect class="cls-2" x="46.27" y="19.4" width="0.82" height="0.82"/><rect class="cls-2" x="47.45" y="19.4" width="0.82" height="0.82"/><rect class="cls-2" x="48.62" y="19.4" width="0.82" height="0.82"/><rect class="cls-2" x="49.79" y="19.4" width="0.82" height="0.82"/><rect class="cls-2" x="50.97" y="19.4" width="0.82" height="0.82"/><rect class="cls-2" x="52.14" y="19.4" width="0.82" height="0.82"/><rect class="cls-2" x="53.31" y="19.4" width="0.82" height="0.82"/><rect class="cls-2" x="54.48" y="19.4" width="0.82" height="0.82"/><rect class="cls-2" x="55.66" y="19.4" width="0.82" height="0.82"/><rect class="cls-2" x="56.83" y="19.4" width="0.82" height="0.82"/><rect class="cls-2" x="59.17" y="19.4" width="0.82" height="0.82"/><rect class="cls-2" x="9.92" y="20.57" width="0.82" height="0.82"/><rect class="cls-2" x="11.09" y="20.57" width="0.82" height="0.82"/><rect class="cls-2" x="12.26" y="20.57" width="0.82" height="0.82"/><rect class="cls-2" x="13.44" y="20.57" width="0.82" height="0.82"/><rect class="cls-2" x="14.61" y="20.57" width="0.82" height="0.82"/><rect class="cls-2" x="15.78" y="20.57" width="0.82" height="0.82"/><rect class="cls-2" x="16.95" y="20.57" width="0.82" height="0.82"/><rect class="cls-2" x="18.13" y="20.57" width="0.82" height="0.82"/><rect class="cls-2" x="19.3" y="20.57" width="0.82" height="0.82"/><rect class="cls-2" x="31.03" y="20.57" width="0.82" height="0.82"/><rect class="cls-2" x="32.2" y="20.57" width="0.82" height="0.82"/><rect class="cls-2" x="33.37" y="20.57" width="0.82" height="0.82"/><rect class="cls-2" x="35.72" y="20.57" width="0.82" height="0.82"/><rect class="cls-2" x="39.24" y="20.57" width="0.82" height="0.82"/><rect class="cls-2" x="41.58" y="20.57" width="0.82" height="0.82"/><rect class="cls-2" x="42.76" y="20.57" width="0.82" height="0.82"/><rect class="cls-2" x="43.93" y="20.57" width="0.82" height="0.82"/><rect class="cls-2" x="45.1" y="20.57" width="0.82" height="0.82"/><rect class="cls-2" x="46.27" y="20.57" width="0.82" height="0.82"/><rect class="cls-2" x="47.45" y="20.57" width="0.82" height="0.82"/><rect class="cls-2" x="48.62" y="20.57" width="0.82" height="0.82"/><rect class="cls-2" x="49.79" y="20.57" width="0.82" height="0.82"/><rect class="cls-2" x="50.97" y="20.57" width="0.82" height="0.82"/><rect class="cls-2" x="52.14" y="20.57" width="0.82" height="0.82"/><rect class="cls-2" x="53.31" y="20.57" width="0.82" height="0.82"/><rect class="cls-2" x="54.48" y="20.57" width="0.82" height="0.82"/><rect class="cls-2" x="56.83" y="20.57" width="0.82" height="0.82"/><rect class="cls-2" x="58" y="20.57" width="0.82" height="0.82"/><rect class="cls-2" x="59.17" y="20.57" width="0.82" height="0.82"/><rect class="cls-2" x="9.92" y="21.74" width="0.82" height="0.82"/><rect class="cls-2" x="11.09" y="21.74" width="0.82" height="0.82"/><rect class="cls-2" x="12.26" y="21.74" width="0.82" height="0.82"/><rect class="cls-2" x="13.44" y="21.74" width="0.82" height="0.82"/><rect class="cls-2" x="14.61" y="21.74" width="0.82" height="0.82"/><rect class="cls-2" x="15.78" y="21.74" width="0.82" height="0.82"/><rect class="cls-2" x="16.95" y="21.74" width="0.82" height="0.82"/><rect class="cls-2" x="18.13" y="21.74" width="0.82" height="0.82"/><rect class="cls-2" x="31.03" y="21.74" width="0.82" height="0.82"/><rect class="cls-2" x="34.55" y="21.74" width="0.82" height="0.82"/><rect class="cls-2" x="35.72" y="21.74" width="0.82" height="0.82"/><rect class="cls-2" x="36.89" y="21.74" width="0.82" height="0.82"/><rect class="cls-2" x="38.06" y="21.74" width="0.82" height="0.82"/><rect class="cls-2" x="40.41" y="21.74" width="0.82" height="0.82"/><rect class="cls-2" x="41.58" y="21.74" width="0.82" height="0.82"/><rect class="cls-2" x="42.76" y="21.74" width="0.82" height="0.82"/><rect class="cls-2" x="43.93" y="21.74" width="0.82" height="0.82"/><rect class="cls-2" x="45.1" y="21.74" width="0.82" height="0.82"/><rect class="cls-2" x="46.27" y="21.74" width="0.82" height="0.82"/><rect class="cls-2" x="47.45" y="21.74" width="0.82" height="0.82"/><rect class="cls-2" x="48.62" y="21.74" width="0.82" height="0.82"/><rect class="cls-2" x="49.79" y="21.74" width="0.82" height="0.82"/><rect class="cls-2" x="50.97" y="21.74" width="0.82" height="0.82"/><rect class="cls-2" x="52.14" y="21.74" width="0.82" height="0.82"/><rect class="cls-2" x="53.31" y="21.74" width="0.82" height="0.82"/><rect class="cls-2" x="54.48" y="21.74" width="0.82" height="0.82"/><rect class="cls-2" x="9.92" y="22.91" width="0.82" height="0.82"/><rect class="cls-2" x="11.09" y="22.91" width="0.82" height="0.82"/><rect class="cls-2" x="12.26" y="22.91" width="0.82" height="0.82"/><rect class="cls-2" x="13.44" y="22.91" width="0.82" height="0.82"/><rect class="cls-2" x="14.61" y="22.91" width="0.82" height="0.82"/><rect class="cls-2" x="15.78" y="22.91" width="0.82" height="0.82"/><rect class="cls-2" x="16.95" y="22.91" width="0.82" height="0.82"/><rect class="cls-2" x="31.03" y="22.91" width="0.82" height="0.82"/><rect class="cls-2" x="32.2" y="22.91" width="0.82" height="0.82"/><rect class="cls-2" x="33.37" y="22.91" width="0.82" height="0.82"/><rect class="cls-2" x="38.06" y="22.91" width="0.82" height="0.82"/><rect class="cls-2" x="39.24" y="22.91" width="0.82" height="0.82"/><rect class="cls-2" x="41.58" y="22.91" width="0.82" height="0.82"/><rect class="cls-2" x="42.76" y="22.91" width="0.82" height="0.82"/><rect class="cls-2" x="43.93" y="22.91" width="0.82" height="0.82"/><rect class="cls-2" x="45.1" y="22.91" width="0.82" height="0.82"/><rect class="cls-2" x="46.27" y="22.91" width="0.82" height="0.82"/><rect class="cls-2" x="47.45" y="22.91" width="0.82" height="0.82"/><rect class="cls-2" x="48.62" y="22.91" width="0.82" height="0.82"/><rect class="cls-2" x="49.79" y="22.91" width="0.82" height="0.82"/><rect class="cls-2" x="50.97" y="22.91" width="0.82" height="0.82"/><rect class="cls-2" x="52.14" y="22.91" width="0.82" height="0.82"/><rect class="cls-2" x="53.31" y="22.91" width="0.82" height="0.82"/><rect class="cls-2" x="54.48" y="22.91" width="0.82" height="0.82"/><rect class="cls-2" x="11.09" y="24.09" width="0.82" height="0.82"/><rect class="cls-2" x="12.26" y="24.09" width="0.82" height="0.82"/><rect class="cls-2" x="13.44" y="24.09" width="0.82" height="0.82"/><rect class="cls-2" x="16.95" y="24.09" width="0.82" height="0.82"/><rect class="cls-2" x="29.85" y="24.09" width="0.82" height="0.82"/><rect class="cls-2" x="31.03" y="24.09" width="0.82" height="0.82"/><rect class="cls-2" x="32.2" y="24.09" width="0.82" height="0.82"/><rect class="cls-2" x="33.37" y="24.09" width="0.82" height="0.82"/><rect class="cls-2" x="34.55" y="24.09" width="0.82" height="0.82"/><rect class="cls-2" x="35.72" y="24.09" width="0.82" height="0.82"/><rect class="cls-2" x="36.89" y="24.09" width="0.82" height="0.82"/><rect class="cls-2" x="38.06" y="24.09" width="0.82" height="0.82"/><rect class="cls-2" x="39.24" y="24.09" width="0.82" height="0.82"/><rect class="cls-2" x="40.41" y="24.09" width="0.82" height="0.82"/><rect class="cls-2" x="41.58" y="24.09" width="0.82" height="0.82"/><rect class="cls-2" x="42.76" y="24.09" width="0.82" height="0.82"/><rect class="cls-2" x="43.93" y="24.09" width="0.82" height="0.82"/><rect class="cls-2" x="45.1" y="24.09" width="0.82" height="0.82"/><rect class="cls-2" x="46.27" y="24.09" width="0.82" height="0.82"/><rect class="cls-2" x="47.45" y="24.09" width="0.82" height="0.82"/><rect class="cls-2" x="48.62" y="24.09" width="0.82" height="0.82"/><rect class="cls-2" x="49.79" y="24.09" width="0.82" height="0.82"/><rect class="cls-2" x="50.97" y="24.09" width="0.82" height="0.82"/><rect class="cls-2" x="52.14" y="24.09" width="0.82" height="0.82"/><rect class="cls-2" x="53.31" y="24.09" width="0.82" height="0.82"/><rect class="cls-2" x="54.48" y="24.09" width="0.82" height="0.82"/><rect class="cls-2" x="12.26" y="25.26" width="0.82" height="0.82"/><rect class="cls-2" x="13.44" y="25.26" width="0.82" height="0.82"/><rect class="cls-2" x="16.95" y="25.26" width="0.82" height="0.82"/><rect class="cls-2" x="29.85" y="25.26" width="0.82" height="0.82"/><rect class="cls-2" x="31.03" y="25.26" width="0.82" height="0.82"/><rect class="cls-2" x="32.2" y="25.26" width="0.82" height="0.82"/><rect class="cls-2" x="33.37" y="25.26" width="0.82" height="0.82"/><rect class="cls-2" x="34.55" y="25.26" width="0.82" height="0.82"/><rect class="cls-2" x="35.72" y="25.26" width="0.82" height="0.82"/><rect class="cls-2" x="36.89" y="25.26" width="0.82" height="0.82"/><rect class="cls-2" x="38.06" y="25.26" width="0.82" height="0.82"/><rect class="cls-2" x="39.24" y="25.26" width="0.82" height="0.82"/><rect class="cls-2" x="40.41" y="25.26" width="0.82" height="0.82"/><rect class="cls-2" x="41.58" y="25.26" width="0.82" height="0.82"/><rect class="cls-2" x="45.1" y="25.26" width="0.82" height="0.82"/><rect class="cls-2" x="46.27" y="25.26" width="0.82" height="0.82"/><rect class="cls-2" x="47.45" y="25.26" width="0.82" height="0.82"/><rect class="cls-2" x="48.62" y="25.26" width="0.82" height="0.82"/><rect class="cls-2" x="49.79" y="25.26" width="0.82" height="0.82"/><rect class="cls-2" x="50.97" y="25.26" width="0.82" height="0.82"/><rect class="cls-2" x="52.14" y="25.26" width="0.82" height="0.82"/><rect class="cls-2" x="53.31" y="25.26" width="0.82" height="0.82"/><rect class="cls-2" x="54.48" y="25.26" width="0.82" height="0.82"/><rect class="cls-2" x="12.26" y="26.43" width="0.82" height="0.82"/><rect class="cls-2" x="13.44" y="26.43" width="0.82" height="0.82"/><rect class="cls-2" x="14.61" y="26.43" width="0.82" height="0.82"/><rect class="cls-2" x="15.78" y="26.43" width="0.82" height="0.82"/><rect class="cls-2" x="18.13" y="26.43" width="0.82" height="0.82"/><rect class="cls-2" x="28.68" y="26.43" width="0.82" height="0.82"/><rect class="cls-2" x="29.85" y="26.43" width="0.82" height="0.82"/><rect class="cls-2" x="31.03" y="26.43" width="0.82" height="0.82"/><rect class="cls-2" x="32.2" y="26.43" width="0.82" height="0.82"/><rect class="cls-2" x="33.37" y="26.43" width="0.82" height="0.82"/><rect class="cls-2" x="34.55" y="26.43" width="0.82" height="0.82"/><rect class="cls-2" x="35.72" y="26.43" width="0.82" height="0.82"/><rect class="cls-2" x="36.89" y="26.43" width="0.82" height="0.82"/><rect class="cls-2" x="38.06" y="26.43" width="0.82" height="0.82"/><rect class="cls-2" x="40.41" y="26.43" width="0.82" height="0.82"/><rect class="cls-2" x="41.58" y="26.43" width="0.82" height="0.82"/><rect class="cls-2" x="42.76" y="26.43" width="0.82" height="0.82"/><rect class="cls-2" x="46.27" y="26.43" width="0.82" height="0.82"/><rect class="cls-2" x="47.45" y="26.43" width="0.82" height="0.82"/><rect class="cls-2" x="48.62" y="26.43" width="0.82" height="0.82"/><rect class="cls-2" x="49.79" y="26.43" width="0.82" height="0.82"/><rect class="cls-2" x="50.97" y="26.43" width="0.82" height="0.82"/><rect class="cls-2" x="52.14" y="26.43" width="0.82" height="0.82"/><rect class="cls-2" x="15.78" y="27.6" width="0.82" height="0.82"/><rect class="cls-2" x="28.68" y="27.6" width="0.82" height="0.82"/><rect class="cls-2" x="29.85" y="27.6" width="0.82" height="0.82"/><rect class="cls-2" x="31.03" y="27.6" width="0.82" height="0.82"/><rect class="cls-2" x="32.2" y="27.6" width="0.82" height="0.82"/><rect class="cls-2" x="33.37" y="27.6" width="0.82" height="0.82"/><rect class="cls-2" x="34.55" y="27.6" width="0.82" height="0.82"/><rect class="cls-2" x="35.72" y="27.6" width="0.82" height="0.82"/><rect class="cls-2" x="36.89" y="27.6" width="0.82" height="0.82"/><rect class="cls-2" x="38.06" y="27.6" width="0.82" height="0.82"/><rect class="cls-2" x="39.24" y="27.6" width="0.82" height="0.82"/><rect class="cls-2" x="41.58" y="27.6" width="0.82" height="0.82"/><rect class="cls-2" x="46.27" y="27.6" width="0.82" height="0.82"/><rect class="cls-2" x="47.45" y="27.6" width="0.82" height="0.82"/><rect class="cls-2" x="49.79" y="27.6" width="0.82" height="0.82"/><rect class="cls-2" x="50.97" y="27.6" width="0.82" height="0.82"/><rect class="cls-2" x="52.14" y="27.6" width="0.82" height="0.82"/><rect class="cls-2" x="53.31" y="27.6" width="0.82" height="0.82"/><rect class="cls-2" x="54.48" y="27.6" width="0.82" height="0.82"/><rect class="cls-2" x="15.78" y="28.77" width="0.82" height="0.82"/><rect class="cls-2" x="18.13" y="28.77" width="0.82" height="0.82"/><rect class="cls-2" x="19.3" y="28.77" width="0.82" height="0.82"/><rect class="cls-2" x="29.85" y="28.77" width="0.82" height="0.82"/><rect class="cls-2" x="31.03" y="28.77" width="0.82" height="0.82"/><rect class="cls-2" x="32.2" y="28.77" width="0.82" height="0.82"/><rect class="cls-2" x="33.37" y="28.77" width="0.82" height="0.82"/><rect class="cls-2" x="34.55" y="28.77" width="0.82" height="0.82"/><rect class="cls-2" x="35.72" y="28.77" width="0.82" height="0.82"/><rect class="cls-2" x="36.89" y="28.77" width="0.82" height="0.82"/><rect class="cls-2" x="38.06" y="28.77" width="0.82" height="0.82"/><rect class="cls-2" x="39.24" y="28.77" width="0.82" height="0.82"/><rect class="cls-2" x="40.41" y="28.77" width="0.82" height="0.82"/><rect class="cls-2" x="41.58" y="28.77" width="0.82" height="0.82"/><rect class="cls-2" x="46.27" y="28.77" width="0.82" height="0.82"/><rect class="cls-2" x="50.97" y="28.77" width="0.82" height="0.82"/><rect class="cls-2" x="54.48" y="28.77" width="0.82" height="0.82"/><rect class="cls-2" x="55.66" y="28.77" width="0.82" height="0.82"/><rect class="cls-2" x="16.95" y="29.95" width="0.82" height="0.82"/><rect class="cls-2" x="18.13" y="29.95" width="0.82" height="0.82"/><rect class="cls-2" x="19.3" y="29.95" width="0.82" height="0.82"/><rect class="cls-2" x="20.47" y="29.95" width="0.82" height="0.82"/><rect class="cls-2" x="21.65" y="29.95" width="0.82" height="0.82"/><rect class="cls-2" x="34.55" y="29.95" width="0.82" height="0.82"/><rect class="cls-2" x="35.72" y="29.95" width="0.82" height="0.82"/><rect class="cls-2" x="36.89" y="29.95" width="0.82" height="0.82"/><rect class="cls-2" x="38.06" y="29.95" width="0.82" height="0.82"/><rect class="cls-2" x="39.24" y="29.95" width="0.82" height="0.82"/><rect class="cls-2" x="40.41" y="29.95" width="0.82" height="0.82"/><rect class="cls-2" x="49.79" y="29.95" width="0.82" height="0.82"/><rect class="cls-2" x="52.14" y="29.95" width="0.82" height="0.82"/><rect class="cls-2" x="54.48" y="29.95" width="0.82" height="0.82"/><rect class="cls-2" x="16.95" y="31.12" width="0.82" height="0.82"/><rect class="cls-2" x="18.13" y="31.12" width="0.82" height="0.82"/><rect class="cls-2" x="19.3" y="31.12" width="0.82" height="0.82"/><rect class="cls-2" x="20.47" y="31.12" width="0.82" height="0.82"/><rect class="cls-2" x="21.65" y="31.12" width="0.82" height="0.82"/><rect class="cls-2" x="22.82" y="31.12" width="0.82" height="0.82"/><rect class="cls-2" x="23.99" y="31.12" width="0.82" height="0.82"/><rect class="cls-2" x="34.55" y="31.12" width="0.82" height="0.82"/><rect class="cls-2" x="35.72" y="31.12" width="0.82" height="0.82"/><rect class="cls-2" x="36.89" y="31.12" width="0.82" height="0.82"/><rect class="cls-2" x="38.06" y="31.12" width="0.82" height="0.82"/><rect class="cls-2" x="39.24" y="31.12" width="0.82" height="0.82"/><rect class="cls-2" x="50.97" y="31.12" width="0.82" height="0.82"/><rect class="cls-2" x="52.14" y="31.12" width="0.82" height="0.82"/><rect class="cls-2" x="53.31" y="31.12" width="0.82" height="0.82"/><rect class="cls-2" x="54.48" y="31.12" width="0.82" height="0.82"/><rect class="cls-2" x="55.66" y="31.12" width="0.82" height="0.82"/><rect class="cls-2" x="56.83" y="31.12" width="0.82" height="0.82"/><rect class="cls-2" x="16.95" y="32.29" width="0.82" height="0.82"/><rect class="cls-2" x="18.13" y="32.29" width="0.82" height="0.82"/><rect class="cls-2" x="19.3" y="32.29" width="0.82" height="0.82"/><rect class="cls-2" x="20.47" y="32.29" width="0.82" height="0.82"/><rect class="cls-2" x="21.65" y="32.29" width="0.82" height="0.82"/><rect class="cls-2" x="22.82" y="32.29" width="0.82" height="0.82"/><rect class="cls-2" x="23.99" y="32.29" width="0.82" height="0.82"/><rect class="cls-2" x="25.16" y="32.29" width="0.82" height="0.82"/><rect class="cls-2" x="34.55" y="32.29" width="0.82" height="0.82"/><rect class="cls-2" x="35.72" y="32.29" width="0.82" height="0.82"/><rect class="cls-2" x="36.89" y="32.29" width="0.82" height="0.82"/><rect class="cls-2" x="38.06" y="32.29" width="0.82" height="0.82"/><rect class="cls-2" x="39.24" y="32.29" width="0.82" height="0.82"/><rect class="cls-2" x="59.17" y="32.29" width="0.82" height="0.82"/><rect class="cls-2" x="60.35" y="32.29" width="0.82" height="0.82"/><rect class="cls-2" x="61.52" y="32.29" width="0.82" height="0.82"/><rect class="cls-2" x="18.13" y="33.46" width="0.82" height="0.82"/><rect class="cls-2" x="19.3" y="33.46" width="0.82" height="0.82"/><rect class="cls-2" x="20.47" y="33.46" width="0.82" height="0.82"/><rect class="cls-2" x="21.65" y="33.46" width="0.82" height="0.82"/><rect class="cls-2" x="22.82" y="33.46" width="0.82" height="0.82"/><rect class="cls-2" x="23.99" y="33.46" width="0.82" height="0.82"/><rect class="cls-2" x="34.55" y="33.46" width="0.82" height="0.82"/><rect class="cls-2" x="35.72" y="33.46" width="0.82" height="0.82"/><rect class="cls-2" x="36.89" y="33.46" width="0.82" height="0.82"/><rect class="cls-2" x="38.06" y="33.46" width="0.82" height="0.82"/><rect class="cls-2" x="39.24" y="33.46" width="0.82" height="0.82"/><rect class="cls-2" x="41.58" y="33.46" width="0.82" height="0.82"/><rect class="cls-2" x="56.83" y="33.46" width="0.82" height="0.82"/><rect class="cls-2" x="19.3" y="34.63" width="0.82" height="0.82"/><rect class="cls-2" x="20.47" y="34.63" width="0.82" height="0.82"/><rect class="cls-2" x="21.65" y="34.63" width="0.82" height="0.82"/><rect class="cls-2" x="22.82" y="34.63" width="0.82" height="0.82"/><rect class="cls-2" x="23.99" y="34.63" width="0.82" height="0.82"/><rect class="cls-2" x="34.55" y="34.63" width="0.82" height="0.82"/><rect class="cls-2" x="35.72" y="34.63" width="0.82" height="0.82"/><rect class="cls-2" x="36.89" y="34.63" width="0.82" height="0.82"/><rect class="cls-2" x="38.06" y="34.63" width="0.82" height="0.82"/><rect class="cls-2" x="40.41" y="34.63" width="0.82" height="0.82"/><rect class="cls-2" x="41.58" y="34.63" width="0.82" height="0.82"/><rect class="cls-2" x="54.48" y="34.63" width="0.82" height="0.82"/><rect class="cls-2" x="55.66" y="34.63" width="0.82" height="0.82"/><rect class="cls-2" x="56.83" y="34.63" width="0.82" height="0.82"/><rect class="cls-2" x="58" y="34.63" width="0.82" height="0.82"/><rect class="cls-2" x="59.17" y="34.63" width="0.82" height="0.82"/><rect class="cls-2" x="19.3" y="35.81" width="0.82" height="0.82"/><rect class="cls-2" x="20.47" y="35.81" width="0.82" height="0.82"/><rect class="cls-2" x="21.65" y="35.81" width="0.82" height="0.82"/><rect class="cls-2" x="22.82" y="35.81" width="0.82" height="0.82"/><rect class="cls-2" x="34.55" y="35.81" width="0.82" height="0.82"/><rect class="cls-2" x="35.72" y="35.81" width="0.82" height="0.82"/><rect class="cls-2" x="36.89" y="35.81" width="0.82" height="0.82"/><rect class="cls-2" x="40.41" y="35.81" width="0.82" height="0.82"/><rect class="cls-2" x="53.31" y="35.81" width="0.82" height="0.82"/><rect class="cls-2" x="54.48" y="35.81" width="0.82" height="0.82"/><rect class="cls-2" x="55.66" y="35.81" width="0.82" height="0.82"/><rect class="cls-2" x="56.83" y="35.81" width="0.82" height="0.82"/><rect class="cls-2" x="58" y="35.81" width="0.82" height="0.82"/><rect class="cls-2" x="59.17" y="35.81" width="0.82" height="0.82"/><rect class="cls-2" x="60.35" y="35.81" width="0.82" height="0.82"/><rect class="cls-2" x="19.3" y="36.98" width="0.82" height="0.82"/><rect class="cls-2" x="20.47" y="36.98" width="0.82" height="0.82"/><rect class="cls-2" x="21.65" y="36.98" width="0.82" height="0.82"/><rect class="cls-2" x="34.55" y="36.98" width="0.82" height="0.82"/><rect class="cls-2" x="35.72" y="36.98" width="0.82" height="0.82"/><rect class="cls-2" x="36.89" y="36.98" width="0.82" height="0.82"/><rect class="cls-2" x="53.31" y="36.98" width="0.82" height="0.82"/><rect class="cls-2" x="54.48" y="36.98" width="0.82" height="0.82"/><rect class="cls-2" x="55.66" y="36.98" width="0.82" height="0.82"/><rect class="cls-2" x="56.83" y="36.98" width="0.82" height="0.82"/><rect class="cls-2" x="58" y="36.98" width="0.82" height="0.82"/><rect class="cls-2" x="59.17" y="36.98" width="0.82" height="0.82"/><rect class="cls-2" x="60.35" y="36.98" width="0.82" height="0.82"/><rect class="cls-2" x="19.3" y="38.15" width="0.82" height="0.82"/><rect class="cls-2" x="20.47" y="38.15" width="0.82" height="0.82"/><rect class="cls-2" x="35.72" y="38.15" width="0.82" height="0.82"/><rect class="cls-2" x="53.31" y="38.15" width="0.82" height="0.82"/><rect class="cls-2" x="54.48" y="38.15" width="0.82" height="0.82"/><rect class="cls-2" x="56.83" y="38.15" width="0.82" height="0.82"/><rect class="cls-2" x="58" y="38.15" width="0.82" height="0.82"/><rect class="cls-2" x="59.17" y="38.15" width="0.82" height="0.82"/><rect class="cls-2" x="19.3" y="39.32" width="0.82" height="0.82"/><rect class="cls-2" x="20.47" y="39.32" width="0.82" height="0.82"/><rect class="cls-2" x="58" y="39.32" width="0.82" height="0.82"/><rect class="cls-2" x="63.87" y="39.32" width="0.82" height="0.82"/><rect class="cls-2" x="19.3" y="40.49" width="0.82" height="0.82"/><rect class="cls-2" x="62.69" y="40.49" width="0.82" height="0.82"/><rect class="cls-2" x="19.3" y="41.67" width="0.82" height="0.82"/><path class="cls-3" d="M19.85,62.32l-5-8.91,4-4.71H15.55l-3.81,4.65c-.37.45-.88,1.07-1.07,1.38,0-.43,0-1.65,0-2.16V48.7H8V62.32H10.7v-4l2.18-2.57,3.7,6.58Z"/><path class="cls-3" d="M33,62.32V48.7H30.27v5.76c0,.76,0,2.47,0,3-.18-.35-.62-1-.95-1.54l-4.83-7.2h-2.6V62.32h2.68v-6c0-.76,0-2.47,0-3,.18.35.62,1,1,1.54l5,7.43Z"/><rect class="cls-2" x="36.59" y="48.7" width="2.72" height="13.61"/><polygon class="cls-3" points="52.69 62.32 52.69 59.65 45.67 59.65 45.67 56.37 49.58 56.37 49.58 53.72 45.67 53.72 45.67 51.37 52.4 51.37 52.4 48.7 42.95 48.7 42.95 62.32 52.69 62.32"/><polygon class="cls-3" points="64.47 51.37 64.47 48.7 55.53 48.7 55.53 62.32 58.26 62.32 58.26 56.58 62.36 56.58 62.36 53.94 58.26 53.94 58.26 51.37 64.47 51.37"/></g></g></svg>