<svg xmlns="http://www.w3.org/2000/svg" viewBox="0 0 170.85 26.27"><defs><style>.cls-1{fill:#b4846c;}</style></defs><title>maier</title><g id="Layer_2" data-name="Layer 2"><g id="Layer_1-2" data-name="Layer 1"><path class="cls-1" d="M29.53,0l.11,26.27h-5.4V7.92c0-1.11-.26-1.19-1.41-.45l-4,2.59a8.87,8.87,0,0,0-1.48,1.19l-8.4,8.14a7.28,7.28,0,0,0-1.15,1.48L6,24.2a4.56,4.56,0,0,0-.51,1.44c0,.34-.52.63-1,.63H0V0H4.92A2.33,2.33,0,0,1,6.66.59L14,6.25c.41.3.78.6.82.6s.41-.3.81-.6L23.05.59A2.33,2.33,0,0,1,24.79,0ZM5.4,7.33v8a2.08,2.08,0,0,0,0,.37s.18-.15.3-.26l4.58-4.78a1,1,0,0,0,.26-.33s-.15-.15-.29-.26L6,7.14A1.23,1.23,0,0,0,5.51,7S5.4,7.1,5.4,7.33ZM58.29.85,71.2,25.24a7.49,7.49,0,0,1,.45.92c0,.07-.45.11-1,.11h-4a1.24,1.24,0,0,1-1.41-.85l-1.15-2.26c-.44-.77-.51-.85-1.4-.77l-8.18.7a8.43,8.43,0,0,0-1.89.37l-3.25,1a7.74,7.74,0,0,0-1.78.88l-.44.3a4.06,4.06,0,0,1-1.89.59H42c-.52,0-1-.07-1-.18a6.7,6.7,0,0,1,.44-1L54.41.85A1.24,1.24,0,0,1,55.81,0h1.07A1.24,1.24,0,0,1,58.29.85Zm-2,16.87,4.55-.18c.23,0,.37-.07.37-.15A1.2,1.2,0,0,0,61,17L56.59,8.47c-.11-.18-.22-.33-.3-.33s-.22.15-.33.33L50.45,19.09a2.47,2.47,0,0,0-.15.41s0,0,.11,0,.11,0,.11,0,.15-.11.37-.15l4.7-1.48A5.83,5.83,0,0,1,56.29,17.72ZM84.5,25.38V.89a3.35,3.35,0,0,1,0-.85,3.35,3.35,0,0,1,.85,0h3.48a3.68,3.68,0,0,1,.88,0s0,.4,0,.85V25.38c0,.45,0,.85,0,.85a3.68,3.68,0,0,1-.88,0H85.39a3.35,3.35,0,0,1-.85,0A3.35,3.35,0,0,1,84.5,25.38Zm23.77.89V0H129V5.25H113.56v5.41c0,.48.22.74.52.59a7.87,7.87,0,0,1,3.11-.85l8.36-.3v5.26h-5.14a11.24,11.24,0,0,0-1.67.11l-2.26.29a5.73,5.73,0,0,0-1.55.45l-.63.29a1.27,1.27,0,0,0-.74,1.19v3.18H130v5.4Zm37.09,0V0h17.17a8.3,8.3,0,0,1,1.63.18l1.07.26a5.35,5.35,0,0,1,1.48.67l.89.59a7.34,7.34,0,0,1,1.22,1.15l.26.33a5.73,5.73,0,0,1,.81,1.45l.22.62a4.27,4.27,0,0,1,.45,2.22v1a7.71,7.71,0,0,1-.23,1.63l-.22.74a5.19,5.19,0,0,1-.7,1.44l-.26.41A7.82,7.82,0,0,1,167.93,14l-.41.3a6.83,6.83,0,0,1-1.51.88l-.56.23a3.23,3.23,0,0,0-.78.4,4,4,0,0,0,.45.78l5.29,8.92a5.33,5.33,0,0,1,.44.77s-.37,0-.85,0h-5.22l-6-9.95a1.26,1.26,0,0,0-1.29-.74h-1a7.61,7.61,0,0,0-1.6.18l-1.44.3a8.37,8.37,0,0,0-1.55.48l-.37.15a1.11,1.11,0,0,0-.78,1.15v8.43Zm15.83-21H150.76V11.1c0,.33.15.44.41.33s.66-.26.89-.33l.74-.26a8.15,8.15,0,0,1,.85-.22l1.48-.26a6.26,6.26,0,0,1,.88,0h5.89a3.27,3.27,0,0,0,3-1.44l0-.07a2.44,2.44,0,0,0,.18-.89V7.81a2.14,2.14,0,0,0-.88-1.89l-.19-.11a2.31,2.31,0,0,0-.81-.33l-1.15-.15A7.3,7.3,0,0,0,161.19,5.25Z"/></g></g></svg>