<svg xmlns="http://www.w3.org/2000/svg" viewBox="0 0 113.39 25.67"><defs><style>.cls-1{fill:#9d9d9c;}</style></defs><title>mirage</title><g id="Layer_2" data-name="Layer 2"><g id="Layer_1-2" data-name="Layer 1"><path class="cls-1" d="M7.26,10.49c-.58,2.31-1.17,4.63-1.75,7H0v0L4,3.5H7.79q2.58,3.9,5.12,7.79L17.79,3.5h3.86l3.58,13.94v0H19.75c-.54-2.33-1.06-4.64-1.57-6.95q-2.23,3.56-4.46,7.11H11.58q-2.17-3.57-4.32-7.13"/><polygon class="cls-1" points="27.56 3.54 27.56 17.46 32.76 17.47 32.77 3.54 27.57 3.53 27.56 3.54"/><path class="cls-1" d="M46,11.77c2.64-.34,4.34-1.89,4.34-3.94,0-2.74-2.53-4.3-7-4.3H35.61V17.46h5.2c0-1.79,0-3.57,0-5.35h0l4.89,5.35h6.52l0,0L46,11.77M40.8,6.3h.51c1.55,0,3.61.18,3.61,1.75S42.86,9.8,41.31,9.8H40.8V6.31Z"/><path class="cls-1" d="M65.94,15.06l1.29,2.41h5.58l0,0L65.28,3.54H59.6L51.9,17.45v0h5.53l1.39-2.42Zm-1.39-2.77H60.2l0,0,2.14-4.43h.07l2.13,4.44v0Z"/><path class="cls-1" d="M109.86,6.61V3.53H95.34V17.46h14.52V14.38h-9.31V12h9V8.93h-9V6.62h9.31Z"/><path class="cls-1" d="M83.31,9.69v2.84c1.42,0,2.83,0,4.23,0-.2,1.49-1.76,2.38-4.16,2.38a5.65,5.65,0,0,1-3.91-1.36,4.11,4.11,0,0,1-1.35-3,4.19,4.19,0,0,1,1.31-3A5.44,5.44,0,0,1,83.3,6.22a4.62,4.62,0,0,1,4.3,2.2v0L92.54,7h0c-1.71-2.58-4.82-3.92-9-3.92-6.49,0-10.85,3-10.85,7.51a6.31,6.31,0,0,0,3,5.32,13.55,13.55,0,0,0,7.68,2c3.55,0,6.4-1,8.25-2.74s2-3.54,2-5.51v0H83.33Z"/><path class="cls-1" d="M110.89.74v2h.37V1.88h.16a.38.38,0,0,1,.22.06,1,1,0,0,1,.23.29l.3.5h.41l-.33-.54a1.6,1.6,0,0,0-.19-.26.28.28,0,0,0-.13-.11.62.62,0,0,0,.35-.18.47.47,0,0,0,.13-.33.48.48,0,0,0-.21-.43,1.18,1.18,0,0,0-.63-.14Zm1,.32a.28.28,0,0,1,.11.25.32.32,0,0,1-.11.26.65.65,0,0,1-.36.07h-.3V1h.3a.56.56,0,0,1,.36.08m-1-.93a1.63,1.63,0,0,0-.57.38,1.8,1.8,0,0,0-.39.58,1.72,1.72,0,0,0-.13.68A1.69,1.69,0,0,0,110.38,3a1.81,1.81,0,0,0,.57.39,1.79,1.79,0,0,0,1.34,0,1.81,1.81,0,0,0,.57-.39,1.91,1.91,0,0,0,.4-.57,1.9,1.9,0,0,0,.13-.67,1.72,1.72,0,0,0-.14-.68,1.65,1.65,0,0,0-.39-.58A1.77,1.77,0,0,0,111,.13m1.23.27a1.39,1.39,0,0,1,.48.32,1.39,1.39,0,0,1,.32.48,1.51,1.51,0,0,1,0,1.13,1.46,1.46,0,0,1-.32.47,1.44,1.44,0,0,1-2.08,0,1.46,1.46,0,0,1-.32-.47,1.36,1.36,0,0,1-.11-.56,1.35,1.35,0,0,1,.11-.57,1.39,1.39,0,0,1,.32-.48,1.49,1.49,0,0,1,.48-.32,1.48,1.48,0,0,1,1.12,0"/><path class="cls-1" d="M0,24.63H.55V23.2H1.83c.83,0,1.28-.39,1.28-1s-.45-1-1.28-1H0Zm.55-3.12H1.64c.63,0,.91.23.91.65s-.28.65-.91.64H.55Zm4,1.85A1.31,1.31,0,0,0,6,24.69,1.34,1.34,0,1,0,6,22a1.31,1.31,0,0,0-1.47,1.33m.53,0a.9.9,0,0,1,.94-1,1,1,0,0,1,0,1.92.9.9,0,0,1-.94-1m4,1.27h.5V23.5c0-.64.29-1,1.09-1V22a1.13,1.13,0,0,0-1.11.59h0v-.53H9Zm5.43-1.72c-.07-.61-.62-.88-1.3-.88a1.3,1.3,0,0,0-1.43,1.36,1.26,1.26,0,0,0,1.41,1.3,1.21,1.21,0,0,0,1.34-1H14a.74.74,0,0,1-.83.62.85.85,0,0,1-.88-.93.87.87,0,0,1,.94-1,.69.69,0,0,1,.75.51Zm3.66.92a.71.71,0,0,1-.78.49c-.66,0-1-.39-.94-.83h2.26A1.31,1.31,0,0,0,17.3,22a1.33,1.33,0,0,0-1.42,1.32,1.3,1.3,0,0,0,1.45,1.34,1.18,1.18,0,0,0,1.29-.86Zm-1.72-.71a.8.8,0,0,1,.86-.72.81.81,0,0,1,.87.72Zm3.8,1.51h.5V21.12h-.5Zm4.14-.88c0,.23-.27.57-.92.57-.3,0-.58-.09-.58-.37s.28-.41.6-.46a2.88,2.88,0,0,0,.9-.17Zm.81.55a.47.47,0,0,1-.15,0c-.16,0-.16-.08-.16-.28V22.73c0-.6-.59-.7-1.13-.7s-1.25.22-1.28.85h.49c0-.37.34-.48.76-.48s.67.06.67.42-.47.29-1,.38-1,.2-1,.78.45.71,1,.71a1.45,1.45,0,0,0,1.06-.39c0,.28.17.39.42.39a.72.72,0,0,0,.36-.07Zm1.49.33h.5V22.09h-.5Zm.5-3.51h-.5v.51h.5Zm1.77,3.51h.5V23.2a.78.78,0,0,1,.89-.8c.38,0,.62.2.62.51v1.72h.49V23c0-.55-.24-.93-1-.93a1.11,1.11,0,0,0-1,.46h0v-.4h-.47Zm4.36,0h.65v-.54h-.65Zm2.6,0h1.43c1.4,0,2-.66,2-1.84s-.72-1.67-2-1.67H35.88Zm.56-3.12h.93c1,0,1.39.51,1.39,1.35a1.27,1.27,0,0,1-1.4,1.38h-.92ZM43,23.83a.71.71,0,0,1-.78.49c-.66,0-1-.39-.94-.83h2.26A1.31,1.31,0,0,0,42.17,22a1.33,1.33,0,0,0-1.42,1.32,1.3,1.3,0,0,0,1.45,1.34,1.18,1.18,0,0,0,1.29-.86Zm-1.72-.71a.8.8,0,0,1,.86-.72.81.81,0,0,1,.87.72Zm3.58.71c0,.63.6.86,1.28.86s1.29-.19,1.29-.8-.49-.63-1-.72-1-.15-1-.45.35-.32.65-.32.66.1.7.43h.49c0-.62-.57-.8-1.24-.8-.52,0-1.12.21-1.12.72s.49.63,1,.72,1,.15,1,.48-.42.37-.73.37-.79-.11-.81-.49Zm4.15.8h.49V22.09H49Zm.49-3.51H49v.51h.49Zm3,3.17c-.65,0-.85-.51-.85-1a.84.84,0,0,1,.89-.92.82.82,0,0,1,.86.91.88.88,0,0,1-.9,1m1.39-2.2h-.46v.36h0a1,1,0,0,0-.9-.42,1.28,1.28,0,0,0-1.39,1.34,1.23,1.23,0,0,0,1.34,1.29,1.07,1.07,0,0,0,.95-.46h0v.17a.84.84,0,0,1-.91,1c-.33,0-.76-.1-.78-.41h-.5c0,.56.69.75,1.25.75,1,0,1.4-.42,1.4-1.25Zm1.76,2.54h.49V23.2a.78.78,0,0,1,.89-.8c.38,0,.62.2.62.51v1.72h.49V23c0-.55-.24-.93-1-.93a1.12,1.12,0,0,0-1,.46h0v-.4h-.46Zm4.36,0h.64v-.54H60Zm5.53-2.48c0-.78-.68-1.12-1.53-1.12s-1.52.32-1.52,1,.67.81,1.34.93,1.33.21,1.33.69-.55.64-1.05.64-1.22-.25-1.22-.84h-.53c0,.85.79,1.24,1.73,1.24.76,0,1.63-.3,1.63-1s-.67-.89-1.33-1S63,22.46,63,22s.46-.6.93-.6,1,.21,1,.72Zm4.27-.06h-.5v1.44c0,.45-.29.79-.89.79-.38,0-.61-.2-.61-.51V22.09h-.5v1.67c0,.55.25.93,1,.93a1.09,1.09,0,0,0,1-.46h0v.4h.47Zm1.56,1.74c0,.63.6.86,1.28.86s1.28-.19,1.28-.8-.49-.63-1-.72-1-.15-1-.45.34-.32.64-.32.67.1.7.43h.5c0-.62-.57-.8-1.24-.8s-1.13.21-1.13.72.5.63,1,.72,1,.15,1,.48-.42.37-.73.37-.8-.11-.82-.49Zm4.8-2.5h-.49v.76h-.52v.37h.52v1.62c0,.47.2.55.72.55h.38v-.36h-.23c-.31,0-.38,0-.38-.23V22.46h.61v-.37h-.61Zm4,2.42c0,.23-.27.57-.93.57-.3,0-.58-.09-.58-.37s.28-.41.61-.46a3,3,0,0,0,.9-.17Zm.8.55a.44.44,0,0,1-.15,0c-.16,0-.16-.08-.16-.28V22.73c0-.6-.59-.7-1.13-.7s-1.25.22-1.28.85h.5c0-.37.33-.48.75-.48s.67.06.67.42-.46.29-1,.38-1,.2-1,.78.45.71,1,.71a1.49,1.49,0,0,0,1.07-.39c0,.28.16.39.42.39a.68.68,0,0,0,.35-.07Zm1.5.33H83V22.09h-.49ZM83,21.12h-.49v.51H83Zm1.78,3.51h.49V23.2a.79.79,0,0,1,.9-.8c.38,0,.61.2.61.51v1.72h.5V23c0-.55-.25-.93-1-.93a1.1,1.1,0,0,0-1,.46h0v-.4h-.46Zm6.12-.88c0,.23-.27.57-.93.57-.3,0-.58-.09-.58-.37s.28-.41.61-.46a3,3,0,0,0,.9-.17Zm.8.55a.44.44,0,0,1-.15,0c-.16,0-.16-.08-.16-.28V22.73c0-.6-.59-.7-1.13-.7s-1.25.22-1.28.85h.5c0-.37.33-.48.75-.48s.67.06.67.42-.46.29-1,.38-1,.2-1,.78.45.71,1,.71a1.49,1.49,0,0,0,1.07-.39c0,.28.16.39.42.39a.66.66,0,0,0,.35-.07Zm3.82-1a.86.86,0,0,1-.9,1,1,1,0,1,1,.9-1m-2.33,1.29h.49v-.34h0A1.39,1.39,0,0,0,96,23.37,1.28,1.28,0,0,0,94.64,22a1.1,1.1,0,0,0-1,.4h0V21.12h-.49Zm4.47,0h.5V22.09h-.5Zm.5-3.51h-.5v.51h.5Zm1.8,3.51h.5V21.12h-.5Zm2.3,0h.5V22.09h-.5Zm.5-3.51h-.5v.51h.5Zm2.46.21h-.49v.76h-.52v.37h.52v1.62c0,.47.2.55.71.55h.38v-.36h-.22c-.31,0-.38,0-.38-.23V22.46h.6v-.37h-.6Zm4.66.76h-.53l-.85,2.08h0l-.88-2.08H107l1.2,2.53-.21.43a.43.43,0,0,1-.41.24,1.36,1.36,0,0,1-.29-.06v.38a1.34,1.34,0,0,0,.35,0c.44,0,.64-.18.87-.68Z"/></g></g></svg>