<?xml version="1.0" encoding="utf-8"?>
<!-- Generator: Adobe Illustrator 22.0.1, SVG Export Plug-In . SVG Version: 6.00 Build 0)  -->
<svg version="1.1" id="Layer_1" xmlns="http://www.w3.org/2000/svg" xmlns:xlink="http://www.w3.org/1999/xlink" x="0px" y="0px"
	 viewBox="0 0 113.4 64.3" style="enable-background:new 0 0 113.4 64.3;" xml:space="preserve">
<style type="text/css">
	.st0{clip-path:url(#SVGID_2_);}
	.st1{clip-path:url(#SVGID_4_);}
</style>
<title>duscholux</title>
<g id="Layer_2_1_">
	<g id="Layer_1-2">
		<g>
			<defs>
				<rect id="SVGID_1_" x="-219.7" y="-42.5" width="538.6" height="841.9"/>
			</defs>
			<clipPath id="SVGID_2_">
				<use xlink:href="#SVGID_1_"  style="overflow:visible;"/>
			</clipPath>
			<g class="st0">
				<path d="M71.7,3.3C69.5,1.1,66.2,0,61.9,0H39.2v7.7h20.3c4.2,0,6.5,2.3,6.5,6.5v12.2c0,4.2-2.3,6.5-6.5,6.5H48.1V14.4h-8.9v26.2
					h22.8c4.3,0,7.6-1.1,9.7-3.3s3.3-5.4,3.3-9.7V13C74.9,8.7,73.8,5.4,71.7,3.3"/>
				<path d="M5.4,52.5H0v1.8h5.5c0.6-0.1,1.3,0.1,1.8,0.5c0.4,0.3,0.6,0.6,0.6,3.5s-0.2,3.3-0.6,3.6c-0.5,0.4-1.2,0.5-1.8,0.5H2.2
					v-6.1h-2v7.9h5.3c0.7,0,1.4-0.1,2.1-0.3c1.6-0.5,2.3-1.8,2.3-3.8v-3.5c0-0.8-0.2-1.7-0.6-2.4C8.8,53.1,7.4,52.5,5.4,52.5"/>
			</g>
		</g>
		<polygon points="54.2,52.6 51.8,52.6 51.8,64.2 54.2,64.2 54.2,59.3 59.6,59.3 59.6,64.2 61.9,64.2 61.9,52.6 59.6,52.6 
			59.6,57.5 54.2,57.5 		"/>
		<polygon points="81.1,52.6 78.7,52.6 78.7,64.2 87.6,64.2 87.6,62.4 81.1,62.4 		"/>
		<polygon points="109.5,58.3 113.2,52.6 110.7,52.6 108.2,56.4 105.6,52.6 103.2,52.6 107,58.3 103.1,64.2 105.6,64.2 108.2,60.2 
			110.8,64.2 113.4,64.2 		"/>
		<g>
			<defs>
				<rect id="SVGID_3_" x="-219.7" y="-42.5" width="538.6" height="841.9"/>
			</defs>
			<clipPath id="SVGID_4_">
				<use xlink:href="#SVGID_3_"  style="overflow:visible;"/>
			</clipPath>
			<g class="st1">
				<path d="M15.9,62.2c-0.3-0.4-0.5-0.8-0.4-1.3v-8.3h-2.3v8c0,1.8,0.7,3,2.2,3.5c0.5,0.1,1,0.2,1.5,0.2H18h1.3
					c0.5,0,1-0.1,1.5-0.2c1.4-0.5,2.2-1.7,2.2-3.5v-8h-2.3v8.3c0,0.5-0.1,0.9-0.4,1.3c-0.3,0.3-0.8,0.4-2.2,0.4S16.2,62.4,15.9,62.2
					"/>
				<path d="M92.9,62.2c-0.3-0.4-0.5-0.8-0.4-1.3v-8.3h-2.3v8c0,1.8,0.7,3,2.2,3.5c0.5,0.1,1,0.2,1.5,0.2h1.3h1.3
					c0.5,0,1-0.1,1.5-0.2c1.4-0.5,2.2-1.7,2.2-3.5v-8h-2.3v8.3c0,0.5-0.1,0.9-0.4,1.3c-0.3,0.3-0.8,0.4-2.2,0.4S93.2,62.4,92.9,62.2
					"/>
				<path d="M46,54.5c0.3,0.3,0.5,0.7,0.5,1.1h2.2c0.1-1.4-0.8-2.6-2.1-3c-0.6-0.2-1.3-0.3-2-0.3h-1.5c-0.7,0-1.4,0.1-2,0.3
					c-1.4,0.5-2.2,1.7-2.2,3.5v4.5c0,1.8,0.7,3,2.2,3.5c0.6,0.2,1.3,0.3,2,0.3h1.5c0.7,0,1.4-0.1,2-0.3c1.4-0.5,2.1-1.6,2.1-3.4
					h-2.2v0.2c0,0.5-0.1,0.9-0.5,1.3c-0.3,0.3-0.8,0.4-2.2,0.4s-1.9-0.1-2.2-0.5c-0.5-0.5-0.5-0.7-0.5-3.7l0,0c0-3,0-3.3,0.5-3.8
					c0.3-0.3,0.9-0.4,2.1-0.4c0.7-0.1,1.5,0,2.2,0.4"/>
				<path d="M72.8,62.2c-0.3,0.3-0.8,0.4-2.5,0.4s-2.2-0.2-2.5-0.5s-0.5-0.6-0.5-3.8s0-3.3,0.5-3.8c0.3-0.3,0.8-0.5,2.5-0.5l0,0
					c1.7,0,2.2,0.2,2.5,0.4s0.5,0.7,0.5,3.8S73.2,61.7,72.8,62.2 M73.3,52.6c-0.6-0.2-1.3-0.3-2-0.3h-2.1c-0.7,0-1.4,0.1-2,0.3
					c-1.5,0.5-2.2,1.6-2.2,3.5v4.5c0,1.9,0.7,3,2.2,3.5c0.6,0.2,1.3,0.3,2,0.3h2.1c0.7,0,1.4-0.1,2-0.3c1.5-0.5,2.2-1.6,2.2-3.5
					v-4.5C75.5,54.2,74.8,53.1,73.3,52.6"/>
				<path d="M33.8,57.7c-0.7-0.2-1.3-0.3-2-0.2h-1.4c-0.6,0.1-1.2-0.1-1.8-0.4c-0.3-0.3-0.5-0.8-0.5-1.2c0-0.5,0.2-0.9,0.5-1.3
					c0.3-0.3,0.8-0.4,2.3-0.4c0.7-0.1,1.4,0,2.1,0.4c0.3,0.3,0.5,0.7,0.6,1.1h2.2c0.1-1.4-0.8-2.6-2.1-3c-0.6-0.2-1.3-0.3-2-0.3
					h-1.4c-0.7,0-1.4,0.1-2,0.3c-1.4,0.4-2.3,1.7-2.2,3.1v0.2c-0.1,1.4,0.9,2.6,2.2,3c0.6,0.2,1.3,0.3,2,0.2h1.4
					c0.6-0.1,1.1,0.1,1.6,0.4c0.3,0.3,0.5,0.8,0.5,1.3v0.1c0.1,0.5-0.1,1-0.4,1.3c-0.3,0.3-0.7,0.4-2.3,0.4
					c-0.7,0.1-1.5-0.1-2.1-0.4c-0.4-0.3-0.6-0.8-0.6-1.3v-0.1h-2.3c-0.1,1.5,0.8,2.9,2.2,3.3c0.6,0.2,1.3,0.3,2,0.3h1.6
					c0.7,0,1.4-0.1,2-0.3c1.4-0.4,2.3-1.7,2.1-3.2v-0.1C36.1,59.4,35.2,58.1,33.8,57.7"/>
			</g>
		</g>
	</g>
</g>
</svg>
