<?xml version="1.0" encoding="utf-8"?>
<!-- Generator: Adobe Illustrator 16.0.0, SVG Export Plug-In . SVG Version: 6.00 Build 0)  -->
<svg version="1.2" baseProfile="tiny" id="Livello_1"
	 xmlns="http://www.w3.org/2000/svg" xmlns:xlink="http://www.w3.org/1999/xlink" x="0px" y="0px" width="90.432px"
	 height="57.115px" viewBox="0 0 90.432 57.115" xml:space="preserve">
<path fill="none" stroke="#B2B4B5" stroke-width="0.066" stroke-linecap="round" stroke-linejoin="round" stroke-miterlimit="10" d="
	M85.29,52.662h5.11 M85.29,40.125h5.11 M85.29,40.125v12.537 M90.4,40.125v12.537"/>
<path d="M30.224,26.669c-1.813-0.562-3.651-1.041-5.509-1.431c-2.289-0.482-4.607-0.817-6.939-1
	c-1.445-0.118-2.896-0.157-4.346-0.12c-1.857,0.034-3.71,0.2-5.544,0.494c-1.834,0.292-3.642,0.731-5.406,1.312
	c-1.6,3.944-2.424,8.161-2.424,12.416c1.225-1.195,2.544-2.291,3.946-3.274c1.744-1.281,3.635-2.351,5.632-3.187
	c3.031-1.29,6.232-2.141,9.504-2.527c3.057-0.415,6.144-0.571,9.228-0.465c3.202,0.09,6.397,0.378,9.564,0.863
	c-1.138-0.594-2.308-1.124-3.505-1.588C33.051,27.596,31.648,27.098,30.224,26.669"/>
<path d="M41.563,27.349c0.004,0.005,0.005,0.011,0.005,0.017c0,0.004-0.001,0.008-0.002,0.011c-0.002,0.004-0.004,0.008-0.006,0.011
	c-0.003,0.004-0.007,0.008-0.013,0.012c-0.001,0.001-0.002,0.001-0.003,0.001c-0.005,0.002-0.009,0.003-0.015,0.003
	c-0.014,0-0.028-0.008-0.033-0.021c-0.007-0.013-0.015-0.026-0.02-0.038c0.013-0.006,0.028-0.011,0.041-0.016
	c0.016-0.005,0.033,0.002,0.043,0.015C41.561,27.346,41.562,27.347,41.563,27.349"/>
<polyline points="41.565,27.377 41.568,27.366 41.565,27.377 "/>
<polyline points="41.56,27.388 41.565,27.377 41.56,27.388 "/>
<path d="M41.544,27.4c-0.001,0.001-0.002,0.003-0.002,0.003c-0.72,0.24-1.417,0.557-2.073,0.938
	c0.002-0.002,0.005-0.004,0.008-0.007c0.015-0.016,0.013-0.04-0.003-0.054c-0.005-0.006-0.013-0.012-0.02-0.019
	c0.641-0.371,1.32-0.678,2.021-0.917c0.007,0.013,0.015,0.026,0.021,0.039c0.006,0.013,0.019,0.02,0.033,0.02
	C41.534,27.404,41.539,27.404,41.544,27.4"/>
<path d="M41.56,27.344c-0.01-0.013-0.027-0.02-0.043-0.014c-0.014,0.004-0.028,0.009-0.042,0.015
	c-0.66-1.264-1.397-2.506-2.188-3.694c0.007,0.01,0.02,0.017,0.032,0.017c0.006,0,0.014-0.002,0.021-0.007
	c0.015-0.009,0.022-0.029,0.013-0.047C40.153,24.812,40.895,26.066,41.56,27.344"/>
<path d="M39.474,28.28c0.016,0.014,0.018,0.039,0.003,0.054c-0.003,0.003-0.006,0.005-0.01,0.007
	c-0.001,0.001-0.003,0.003-0.005,0.003c-0.004,0.001-0.009,0.003-0.013,0.003s-0.008-0.002-0.011-0.003
	c-0.003,0-0.005-0.002-0.007-0.003c-0.007-0.003-0.011-0.007-0.015-0.014c-0.011-0.018-0.004-0.041,0.014-0.052
	c0.008-0.003,0.016-0.008,0.023-0.014C39.461,28.269,39.467,28.273,39.474,28.28"/>
<polyline points="39.45,28.347 39.463,28.344 39.45,28.347 "/>
<path d="M39.454,28.262c-0.007,0.005-0.016,0.01-0.023,0.014c-0.019,0.011-0.025,0.033-0.015,0.051
	c0.005,0.007,0.009,0.012,0.016,0.015c-0.003,0-0.006-0.002-0.008-0.005c-1.039-0.943-2.141-1.836-3.279-2.658
	c0.007,0.005,0.015,0.007,0.022,0.007c0.012,0,0.024-0.007,0.032-0.017c0.011-0.018,0.007-0.041-0.01-0.053h0.001
	C37.321,26.434,38.42,27.324,39.454,28.262"/>
<polyline points="39.431,28.341 39.438,28.345 39.431,28.341 "/>
<path d="M39.354,23.614c0.008,0.018,0.001,0.038-0.013,0.047c-0.007,0.005-0.014,0.007-0.021,0.007
	c-0.013,0-0.025-0.007-0.033-0.017c-0.011-0.017-0.006-0.042,0.011-0.053c0.018-0.012,0.041-0.007,0.053,0.011
	C39.352,23.611,39.353,23.612,39.354,23.614"/>
<path d="M39.351,23.608c0.002,0.002,0.003,0.003,0.003,0.005C39.353,23.612,39.351,23.611,39.351,23.608
	c-0.013-0.018-0.036-0.022-0.053-0.011c-0.018,0.011-0.023,0.036-0.011,0.053c-0.788-1.228-1.66-2.42-2.593-3.542
	c0.008,0.009,0.018,0.014,0.03,0.014c0.008,0,0.016-0.004,0.023-0.007c0.016-0.013,0.019-0.037,0.007-0.053
	C37.688,21.186,38.561,22.38,39.351,23.608"/>
<path d="M36.754,20.062c0.013,0.016,0.01,0.04-0.006,0.053c-0.008,0.004-0.015,0.007-0.024,0.007c-0.011,0-0.022-0.005-0.029-0.014
	l-0.001-0.001c-0.013-0.016-0.012-0.039,0.006-0.052c0.016-0.014,0.04-0.011,0.053,0.005C36.754,20.062,36.754,20.062,36.754,20.062
	"/>
<path d="M36.753,20.06c-0.013-0.016-0.036-0.019-0.054-0.005c-0.016,0.013-0.018,0.036-0.005,0.052
	c-0.784-1.026-1.65-2.001-2.574-2.903c0.007,0.007,0.016,0.011,0.025,0.011c0.009,0,0.019-0.004,0.026-0.011
	c0.015-0.014,0.017-0.039,0.002-0.054C35.099,18.054,35.968,19.034,36.753,20.06"/>
<path d="M36.188,25.616c0.018,0.012,0.021,0.036,0.01,0.052c-0.007,0.012-0.02,0.018-0.031,0.018c-0.008,0-0.015-0.002-0.022-0.008
	h-0.001h-0.001c-0.015-0.014-0.019-0.036-0.007-0.054c0.011-0.016,0.032-0.019,0.049-0.01
	C36.186,25.614,36.187,25.615,36.188,25.616"/>
<path d="M36.185,25.614c-0.016-0.009-0.038-0.006-0.049,0.01c-0.013,0.018-0.008,0.041,0.007,0.053
	c-1.129-0.782-2.311-1.517-3.51-2.187c0.007,0.003,0.013,0.005,0.018,0.005c0.015,0,0.028-0.007,0.034-0.019
	c0.01-0.018,0.004-0.042-0.014-0.053C33.872,24.093,35.055,24.831,36.185,25.614"/>
<path d="M34.172,17.15c0.015,0.015,0.014,0.04-0.001,0.054c-0.007,0.008-0.017,0.01-0.026,0.01c-0.01,0-0.019-0.002-0.026-0.01
	h-0.001l-0.001-0.002c-0.014-0.014-0.014-0.037,0-0.052C34.132,17.136,34.156,17.136,34.172,17.15L34.172,17.15z"/>
<path d="M34.171,17.149c-0.015-0.014-0.039-0.014-0.054,0c-0.014,0.016-0.014,0.039,0,0.054c-1.112-1.17-2.313-2.274-3.572-3.283
	c0.007,0.005,0.015,0.009,0.024,0.009c0.011,0,0.022-0.006,0.03-0.015c0.012-0.015,0.011-0.04-0.006-0.054
	C31.854,14.874,33.057,15.979,34.171,17.149"/>
<path d="M32.671,23.423c0.018,0.01,0.025,0.034,0.014,0.052c-0.006,0.012-0.019,0.02-0.034,0.02c-0.005,0-0.011-0.002-0.018-0.005
	c-0.018-0.01-0.024-0.034-0.014-0.052C32.629,23.42,32.653,23.414,32.671,23.423"/>
<path d="M32.671,23.423c-0.018-0.01-0.042-0.003-0.052,0.015c-0.01,0.018-0.004,0.042,0.014,0.052
	c-1.382-0.773-2.823-1.477-4.282-2.093c0.005,0.003,0.01,0.003,0.015,0.003c0.015,0,0.029-0.009,0.036-0.023
	c0.007-0.019-0.002-0.042-0.021-0.05C29.842,21.945,31.287,22.65,32.671,23.423"/>
<path d="M30.593,13.861c0.017,0.013,0.02,0.038,0.007,0.054c-0.008,0.008-0.019,0.013-0.03,0.013c-0.009,0-0.018-0.003-0.024-0.008
	c-0.017-0.013-0.019-0.037-0.005-0.054C30.554,13.851,30.577,13.849,30.593,13.861"/>
<path d="M30.593,13.861c-0.016-0.013-0.039-0.011-0.052,0.005c-0.015,0.017-0.012,0.041,0.005,0.054
	c-1.12-0.899-2.314-1.724-3.552-2.452c0.006,0.003,0.013,0.006,0.019,0.006c0.013,0,0.026-0.006,0.033-0.018
	c0.01-0.019,0.005-0.042-0.013-0.053C28.273,12.133,29.472,12.959,30.593,13.861"/>
<path d="M28.381,21.327c0.019,0.008,0.028,0.031,0.02,0.051c-0.006,0.013-0.02,0.023-0.035,0.023c-0.005,0-0.01-0.001-0.015-0.003
	c-0.019-0.009-0.028-0.031-0.019-0.05C28.339,21.327,28.361,21.32,28.381,21.327"/>
<path d="M28.381,21.327c-0.02-0.007-0.042,0-0.049,0.021c-0.009,0.019,0,0.041,0.019,0.05c-1.476-0.622-2.999-1.183-4.527-1.67
	c0.005,0.001,0.008,0.001,0.012,0.001c0.016,0,0.031-0.01,0.036-0.027c0.006-0.02-0.005-0.041-0.025-0.047
	C25.376,20.143,26.902,20.705,28.381,21.327"/>
<path d="M27.033,11.403c0.018,0.011,0.023,0.034,0.013,0.052c-0.006,0.012-0.019,0.019-0.033,0.019
	c-0.006,0-0.013-0.002-0.019-0.006c-0.018-0.01-0.025-0.034-0.014-0.051C26.991,11.399,27.014,11.393,27.033,11.403"/>
<path d="M27.033,11.403c-0.018-0.011-0.042-0.004-0.053,0.014c-0.011,0.017-0.004,0.041,0.014,0.051
	c-0.835-0.498-1.713-0.941-2.609-1.318c0.005,0.003,0.009,0.003,0.014,0.003c0.015,0,0.03-0.008,0.036-0.023
	c0.008-0.019-0.001-0.041-0.021-0.049C25.314,10.458,26.195,10.903,27.033,11.403"/>
<path d="M24.415,10.081c0.02,0.009,0.028,0.03,0.021,0.049c-0.007,0.016-0.021,0.024-0.036,0.024c-0.005,0-0.01-0.001-0.015-0.003
	c-0.019-0.008-0.028-0.03-0.021-0.049C24.374,10.082,24.395,10.073,24.415,10.081"/>
<path d="M24.415,10.081c-0.02-0.008-0.041,0.001-0.051,0.021c-0.007,0.019,0.002,0.041,0.021,0.049
	c-0.969-0.413-1.983-0.73-3.015-0.944c0.017,0,0.034-0.012,0.037-0.03c0.005-0.021-0.008-0.041-0.029-0.045
	C22.417,9.346,23.438,9.665,24.415,10.081"/>
<path d="M23.847,19.655c0.02,0.006,0.031,0.028,0.025,0.047c-0.005,0.017-0.02,0.027-0.036,0.027c-0.004,0-0.007,0-0.012-0.001
	c-0.02-0.006-0.031-0.028-0.024-0.048C23.806,19.659,23.827,19.649,23.847,19.655"/>
<path d="M23.847,19.655c-0.02-0.006-0.041,0.004-0.047,0.025c-0.007,0.02,0.004,0.042,0.024,0.048
	c-1.846-0.573-3.743-1.047-5.641-1.409h0.006c0.018,0,0.034-0.014,0.038-0.032c0.003-0.02-0.01-0.04-0.03-0.044
	C20.097,18.606,21.999,19.08,23.847,19.655"/>
<path d="M21.377,9.131c0.021,0.004,0.034,0.025,0.029,0.046c-0.003,0.018-0.019,0.029-0.036,0.029c-0.003,0-0.006-0.001-0.008-0.001
	h-0.001c-0.02-0.005-0.033-0.023-0.03-0.044c0.004-0.018,0.02-0.03,0.039-0.03C21.372,9.131,21.375,9.131,21.377,9.131"/>
<path d="M21.369,9.13c-0.018,0-0.034,0.013-0.038,0.031c-0.004,0.02,0.009,0.039,0.03,0.044c-0.99-0.222-2.006-0.328-3.021-0.315
	c0.019,0,0.037-0.017,0.037-0.038s-0.019-0.036-0.039-0.037C19.356,8.801,20.376,8.909,21.369,9.13"/>
<path d="M18.377,8.853c0,0.02-0.017,0.037-0.038,0.037h-0.001c-0.02,0-0.038-0.016-0.038-0.037c0-0.021,0.017-0.038,0.038-0.038
	C18.357,8.816,18.377,8.832,18.377,8.853"/>
<path d="M18.338,8.815c-0.021,0-0.038,0.018-0.038,0.039s0.017,0.036,0.038,0.036c-0.785,0.011-1.568,0.117-2.327,0.314
	c0.002-0.002,0.004-0.002,0.005-0.004c0.018-0.011,0.022-0.035,0.01-0.052C16.017,9.135,16,9.129,15.987,9.133
	C16.754,8.931,17.544,8.825,18.338,8.815"/>
<path d="M18.197,18.243c0.02,0.004,0.033,0.023,0.03,0.044c-0.004,0.018-0.02,0.031-0.038,0.031h-0.006h-0.001h-0.001
	c-0.02-0.006-0.033-0.024-0.03-0.045c0.005-0.018,0.021-0.031,0.038-0.031C18.19,18.242,18.194,18.243,18.197,18.243"/>
<path d="M18.189,18.242c-0.017,0-0.033,0.013-0.038,0.031c-0.003,0.021,0.01,0.04,0.03,0.046c-1.828-0.324-3.695-0.53-5.549-0.615
	c0.018,0,0.036-0.016,0.038-0.036c0.001-0.021-0.016-0.039-0.036-0.04C14.49,17.714,16.359,17.921,18.189,18.242"/>
<path d="M16.027,9.147c0.012,0.018,0.007,0.041-0.01,0.053c-0.002,0.001-0.003,0.002-0.005,0.003s-0.004,0.001-0.006,0.003
	c-0.004,0-0.007,0.001-0.01,0.001c-0.018,0-0.033-0.012-0.038-0.029c-0.004-0.015,0.002-0.031,0.015-0.041h0.001
	c0.004-0.002,0.007-0.004,0.012-0.005h0.001C16,9.13,16.017,9.135,16.027,9.147"/>
<path d="M16.005,9.206c0.002-0.001,0.004-0.001,0.007-0.002c-3.521,2.468-6.589,5.48-9.119,8.954
	c-0.033,0.006-0.067,0.015-0.1,0.023c-0.007,0.003-0.014,0.006-0.019,0.012c2.547-3.517,5.642-6.564,9.198-9.054
	c-0.013,0.008-0.019,0.025-0.014,0.04c0.004,0.017,0.02,0.029,0.037,0.029C15.998,9.208,16.002,9.206,16.005,9.206"/>
<polyline points="15.985,9.132 15.974,9.138 15.985,9.132 "/>
<path d="M12.633,17.628c0.02,0.001,0.038,0.019,0.036,0.04c0,0.02-0.019,0.036-0.037,0.036H12.63
	c-0.022-0.001-0.038-0.018-0.036-0.04C12.595,17.644,12.615,17.629,12.633,17.628"/>
<path d="M12.633,17.628c-0.018,0.001-0.038,0.016-0.039,0.036c-0.002,0.022,0.014,0.039,0.036,0.04
	c-1.957-0.09-3.914,0.096-5.818,0.55c-0.001,0-0.004,0.002-0.004,0c0.009,0,0.019-0.005,0.025-0.015
	c0.021-0.028,0.04-0.054,0.06-0.082C8.774,17.717,10.704,17.539,12.633,17.628"/>
<path d="M6.894,18.157c-0.021,0.028-0.04,0.055-0.06,0.083c-0.007,0.008-0.017,0.014-0.026,0.015
	c-0.002,0.001-0.004,0.001-0.005,0.001c-0.004,0-0.008,0-0.012-0.002c-0.003-0.001-0.007-0.004-0.01-0.006
	c-0.004-0.003-0.008-0.006-0.009-0.009c-0.002-0.002-0.002-0.005-0.004-0.007c-0.003-0.004-0.003-0.008-0.003-0.013
	c-0.001-0.009,0.003-0.019,0.01-0.026c0.005-0.006,0.011-0.01,0.019-0.013C6.827,18.173,6.859,18.165,6.894,18.157"/>
<path d="M6.781,18.248c0.003,0.002,0.006,0.005,0.011,0.006c-0.009-0.003-0.016-0.008-0.021-0.016
	C6.773,18.242,6.776,18.245,6.781,18.248"/>
<polyline points="6.768,18.232 6.766,18.228 6.765,18.22 6.768,18.232 "/>
<path d="M62.351,39.174c3.83,0,6.934,3.105,6.934,6.934c0,3.831-3.104,6.936-6.934,6.936c-3.828,0-6.934-3.104-6.934-6.936
	C55.417,42.279,58.523,39.174,62.351,39.174 M68.097,46.107c0-2.398-1.944-4.343-4.344-4.343c-2.398,0-4.344,1.944-4.344,4.343
	c0,2.399,1.945,4.344,4.344,4.344C66.153,50.451,68.097,48.507,68.097,46.107"/>
<path d="M83.673,18.211c0.001,0.004,0.001,0.009,0,0.013c0,0.003-0.002,0.007-0.004,0.008c-0.004,0.007-0.012,0.013-0.022,0.013
	c-0.002,0-0.004,0-0.006-0.001c-0.007-0.001-0.013-0.006-0.015-0.01c-0.016-0.019-0.029-0.038-0.043-0.058
	c0.023,0.006,0.045,0.011,0.07,0.016c0.004,0.001,0.008,0.004,0.012,0.006c0,0.002,0.002,0.003,0.002,0.004
	C83.669,18.205,83.671,18.208,83.673,18.211"/>
<path d="M83.666,18.197c-0.004-0.002-0.008-0.004-0.013-0.005c-0.024-0.005-0.046-0.011-0.069-0.016
	c-2.535-3.487-5.609-6.51-9.139-8.982h0.003c0.003,0.002,0.005,0.002,0.007,0.002c0.012,0,0.023-0.008,0.026-0.02
	c0.002-0.009,0.001-0.018-0.005-0.024C78.029,11.641,81.121,14.685,83.666,18.197"/>
<path d="M83.625,18.234c0.005,0.004,0.009,0.008,0.015,0.01c-1.903-0.456-3.86-0.641-5.821-0.551
	c0.016-0.001,0.028-0.013,0.026-0.028c-0.002-0.014-0.011-0.026-0.026-0.026c1.94-0.089,3.879,0.092,5.763,0.536h0.002
	C83.597,18.196,83.612,18.215,83.625,18.234"/>
<path d="M77.845,17.666c0,0.015-0.011,0.026-0.025,0.028h-0.004c-0.015,0-0.023-0.012-0.024-0.026
	c-0.001-0.015,0.01-0.027,0.026-0.028h0.002C77.834,17.64,77.843,17.652,77.845,17.666"/>
<path d="M77.818,17.64c-0.017,0-0.027,0.013-0.026,0.028c0.001,0.014,0.01,0.026,0.024,0.026c-1.852,0.085-3.719,0.291-5.549,0.613
	c0.014-0.004,0.022-0.018,0.021-0.031c-0.003-0.014-0.015-0.022-0.028-0.022C74.092,17.932,75.962,17.725,77.818,17.64"/>
<path d="M74.476,9.152c0.006,0.006,0.006,0.015,0.004,0.023c-0.002,0.013-0.014,0.02-0.025,0.02c-0.002,0-0.004,0-0.006,0
	s-0.004-0.001-0.006-0.001c0-0.001-0.002-0.003-0.002-0.003c-0.015-0.008-0.017-0.026-0.008-0.037
	c0.006-0.008,0.014-0.012,0.021-0.012c0.003,0,0.009,0.001,0.012,0.004c0.002,0,0.003,0,0.003,0.001h0.002
	C74.474,9.15,74.474,9.151,74.476,9.152"/>
<polyline points="74.471,9.147 74.47,9.147 74.465,9.146 74.471,9.147 "/>
<path d="M74.44,9.19c0.002,0,0.003,0.002,0.005,0.003c-0.764-0.197-1.548-0.304-2.334-0.314c0.014,0,0.027-0.011,0.027-0.026
	c0-0.014-0.014-0.027-0.027-0.027c0.79,0.009,1.578,0.114,2.344,0.315c-0.008,0-0.016,0.005-0.021,0.013
	C74.424,9.166,74.427,9.184,74.44,9.19"/>
<path d="M72.287,18.275c0.003,0.013-0.006,0.028-0.018,0.031c-0.002,0.001-0.002,0.001-0.004,0.001l0,0h-0.004
	c-0.014,0-0.024-0.01-0.027-0.023c-0.003-0.014,0.007-0.027,0.021-0.03h0.004C72.272,18.254,72.284,18.263,72.287,18.275"/>
<path d="M72.26,18.308h0.004c-1.894,0.362-3.79,0.835-5.634,1.407c0.008-0.008,0.013-0.02,0.01-0.032
	c-0.005-0.013-0.018-0.021-0.031-0.017c1.848-0.573,3.747-1.049,5.646-1.412c-0.014,0.005-0.024,0.017-0.021,0.031
	C72.236,18.298,72.248,18.308,72.26,18.308"/>
<path d="M72.111,8.826c0.016,0,0.027,0.013,0.027,0.027c0,0.015-0.012,0.027-0.027,0.027s-0.026-0.012-0.026-0.027
	c0-0.014,0.011-0.027,0.024-0.027H72.111z"/>
<path d="M72.111,8.88c-0.06-0.001-0.117-0.001-0.176-0.001c-0.955,0-1.914,0.106-2.849,0.316c0.015-0.003,0.024-0.016,0.019-0.031
	c0-0.012-0.012-0.022-0.024-0.022c0.994-0.223,2.012-0.33,3.028-0.316c-0.014,0-0.024,0.013-0.024,0.027
	C72.084,8.868,72.095,8.88,72.111,8.88"/>
<path d="M69.107,9.164c0.003,0.015-0.006,0.029-0.021,0.031c-0.002,0-0.003,0.002-0.005,0.002c-0.012,0-0.024-0.01-0.026-0.022
	c-0.002-0.014,0.006-0.029,0.021-0.032c0.002,0,0.004,0,0.005,0C69.093,9.143,69.105,9.152,69.107,9.164"/>
<path d="M69.054,9.174c0.002,0.013,0.015,0.021,0.026,0.021c-1.034,0.214-2.05,0.533-3.019,0.946
	c0.013-0.006,0.019-0.022,0.014-0.036c-0.006-0.013-0.021-0.019-0.036-0.014c0.974-0.417,1.996-0.735,3.036-0.948
	C69.061,9.146,69.052,9.161,69.054,9.174"/>
<path d="M66.64,19.683c0.003,0.012-0.001,0.023-0.01,0.031c-0.002,0.001-0.004,0.002-0.008,0.003l0,0
	c-0.002,0.002-0.006,0.002-0.009,0.002c-0.012,0-0.021-0.008-0.024-0.02c-0.006-0.014,0.002-0.028,0.017-0.034
	c0.001,0,0.001,0,0.003,0C66.623,19.662,66.636,19.67,66.64,19.683"/>
<path d="M66.615,19.718c0.002,0,0.004,0,0.006,0c-1.521,0.484-3.043,1.047-4.527,1.669c0.014-0.005,0.02-0.022,0.015-0.035
	s-0.022-0.02-0.034-0.014c1.484-0.624,3.01-1.186,4.532-1.672c-0.014,0.006-0.022,0.019-0.019,0.032
	C66.593,19.711,66.602,19.718,66.615,19.718"/>
<path d="M66.076,10.105c0.005,0.014-0.002,0.03-0.014,0.036c-0.004,0.001-0.008,0.002-0.011,0.002c-0.012,0-0.021-0.007-0.024-0.017
	c-0.006-0.013,0-0.029,0.013-0.034C66.054,10.086,66.07,10.093,66.076,10.105"/>
<path d="M66.05,10.143c0.004,0,0.008,0,0.011-0.002c-0.894,0.375-1.772,0.817-2.608,1.317c0.012-0.008,0.016-0.023,0.008-0.036
	c-0.006-0.011-0.021-0.014-0.033-0.01c0.839-0.501,1.717-0.945,2.613-1.321c-0.015,0.006-0.02,0.022-0.015,0.036
	C66.03,10.137,66.041,10.143,66.05,10.143"/>
<path d="M63.46,11.422c0.007,0.012,0.003,0.028-0.007,0.036c-0.001,0-0.001,0.001-0.003,0.001c-0.003,0.003-0.01,0.004-0.014,0.004
	c-0.008,0-0.019-0.004-0.022-0.013c-0.008-0.013-0.005-0.028,0.008-0.036c0.002-0.002,0.002-0.002,0.004-0.002h0.001
	C63.439,11.408,63.454,11.411,63.46,11.422"/>
<path d="M63.453,11.458c0,0.001,0,0.002-0.002,0.002c-1.235,0.725-2.432,1.55-3.554,2.452c0.011-0.009,0.015-0.026,0.004-0.038
	c-0.01-0.011-0.026-0.013-0.038-0.003c1.123-0.904,2.322-1.73,3.561-2.458c0.001,0,0.002-0.001,0.003-0.001
	c-0.001,0.001-0.002,0.001-0.003,0.002c-0.014,0.008-0.018,0.023-0.008,0.037c0.004,0.008,0.013,0.012,0.021,0.012
	c0.004,0,0.01,0,0.014-0.004C63.453,11.459,63.453,11.458,63.453,11.458"/>
<path d="M62.107,21.352c0.007,0.014,0,0.03-0.012,0.035c-0.004,0.001-0.009,0.003-0.012,0.003c-0.012,0-0.021-0.007-0.025-0.017
	c-0.004-0.014,0.002-0.03,0.014-0.035C62.086,21.332,62.103,21.339,62.107,21.352"/>
<path d="M62.083,21.389c0.002,0,0.007-0.001,0.01-0.002c-1.454,0.615-2.895,1.319-4.283,2.093c0.012-0.008,0.018-0.024,0.012-0.036
	c-0.008-0.013-0.025-0.018-0.037-0.011c1.389-0.775,2.832-1.481,4.289-2.096c-0.015,0.006-0.021,0.022-0.016,0.036
	C62.062,21.383,62.074,21.389,62.083,21.389"/>
<path d="M59.902,13.874c0.008,0.012,0.007,0.029-0.005,0.038c-0.005,0.004-0.011,0.006-0.017,0.006c-0.008,0-0.017-0.003-0.021-0.01
	c-0.011-0.011-0.008-0.029,0.003-0.037C59.875,13.861,59.892,13.864,59.902,13.874"/>
<path d="M59.88,13.918c0.006,0,0.012-0.002,0.018-0.007c-1.261,1.011-2.461,2.114-3.572,3.283c0.009-0.011,0.009-0.026-0.002-0.035
	c-0.01-0.011-0.026-0.012-0.037-0.001c1.113-1.171,2.315-2.277,3.576-3.287c-0.011,0.008-0.013,0.026-0.004,0.037
	C59.865,13.916,59.874,13.918,59.88,13.918"/>
<path d="M57.822,23.444c0.006,0.013,0.002,0.029-0.012,0.036c-0.005,0.003-0.008,0.003-0.014,0.003
	c-0.008,0-0.018-0.005-0.022-0.013c-0.007-0.013-0.003-0.029,0.011-0.037C57.796,23.426,57.814,23.431,57.822,23.444"/>
<path d="M57.797,23.483c0.004,0,0.008,0,0.013-0.003c-1.193,0.666-2.373,1.402-3.512,2.189c0.012-0.01,0.014-0.026,0.005-0.039
	c-0.009-0.012-0.024-0.013-0.036-0.005c1.139-0.788,2.323-1.526,3.518-2.193c-0.014,0.008-0.018,0.025-0.012,0.038
	C57.779,23.479,57.788,23.483,57.797,23.483"/>
<path d="M56.324,17.159c0.011,0.008,0.011,0.025,0.002,0.035c0,0.001-0.002,0.001-0.002,0.001c-0.004,0.006-0.012,0.009-0.019,0.009
	s-0.014-0.002-0.019-0.008c-0.01-0.008-0.012-0.024-0.004-0.035c0.003-0.002,0.003-0.002,0.004-0.003
	C56.297,17.147,56.314,17.148,56.324,17.159"/>
<path d="M56.324,17.196L56.324,17.196c-0.922,0.899-1.788,1.875-2.575,2.9c0.007-0.01,0.005-0.024-0.005-0.033
	c-0.012-0.009-0.029-0.008-0.038,0.004c0.788-1.029,1.653-2.005,2.577-2.905c-0.008,0.01-0.006,0.026,0.004,0.034
	c0.006,0.006,0.012,0.008,0.019,0.008S56.32,17.201,56.324,17.196"/>
<path d="M54.304,25.631c0.008,0.013,0.006,0.029-0.006,0.038c0,0.001-0.002,0.001-0.002,0.002c-0.005,0.002-0.01,0.003-0.014,0.003
	c-0.009,0-0.018-0.004-0.023-0.012c-0.008-0.011-0.004-0.028,0.006-0.036c0,0,0.002,0,0.002-0.001
	C54.279,25.617,54.296,25.619,54.304,25.631"/>
<path d="M54.283,25.674c0.004,0,0.01-0.001,0.013-0.003c-1.138,0.823-2.24,1.717-3.276,2.658c-0.002,0-0.003,0.002-0.005,0.003
	c0.004-0.003,0.009-0.006,0.011-0.01c0.006-0.013,0.002-0.03-0.011-0.037c-0.005-0.003-0.011-0.007-0.017-0.01
	c1.035-0.938,2.135-1.83,3.269-2.65c-0.012,0.009-0.014,0.026-0.007,0.037C54.265,25.67,54.275,25.674,54.283,25.674"/>
<path d="M53.743,20.063c0.011,0.009,0.013,0.023,0.007,0.034c-0.002,0-0.002,0.003-0.004,0.005
	c-0.005,0.005-0.012,0.008-0.021,0.008c-0.005,0-0.011-0.001-0.015-0.005c-0.012-0.008-0.015-0.022-0.008-0.034
	c0-0.002,0.002-0.004,0.002-0.005C53.714,20.055,53.73,20.054,53.743,20.063"/>
<path d="M53.725,20.11c0.009,0,0.017-0.003,0.021-0.01c-0.934,1.125-1.805,2.317-2.59,3.54c0.004-0.012,0.002-0.026-0.01-0.033
	c-0.012-0.006-0.025-0.005-0.033,0.004c0.784-1.225,1.654-2.416,2.59-3.541c-0.008,0.012-0.004,0.026,0.006,0.035
	C53.713,20.108,53.72,20.11,53.725,20.11"/>
<path d="M51.117,23.652c-0.013-0.008-0.016-0.025-0.008-0.036v-0.002c0.001-0.001,0.001-0.002,0.003-0.003
	c0.009-0.01,0.022-0.011,0.034-0.004c0.01,0.007,0.014,0.021,0.009,0.033c0,0.001,0,0.004-0.002,0.004
	c-0.005,0.008-0.013,0.012-0.022,0.012C51.125,23.657,51.121,23.656,51.117,23.652"/>
<path d="M51.13,23.657c0.009,0,0.018-0.005,0.022-0.012c-0.793,1.187-1.53,2.433-2.194,3.706c-0.008-0.003-0.017-0.006-0.025-0.009
	c0.662-1.269,1.391-2.5,2.184-3.69C51.121,23.657,51.126,23.657,51.13,23.657"/>
<path d="M51.108,23.616c-0.007,0.012-0.004,0.029,0.009,0.037c-0.793,1.189-1.521,2.42-2.184,3.689c0,0-0.003-0.001-0.005-0.001
	c-0.011-0.003-0.021,0.001-0.03,0.01C49.567,26.068,50.309,24.813,51.108,23.616"/>
<path d="M51.015,28.285c0.013,0.007,0.018,0.025,0.01,0.038c-0.004,0.004-0.008,0.007-0.012,0.009
	c-0.002,0.001-0.004,0.002-0.006,0.002c-0.002,0.002-0.004,0.002-0.006,0.002c-0.005,0-0.011-0.002-0.014-0.004
	c-0.003-0.001-0.005-0.003-0.008-0.005c-0.01-0.011-0.008-0.028,0.003-0.038c0.005-0.004,0.009-0.008,0.015-0.014
	C51.003,28.278,51.009,28.282,51.015,28.285"/>
<path d="M50.998,28.275c-0.005,0.005-0.01,0.01-0.016,0.014c-0.01,0.009-0.012,0.027-0.002,0.037
	c0.002,0.003,0.004,0.005,0.008,0.006c-0.655-0.382-1.354-0.698-2.076-0.939c-0.001,0-0.002-0.002-0.003-0.003
	c0.004,0.003,0.007,0.003,0.011,0.003c0.01,0,0.02-0.005,0.024-0.014c0.005-0.009,0.01-0.019,0.015-0.028
	C49.667,27.591,50.353,27.901,50.998,28.275"/>
<path d="M48.933,27.342c0.008,0.003,0.018,0.006,0.025,0.009c-0.006,0.011-0.01,0.019-0.016,0.029
	c-0.002,0.008-0.013,0.013-0.022,0.013c-0.005,0-0.009,0-0.013-0.003l0,0c-0.004-0.002-0.008-0.005-0.01-0.01
	c-0.004-0.004-0.005-0.008-0.005-0.013v-0.002c0-0.003,0.001-0.007,0.003-0.011c0.002-0.002,0.002-0.003,0.004-0.004
	c0.006-0.008,0.018-0.013,0.029-0.009C48.93,27.341,48.932,27.342,48.933,27.342"/>
<polyline points="48.896,27.354 48.893,27.365 48.894,27.357 48.896,27.354 "/>
<g>
	<path fill="#404448" d="M35.805,40.186v12.402h-5.035V49.86c-0.537,0.833-1.245,1.542-2.079,2.079
		c-3.22,2.07-7.51,1.141-9.584-2.079c-2.071-3.221-1.142-7.511,2.079-9.583c3.22-2.072,7.51-1.143,9.584,2.078v-2.17H35.805z
		 M30.732,46.116c0-2.397-1.944-4.343-4.343-4.343c-2.399,0-4.344,1.945-4.344,4.343c0,2.399,1.945,4.345,4.344,4.345
		C28.789,50.461,30.732,48.516,30.732,46.116"/>
</g>
<rect x="85.296" y="40.131" fill="#404448" width="5.099" height="12.527"/>
<g>
	<path fill="#404448" d="M30.227,26.667c-1.813-0.563-3.652-1.042-5.511-1.432c-2.289-0.483-4.607-0.818-6.94-1.001
		c-1.446-0.118-2.897-0.158-4.347-0.12c-1.858,0.034-3.712,0.2-5.546,0.494c-1.834,0.293-3.643,0.732-5.408,1.313
		c-1.6,3.947-2.424,8.166-2.425,12.425c1.226-1.197,2.546-2.293,3.948-3.277c1.744-1.281,3.636-2.352,5.633-3.188
		c3.032-1.292,6.234-2.143,9.507-2.529c3.058-0.416,6.146-0.572,9.23-0.466c3.204,0.09,6.399,0.379,9.567,0.864
		c-1.139-0.594-2.309-1.125-3.506-1.589C33.055,27.593,31.652,27.095,30.227,26.667"/>
	
		<path fill="none" stroke="#B2B4B5" stroke-width="0.066" stroke-linecap="round" stroke-linejoin="round" stroke-miterlimit="10" d="
		M30.227,26.667c-1.813-0.563-3.652-1.042-5.511-1.432c-2.289-0.483-4.607-0.818-6.94-1.001c-1.446-0.118-2.897-0.158-4.347-0.12
		c-1.858,0.034-3.712,0.2-5.546,0.494c-1.834,0.293-3.643,0.732-5.408,1.313c-1.6,3.947-2.424,8.166-2.425,12.425
		c1.226-1.197,2.546-2.293,3.948-3.277c1.744-1.281,3.636-2.352,5.633-3.188c3.032-1.292,6.234-2.143,9.507-2.529
		c3.058-0.416,6.146-0.572,9.23-0.466c3.204,0.09,6.399,0.379,9.567,0.864c-1.139-0.594-2.309-1.125-3.506-1.589
		C33.055,27.593,31.652,27.095,30.227,26.667z"/>
	<path fill="#404448" d="M41.475,27.345c-0.701,0.238-1.38,0.546-2.021,0.917c-1.033-0.938-2.132-1.828-3.265-2.646h-0.001
		c0-0.001-0.002-0.002-0.003-0.002c-1.13-0.783-2.313-1.52-3.513-2.19c-1.386-0.773-2.83-1.479-4.291-2.097
		c-1.48-0.622-3.006-1.184-4.534-1.672c-1.848-0.574-3.749-1.048-5.651-1.412c-0.002,0-0.005-0.001-0.007-0.001
		c-1.83-0.321-3.699-0.528-5.556-0.614c-1.928-0.089-3.859,0.089-5.74,0.529c2.531-3.474,5.598-6.486,9.119-8.954
		c0.759-0.196,1.542-0.301,2.326-0.312h0.002c1.016-0.015,2.031,0.093,3.021,0.315h0.001c0.002,0,0.005,0,0.008,0
		c1.032,0.214,2.046,0.532,3.015,0.945c0.896,0.377,1.774,0.819,2.609,1.318c1.238,0.728,2.433,1.552,3.552,2.452
		c1.258,1.009,2.459,2.113,3.572,3.283h0.001h0.001c0.924,0.903,1.79,1.878,2.574,2.904v0.001c0.933,1.121,1.805,2.313,2.593,3.542
		C40.078,24.839,40.816,26.08,41.475,27.345"/>
	<path fill="#404448" d="M56.083,40.186v1.835h-2.74v10.567h-5.356V42.021h-4.514v10.567h-5.357V42.021h-1.894v-1.835h1.894v-3.518
		c0.245-2.834,2.622-5.005,5.464-4.992h2.391v2.776h-0.175c-1.188-0.092-2.225,0.798-2.317,1.985
		c-0.006,0.076-0.008,0.154-0.006,0.23v3.518h4.514v-3.518c0.252-2.883,2.703-5.07,5.594-4.992h2.261v2.776h-0.506
		c-1.149,0.089-2.025,1.063-1.992,2.216v3.518H56.083z"/>
	<path fill="#404448" d="M84.306,43.524v9.134h-5.059v-7.64c-0.048-0.784-0.482-1.491-1.156-1.882
		c-0.613-0.393-1.371-0.482-2.057-0.243c-0.429,0.142-0.805,0.415-1.072,0.781c-0.238,0.235-0.387,0.545-0.42,0.878v8.105h-5.061
		V40.131h5.061v1.609l2.965-1.609c0.584-0.311,1.226-0.496,1.883-0.545c0.736-0.127,1.492-0.068,2.199,0.174
		c0.492,0.189,0.951,0.461,1.354,0.804c0.394,0.339,0.714,0.759,0.94,1.229C84.155,42.328,84.298,42.922,84.306,43.524"/>
	<path fill="#404448" d="M62.083,2.884c-1.662,0.518-3.223,1.31-4.621,2.345c-1.334,1.031-2.537,2.22-3.584,3.543
		c-1.107,1.415-2.068,2.936-2.869,4.543c-0.893,1.862-1.648,3.788-2.266,5.759c-0.647,1.807-1.149,3.664-1.5,5.551
		c-0.178,0.744-0.324,1.496-0.44,2.252c-0.524-0.069-1.051-0.101-1.578-0.096c-0.528-0.005-1.055,0.027-1.578,0.096
		c-0.118-0.756-0.263-1.508-0.44-2.252c-0.351-1.887-0.852-3.744-1.5-5.551c-0.618-1.971-1.375-3.897-2.265-5.759
		c-0.803-1.607-1.765-3.128-2.871-4.543c-1.046-1.323-2.249-2.512-3.584-3.543c-1.398-1.035-2.96-1.827-4.621-2.345
		C33.774,0.949,39.481-0.027,45.225,0C50.969-0.027,56.675,0.949,62.083,2.884"/>
	<path fill="#404448" d="M68.101,46.107c0,2.401-1.945,4.348-4.347,4.348c-2.399,0-4.347-1.946-4.347-4.348
		c0-2.4,1.947-4.346,4.347-4.346C66.156,41.762,68.101,43.707,68.101,46.107 M69.291,46.107c0-3.832-3.105-6.939-6.939-6.939
		c-3.832,0-6.938,3.107-6.938,6.939c0,3.833,3.105,6.939,6.938,6.939C66.185,53.047,69.291,49.94,69.291,46.107"/>
	
		<path fill="none" stroke="#B2B4B5" stroke-width="0.066" stroke-linecap="round" stroke-linejoin="round" stroke-miterlimit="10" d="
		M68.101,46.107c0,2.401-1.945,4.348-4.347,4.348c-2.399,0-4.347-1.946-4.347-4.348c0-2.4,1.947-4.346,4.347-4.346
		C66.156,41.762,68.101,43.707,68.101,46.107z M69.291,46.107c0-3.832-3.105-6.939-6.939-6.939c-3.832,0-6.938,3.107-6.938,6.939
		c0,3.833,3.105,6.939,6.938,6.939C66.185,53.047,69.291,49.94,69.291,46.107z"/>
	<path fill="#404448" d="M87.969,25.925c1.601,3.943,2.424,8.159,2.425,12.417c-1.227-1.197-2.546-2.293-3.945-3.276
		c-1.746-1.28-3.637-2.351-5.633-3.185c-3.031-1.293-6.232-2.142-9.504-2.527c-3.058-0.416-6.145-0.572-9.229-0.466
		c-3.203,0.09-6.397,0.378-9.563,0.863c1.138-0.594,2.308-1.124,3.505-1.587c1.375-0.568,2.777-1.066,4.2-1.494
		c1.813-0.562,3.651-1.04,5.509-1.431c2.289-0.483,4.607-0.816,6.939-1c1.445-0.117,2.896-0.158,4.346-0.12
		c1.858,0.035,3.71,0.2,5.545,0.495C84.397,24.904,86.207,25.344,87.969,25.925"/>
	<path fill="#404448" d="M74.444,9.194c3.53,2.472,6.604,5.496,9.138,8.982c-1.884-0.445-3.822-0.625-5.763-0.536h-0.001
		c-1.855,0.084-3.725,0.292-5.559,0.614h-0.004c-1.899,0.363-3.8,0.838-5.646,1.411c-0.001-0.001-0.002,0-0.004,0
		c-1.521,0.487-3.047,1.049-4.532,1.673c-1.456,0.615-2.899,1.32-4.289,2.095c-1.192,0.667-2.378,1.405-3.517,2.191
		c0,0.002-0.002,0.002-0.002,0.002c-1.133,0.818-2.231,1.712-3.268,2.649c-0.646-0.373-1.33-0.684-2.039-0.924
		c0.664-1.273,1.402-2.519,2.195-3.706c0.001-0.001,0.001-0.003,0.002-0.004c0.785-1.224,1.656-2.415,2.59-3.54
		c0.002-0.001,0.002-0.003,0.004-0.004c0.787-1.026,1.652-2.003,2.575-2.9v-0.002c0,0,0,0,0-0.001
		c1.112-1.168,2.313-2.272,3.572-3.283c1.122-0.9,2.317-1.726,3.554-2.451c0.002,0,0.002-0.001,0.002-0.002
		c0.835-0.5,1.715-0.942,2.609-1.317c0.969-0.413,1.984-0.731,3.019-0.945c0.003,0,0.005-0.002,0.007-0.002
		c0.933-0.209,1.893-0.315,2.846-0.315c0.061,0,0.119,0,0.178,0.001C72.897,8.89,73.681,8.996,74.444,9.194"/>
	<path fill="#404448" d="M13.861,46.082c0,2.4-1.946,4.346-4.347,4.346c-2.4,0-4.345-1.945-4.345-4.346s1.945-4.346,4.345-4.346
		C11.915,41.736,13.861,43.682,13.861,46.082 M16.706,42.272c-2.118-3.19-6.423-4.06-9.612-1.94c-0.771,0.51-1.43,1.17-1.941,1.94
		v-2.087H0v16.93h5.153v-7.172c2.118,3.189,6.421,4.061,9.611,1.941C17.954,49.767,18.824,45.463,16.706,42.272"/>
</g>
</svg>
