<svg xmlns="http://www.w3.org/2000/svg" viewBox="0 0 175.75 74.73"><defs><style>.cls-1{fill:#007dc5;}.cls-2{fill:#fff;}</style></defs><title>roca</title><g id="Layer_2" data-name="Layer 2"><g id="Layer_1-2" data-name="Layer 1"><g id="Layer_2-2" data-name="Layer 2"><g id="Layer_1-2-2" data-name="Layer 1-2"><path class="cls-1" d="M44.08,12.8C44,19.42,40.43,22.89,34.62,25l11.52,20.7H29.83c-2.85-5.88-6.1-12.21-9.3-17.85H14.37V45.6H0V.14L27.43,0C37.81,0,44,4,44.08,12.8Z"/><path class="cls-2" d="M29.66,12.8c-1.43,7.3-9,8-15.29,8.27V6.93h6.9C25.32,6.93,29.66,8.07,29.66,12.8Z"/><path class="cls-1" d="M175.75,23.69V43.37a56.32,56.32,0,0,1-17.5,3c-7.87,0-20.59-2-20.65-11.18.06-10.72,13.52-11.63,24.64-11.57,0-5-.74-6.85-6.05-6.85-6.33,0-8.32.69-12.2,2.45l-1.94-5.3c1.65-.8,6.73-2.39,15.8-2.39,9.41,0,17.9,2.45,17.9,12.14Z"/><path class="cls-1" d="M112.1,29c.08-5.66,1.91-10.52,8.79-10.52a24.41,24.41,0,0,1,8.51,1.84L132.08,14c-4.28-1.87-9.93-2.45-15.24-2.45-8.54,0-18,5.3-18,17.4s9.45,17.39,18,17.39c5.31,0,11-.57,15.24-2.45l-2.68-6.26a24.68,24.68,0,0,1-8.51,1.83c-6.88,0-8.71-4.86-8.77-10.51Z"/><path class="cls-2" d="M162.29,39.77c-5.24.74-11.86.29-11.86-5.7-.05-5.13,7.25-5.13,11.86-5.13Z"/><path class="cls-1" d="M102.59,60.53a200.08,200.08,0,0,0,21.33-1.37L99.8,74.73C82.5,74.67,52.18,66.92,38.61,67c-13.23,0-26,2.17-38.61,5V57.85C18.08,53,27.26,53,41.23,53.06,62.16,53,81.83,60.53,102.59,60.53Z"/><polygon class="cls-1" points="175.75 54.48 175.75 70.17 126.31 70.17 135.89 54.48 175.75 54.48 175.75 54.48"/><path class="cls-1" d="M71,11.63C86.87,11.52,92,19.49,92,29S86.76,46.37,71,46.37c-15.1,0-21-7.73-21-17.36S55.68,11.52,71,11.63Z"/><path class="cls-2" d="M71.09,40.14c-7.25,0-7.25-4.63-7.25-11.13s-.18-11,7.29-11,7.21,4.67,7.21,11,0,11.08-7.25,11.11Z"/></g></g></g></g></svg>