<svg xmlns="http://www.w3.org/2000/svg" viewBox="0 0 124.09 84.9"><defs><style>.cls-1,.cls-3,.cls-5,.cls-7,.cls-8{fill:none;stroke-miterlimit:3.86;}.cls-1{stroke:#5d6967;}.cls-1,.cls-3{stroke-width:0.26px;}.cls-2{fill:#5d6967;}.cls-3,.cls-5,.cls-8{stroke:#fff;}.cls-4{fill:#fff;}.cls-5{stroke-width:0.26px;}.cls-11,.cls-6{fill:#9bb1dc;}.cls-7{stroke:#87caef;}.cls-7,.cls-8{stroke-width:0.09px;}.cls-10,.cls-9{fill:#231f20;}.cls-10,.cls-11{fill-rule:evenodd;}</style></defs><title>saniku_1</title><g id="Layer_2" data-name="Layer 2"><g id="Layer_1-2" data-name="Layer 1"><path class="cls-1" d="M123.2,13.77c.07.09.06.38-.08.38s0,0,0,0,0-.14,0-.21Z"/><path class="cls-2" d="M92.87,49.41l-.06.17c-.11.12-.61.24-.61.36h0c0,.05.13.09.13.17h-.05c-.41-.25-1.4.53-1.87.62-.06,0-.16,0-.16.06s0,.17-.13.17a9.67,9.67,0,0,1-1.15.38l-.25,0a1.52,1.52,0,0,1-1.1.64.54.54,0,0,0-.09.25,1.38,1.38,0,0,0-.36,0,.93.93,0,0,1-.36.14v.13l-.46-.09a1,1,0,0,1-.42.27l-.46.35-.35.12s0,0,0,.07-.15,0-.25,0a9.34,9.34,0,0,0-1.11.42c-.23.09-.47.12-.7.2s-.4.21-.61.31l-.71.24a.26.26,0,0,0-.18.23h0s-.07-.08-.13-.08,0,.11,0,.17h0a.28.28,0,0,0-.17-.09,3.12,3.12,0,0,1-1.19.41c-.06,0-.13,0-.13.06a.53.53,0,0,1-.51.25s0-.08,0-.13h0a1.46,1.46,0,0,1-.55.26c-.3.48-1.1.39-1.6.54a4.38,4.38,0,0,1-1.2.35v0h0s.08,0,.08.09h0v.08c-.36-.11-.33.13-.51.13,0-.07,0-.21-.09-.21v-.05h-.08v.05a2.56,2.56,0,0,1-1,.35l-.42,0a5.71,5.71,0,0,0-.61.29l-.41,0-.52.17-.28,0c-.07,0-.21,0-.21.12s-1.15.29-1.15.42h-.08a.37.37,0,0,0-.38-.07c-.17,0-.33.12-.51.16l-.85.14-.46.16-.64.1-.51.19a3.1,3.1,0,0,1-.81.09v0a.2.2,0,0,1,.13.17l-.31-.12a1.38,1.38,0,0,1-.2,0l-.64,0c-.06,0,0,0,0,0a.56.56,0,0,0,0,.12h-.09a.25.25,0,0,0-.21-.17c-.23.28-1.45.33-1.86.45-.13,0-.22.19-.35.19s-.17-.14-.17-.21l-.6.23-.44.07s-.2.12-.1.12v0c-.06,0-.09,0-.09,0-.27-.12-.24,0-.46,0,0,0-.09-.18-.09-.09a8.09,8.09,0,0,1-1.13.16,14.36,14.36,0,0,1-1.79.22c-.21,0-.38.13-.6.15s-.67,0-1,0a3.41,3.41,0,0,0-.56.06c-.06,0-.17.05-.17.13h0c-.07-.13-.34-.14-.34,0a.28.28,0,0,0-.17-.09,1.84,1.84,0,0,0-.47.06h-.71c-.12,0-.21.05-.32,0s-.07-.07-.07,0-.15.26-.29.26v0a.51.51,0,0,0-.35-.17l-.84.08-.77.06-.37,0a3.27,3.27,0,0,0-.56.11,7.85,7.85,0,0,1-1,0l-.46,0c-.09,0-.48-.07-.48,0s-.13.09-.21.09c-.14-.24-1-.18-1,0a3.69,3.69,0,0,0-1.52,0l-.39-.07-1.1,0c-.18,0-.6.11-.7,0a.15.15,0,0,1-.1-.14H43.3c0,.06,0,.17-.12.17v0h.21v0H43.3v0c-.16-.09-.29-.22-.45-.29a4.86,4.86,0,0,0-1.32-.07c-.06,0-.14.08-.14,0h0c-.19-.19-1-.16-1.27-.18l-.6-.1-.58-.05-.44-.1a.91.91,0,0,0-.33,0c-.08,0-.34,0-.34,0A4.39,4.39,0,0,0,36.57,60l-.44-.13a1.92,1.92,0,0,1-.55-.09s-.17-.05-.17-.12h-.08a.56.56,0,0,0,0,.12v0a1,1,0,0,0-.43-.17c0,.07-.17,0-.17.09s-.18.12-.08.12l-.17,0v-.09l.13,0v0h0c-.06,0-.51-.18-.51-.09a3.4,3.4,0,0,0-1.13-.25c-.25,0-.46-.15-.69-.19a2.14,2.14,0,0,0-.51,0c-.11-.32-.63-.16-.88-.2l-.39-.1a2.3,2.3,0,0,0-1-.38v0s0,0,0,.09h-.08c-.15-.2-.3-.13-.51-.13-.2-.33-1.87-.56-1.87-.85h-.08l-.08,0-.4-.13c-.21-.06-1.26-.26-1.26-.49-.06,0,0,0,0,0l-.13,0a1.32,1.32,0,0,0-.8-.21,1.82,1.82,0,0,0-.39-.26h0c-.25-.23-.65-.2-.93-.32-.07,0-.1-.08-.16-.11L22,55.92c-.06,0-.06-.12-.15-.12a1.86,1.86,0,0,0-.43-.25l-.2,0c-.08-.05-.23-.23-.3-.23v0c-.16,0-.93-.26-.93-.42-.35,0-.48-.23-.75-.39l-.39-.14a1.56,1.56,0,0,0-.6-.19l-.19-.23-.34-.14-.23-.27a1.91,1.91,0,0,0-.77-.34l-.13,0a.69.69,0,0,0-.19-.23l-.8-.44c-.18-.12-.28-.3-.46-.42s-.54-.28-.67-.52h0c-.07.06-.16.21-.25.21v0h-.05v0h.05c0-.06.05-.13.12-.13a1.32,1.32,0,0,0-.8-.55v0s.08-.06.08-.13l-.33-.1c-.2-.13-.55-.66-.77-.66,0-.2-.3-.39-.54-.57H92.87"/><path class="cls-2" d="M11.93,49.41c-.18-.14-.35-.27-.35-.4s-.59-.49-.59-.64c-.21-.11-.35-.4-.6-.42v0s0-.09,0-.09v0s-.11.09-.17.09v-.09c0-.05,0-.08,0-.08s-.17,0-.17-.09h0l.05-.12h-.05c-.05-.05-.12-.06-.12-.13H9.88s0,.13-.08.13v-.05h0v0c0-.06.08-.09.08-.17s-.27-.13-.17-.13c-.05,0-.42-.42-.42-.42a2.81,2.81,0,0,0-.1-.31l-.61-.58c-.08-.14-.08-.31-.17-.45-.22-.32-.53-.56-.73-.9a3.41,3.41,0,0,0-.43-.73c-.07-.06-.16-.17-.25-.17v0c0-.09-.06-.38-.13-.38v0c-.07,0-.34,0-.34-.08s0,0,0-.09h.17c0-.08-.22-.46-.13-.46v0c-.06,0-.1.09-.17.09a1.53,1.53,0,0,0-.21-.61c0-.06-.17-.12-.17-.15s0,0,0,0h.09v0H6a1.85,1.85,0,0,0-.14-.14l-.13-.4c-.15-.31-.49-.7-.49-1.07l0,0c-.21-.14-.22-.43-.33-.64l-.15-.23L4.55,39c0-.11,0-.22-.08-.33l-.15-.17c-.25-.3-.26-.82-.63-1.06v0c.06,0,.09,0,.09,0a1.23,1.23,0,0,1-.14-.42l-.11-.35c0-.11.07-.2.1-.3a2,2,0,0,0,.2-.84c0-.28-.27-.44-.27-.76,0,0-.18,0-.08,0,0-.27.28-.43.38-.65a.79.79,0,0,0,0-.41c.11-.13.09-.24.09-.42s.1-.13.17-.13,0-.08,0-.13,0-.25,0-.25,0-.17.12-.17v-.08h0v0c-.06,0,0,0,0,0s-.13,0-.13.12,0,0,0-.08H4c.22-.27,0-.4.08-.68v0c0-.12.09-.85-.08-.85a2,2,0,0,0,.12-.42c.09-.1.2-.59.26-.59a.79.79,0,0,1,0-.72c0-.08.09-.13.09-.22v-.17c.2-.18.14-.33.21-.58,0,0,.08-.11.08-.18s.26-.25.34-.25,0-.26,0-.38-.25-.3-.21-.56h0a.1.1,0,0,1,.09,0s-.08-.17,0-.17.08,0,.08-.08H5c-.07,0-.13,0-.13-.13a.67.67,0,0,1,.25-.08,1,1,0,0,1,1.4-.84c.12,0,.19.19.29.27s.18.05.18.14a2.13,2.13,0,0,1,.26.73c0,.13,0,.26,0,.39s.41.43.36.68c0,.05-.06.11,0,.11.09.17.33.76.55.76a.48.48,0,0,0,0,.29.9.9,0,0,0,.17.3c0,.13.09.25.13.37s.16.2.21.36,0,0,0,0l.21,0v0H9s-.07.08-.13.08v.05c.15.19.31.53.47.7s.25.2.29.4,0,.13.05.13a6.33,6.33,0,0,1,.57,1.17l.25.24c.16.23.29.49.44.72l.28.3c.17.21.14.53.27.77s.35.43.35.7h0l.13,0c.16.81,1.76,1.54,2.39,1.94.12.07.76.68.83.68v0s.05,0,.05-.08h.08c0,.23.34.4.34.47s0,.12.08.12a4.47,4.47,0,0,1,.71.4c.09.09.17.19.26.29l.45.27.59.46c.16.12.34.18.51.3a2.36,2.36,0,0,0,.45.32c0-.06,0-.17.05-.17v0h.08a.74.74,0,0,0,.72.55v.12c.2,0,.26.16.44.23l.49.12c.16.09.41.29.6.29,0,.06,0,.17,0,.17v0h0c0-.06,0-.08.05-.08v0c0,.06,0,.17-.05.17s0,0,.09,0,.17-.3.25-.3v0h.05c0,.11.08.44.08.34h0v0h0c.14.35.44.28.74.39l.36.12v0l.25.34h.09c0-.07,0-.13.12-.13,0,.22.48.34.68.34a.1.1,0,0,0,.09,0c0,.06,0,.17.08.17v0h.05V43c.4.08.63.46,1.09.43.05,0,.09,0,.09,0a.92.92,0,0,0,.38.09.87.87,0,0,0,.47.3v0c-.05,0,0-.17.13-.17v0c.09.06.3.2.3.34l.29,0c.05,0,0,0,.09,0a1.93,1.93,0,0,0,.46.26s.05,0,.05,0c.35-.14.34,0,.67,0,0,.06-.07.17,0,.17v0h.05v0s.07-.09,0-.09v0c.08,0,.42.05.42.13h0v.08c-.08,0-.16-.12-.26-.12v.12c.08,0,.3,0,.3.13s0,0,0,0a.51.51,0,0,1,.55,0v.08h0a.23.23,0,0,0-.17-.08v.13a3.82,3.82,0,0,1,.68.06l.26.06v0c.05,0,.08,0,.08,0s.47.33.47.21c0,.05.09.13.17.13v0h-.05c0-.06,0,0,.05,0V45c0,.06,0,.17.12.17v0a.63.63,0,0,1,.43-.16v0s.08-.07.08-.13h0v0c.4.38.79.26,1.28.43v.17c.06,0,.12,0,.12-.13s0,0,0,0l.75.08.31.13s-.12.13,0,.13v0h0v0s.21-.11.21-.17c.16.05.35.11.38.3h0v0l.47-.09c.27-.08.62.13.93.13v0s.13-.06.13-.12a3.49,3.49,0,0,1,.39.19l1,.23v0h.38v0L38,46.3l.1.08.47.13c.08,0,.14.13.24.13v0l.3-.08c.06.07.34.14.34.21s.21-.11.21-.21h.08c.13.17.78.21,1,.21v0c.36.06.76,0,1.14.07a6.58,6.58,0,0,0,1,.17c.07,0,.17,0,.17-.07a2,2,0,0,0,.55.08v-.17h.09c0,.06.07.17,0,.17v0h.55c.26-.1.42.12.64.12v0c.23-.07.39.06.63,0l.34-.08c.17.14.42,0,.64,0a4.81,4.81,0,0,1,.89.08v0s0-.08,0-.12h.09c0,.06,0,.16,0,.16s.42-.07.42,0,.21,0,.34,0l.42-.12c.23,0,.37.1.6.1s.48,0,.72,0c.16-.17.39,0,.59,0v0l.26,0v-.13h.08c.06,0,.3.13.3,0h.17l.51,0v0c.05,0,0,0,0,0h0v0h.05v0h.08s.13,0,.13-.12a1.3,1.3,0,0,0,1.09-.06s.05,0,.05,0h0c0,.07,0,.13.08.13s.72,0,.72,0l.51,0v0c.35-.2.87-.05,1.26-.16,0,0,0,0,0,0h.05l.42,0v0c.16,0,.89.07.89-.13.06,0,.05,0,.05,0a1.27,1.27,0,0,1,.62-.08c.34,0,.72,0,1.07,0,.07,0,.42-.1.42,0s.35-.11.35-.12,0,0,0,0h0l.38,0s.53-.22.3-.22c0,0,.12-.08.12,0s.3.1.3,0h0c0-.09.16-.23.16-.33h0v.08c0,.07,0,.14,0,.21h0c.09-.06.25,0,.37,0l.39-.18v0h0c0,.06,0,.17.08.17l.3-.17v0l.89-.08.3-.09v0h.12v0a3.89,3.89,0,0,1,.68-.13,1.64,1.64,0,0,1,.46-.08l.39-.11.43-.08s.08,0,.08,0,.68-.08.68-.13l0-.12h.09c0,.06,0,.16,0,.16s.29-.09.29-.16c.41,0,.68-.22,1.06-.22v0c.05,0,.09,0,.09-.08s.42.06.42,0h.09v0s0,0,0,0,0-.09,0-.13h.09c0,.06,0,.08,0,.08s.69-.16.85-.16a.7.7,0,0,1,.42-.13c.14-.09.81-.16.81-.3s0,0,0,0l.42,0c.07-.05.22-.11.22-.21h0v0s0,.09.08.09v0a5.17,5.17,0,0,1,1.11-.25.75.75,0,0,1,.59-.17,1.25,1.25,0,0,1,.72-.21,2.07,2.07,0,0,1,.71-.25,2.72,2.72,0,0,1,.78-.22s0,0,0-.08H76v0s.06-.13.12-.13a3.27,3.27,0,0,0,1-.15,1.27,1.27,0,0,1,.44-.15v0c.15,0,.25-.09.39-.13s.31-.07.46-.11,0,0,0,0,.08,0,.08,0h.08c.13-.16.77-.2.77-.34h0c.12,0,.11-.09.21-.09a4.05,4.05,0,0,1,.5-.12l.52-.26v0h0v.13c.07-.05.26-.09.26-.17h0c.08-.06.29-.08.29-.21h.05s.12,0,.12.12h.09s.41-.34.25-.34v0h0v0h0c0,.06,0,.17.08.17s0,0,0,0a1.89,1.89,0,0,1,.64-.17A7.81,7.81,0,0,1,84,40.08s.3-.19.3-.19,0,0,.09,0,0,0,.08,0v0a4.83,4.83,0,0,0,.85-.33l.31-.18.48-.2s.1,0,.1-.1,0,0,0,.05h.13a1.24,1.24,0,0,1,.89-.3c.06-.07.21-.16.21-.25s.05,0,.09,0,0,0,0,0v0h0s-.08,0-.08.09h.17c.12-.13.72-.33.72-.47s0-.1,0,0h.08s.13.11.13,0l.55-.3h0l.53-.2.33-.2.31-.13s.08-.1.15-.1v0h0s.07.08.13.08v0c.17-.09.48-.34.68-.34,0,0,0,0,0,0,.16-.06,1.14-.54,1.14-.68a1.37,1.37,0,0,0,.83-.29c.08,0,.16-.17.28-.17,0-.05-.13-.13,0-.13v0h0a.33.33,0,0,0,.25.13l.15-.14c.32-.21.77-.36,1.12-.54a6.88,6.88,0,0,1,1.19-.63v-.08c.31-.27.87-.2,1.09-.6,0,0,0-.09.09-.09v0s0,0,0,0h.13a2.07,2.07,0,0,1,.53-.28l.58-.38c.22-.11.44-.21.66-.33l.54-.36c.28-.16.57-.26.85-.41s.31-.25.48-.36l.87-.42c.36-.15.45-.34.87-.34v-.25h0v-.05c.29-.05.61-.46.84-.46V29.8c-.06,0-.17-.07-.17-.17s.17,0,.17-.08h0l0-.05v.05c0,.05,0,.21.08.21v0h0v0c.06,0,.32-.21.25-.21a.09.09,0,0,1,.09-.05v.05s0,0,0-.05.13,0,.13-.08h0c.42.15.46-.17.66-.4a1.52,1.52,0,0,1,.74-.41v0h.17v0l.39-.28.12-.2c.09,0,.15,0,.25,0s.23-.26.34-.26,0-.08,0-.08,0-.12-.05-.17.19-.17.3-.17,0,.21,0,.21v0a2.3,2.3,0,0,0,.64-.43s0,0,0,.09.08-.17.17-.17v0c.06,0,.09,0,.09,0h.08c0-.07.07-.26.13-.26s0,.05,0,0a4.71,4.71,0,0,1,.59-.42v0c0-.15,0-.43.22-.43v0h.08c-.06.1-.25.22-.25.34h0v0c.13,0,.18,0,.3,0v0c0-.09-.09-.34,0-.34a.1.1,0,0,1,.09,0v-.05s.13.13.13.05,0,0,0-.05h0l.21.05c.05-.13.09-.26.13-.39l.2-.07c.18-.08.52-.35.52-.56h0a.23.23,0,0,0,.17.08c0-.06.12-.21.22-.21s-.1-.25-.13-.25v-.05s0,0,0,0h0v0h.13c.11-.13.22-.09.36-.16l.21-.13h.28c0-.2.08-.33.3-.34h0v-.05a1.87,1.87,0,0,0,.72-.51c.14-.14.38-.68.64-.66,0,0,.12.05.12,0h0c.07-.14.51-.66.51-.72h.13c0,.05,0,0,0,0s-.09.17,0,.17.37-.55.51-.55c0-.06-.09-.1-.09-.17s.17-.17.26-.17c.53.15.67-.72,1-.72,0-.06-.17-.3-.08-.3v0a.85.85,0,0,0,.45-.23,7,7,0,0,0,.68-.76c.21-.17.42-.34.62-.52,0,0,.07,0,.07-.1l.08-.06c.18-.12.25-.34.39-.48.45-.44,1-.77,1.47-1.25.08-.08.21-.46.27-.46s-.13-.15-.13-.21h.09v0h0s0,.08,0,.13h0a3.23,3.23,0,0,1,1.13-1c.06,0,.11-.14.19-.14s-.08-.13,0-.13a5.5,5.5,0,0,1,.8-.63v0h.39s0,.08,0,.08,0,.26-.12.26v0s0-.09-.09-.09v.05h0v.08c.07.05.09.3.13.3s.08.08.08.12-.21,0-.21.05h0v.08H123s0,0-.08,0,0,.05,0,0h0v.13a.78.78,0,0,0,.34.09,2.52,2.52,0,0,1-.58.91,1.7,1.7,0,0,0-.18.44c0,.05,0,.09-.08.09V17c.28.05.39.47.21.47,0,.05,0,0,0,0s.15.19.09.34h0v.08s0,0,0-.08.07-.21.17-.21.3-.13.3,0h0a.71.71,0,0,1-.59.5l-.22,0v0h0v.05h0c.07.05.34.06.34.12h0c0,.09-.1.39-.21.39.31.52-.34.82-.45,1.27,0,0,0,.08,0,.08v0h0l.27-.11c.07-.05.24-.28.24-.22s.08,0,.08-.05h0v.09a1,1,0,0,0-.3.72h0c.08,0,.3-.07.3-.21H123v.12c0,.08,0,.26-.17.26v0h0c0,.05.09.21.12.21v.05h.09c.09-.22.21-.29.21-.56.34.17-.09.51.13.51,0-.05,0,0,0,0v.09a.29.29,0,0,0,0,.09,2.49,2.49,0,0,0-.19.71c.13,0,.55-.07.55-.25.07.14-.09.28-.09.42h0a.25.25,0,0,1,.08.17h.05v0h0l0-.13h.08V22l-.24.49-.27.37c0,.16-.07.32-.11.48a5.56,5.56,0,0,1-.86,1.33,2.29,2.29,0,0,1-.39.76,1.39,1.39,0,0,0-.33.56c0,.06,0,.12,0,.12s-.13,0-.13.09.08.22.13.34a.35.35,0,0,0-.32.06c-.33.25-.35.66-.54,1s-.45.67-.69,1l-.41.42-.49.66a.24.24,0,0,0-.1.24v0h0v0a.42.42,0,0,0-.22.08c-.1.12-.12.3-.23.41-.94,1-1.94,1.86-2.84,2.88,0,.06-.15.07-.15.15h0v.09H116v0a.5.5,0,0,0-.28.06c-.27.18-.41.51-.64.72l-.31.19a.27.27,0,0,0-.08.17c-.06,0-.17-.07-.17,0a6.58,6.58,0,0,1-.57.5l-.32.39-.44.29-.4.4-.24.15c-.19.14-.3.37-.5.51a.7.7,0,0,1-.37.14v0s.08.06.08.13c-.2,0-.55.27-.55.51-.07,0-.3,0-.3,0s-.2.51-.46.51c0,.05,0,0,0,0s0,.09.08.09v0h0v0s-.17-.06-.17-.13c-.33.24-.71.37-.92.75,0,0,0,.06,0,.06v0c-.07,0-.25,0-.25,0h0v0h0v.17c-.49.13-.8.64-1.32.64a1.53,1.53,0,0,1-.4.44l-.3.29a2.9,2.9,0,0,1-.29.19,6.53,6.53,0,0,1-.72.58c-.27.16-.55.32-.81.5l-.27.13c-.27.21-.51.44-.79.64-.12.09-.3.13-.42.23s-.5.47-.71.47v.05h.13v.08a1.83,1.83,0,0,0-.91.48c-.09.05-.23.12-.23.24-.49.06-.76.5-1.23.58-.05,0-.05,0-.05,0-.26.23-.83.72-1.18.72a.86.86,0,0,1-.73.46.46.46,0,0,1-.33.21.87.87,0,0,1-.17.21c-.16.11-.85.3-.85.51-.46,0-.64.26-1,.46l-.66.34c-.11.06-.21.18-.36.18,0,.06,0,.12,0,.17-.4-.14-.38.09-.69.24l-.62.25c-.14.06-.23.18-.36.25a4,4,0,0,1-.67.3l-.21,0c0,.11-.11.08-.21.08v0H11.93"/><path class="cls-3" d="M122.57,16.78c0,.07,0,.17-.09.17a.65.65,0,0,0,0-.13Zm-.21,0c0,.05,0,0,0,0v0s0,0,.09,0S122.37,16.75,122.36,16.74Z"/><path class="cls-1" d="M122.65,19.45s-.08.14-.08,0h.08Zm.13-1.91h.13A.15.15,0,0,1,122.78,17.54Zm0-.72h0a.1.1,0,0,0,.09,0V17c-.07,0-.13.08-.13.17h-.08V17h0Z"/><path class="cls-3" d="M122.48,20.51c0,.06-.17.13-.17.21h.13c0,.09,0,.17,0,.26.22,0,.3-.1.3-.34h0v0h-.13c0,.06,0,.12-.13.12Z"/><path class="cls-4" d="M122.1,20.85c0,.1,0,.2,0,.3s.15.08.25.08a.55.55,0,0,1,0-.25h0v-.09h0l-.17,0"/><path class="cls-3" d="M122.1,20.85c0,.1,0,.2,0,.3s.15.08.25.08a.55.55,0,0,1,0-.25h0v-.09h0Z"/><path class="cls-4" d="M122.86,21v0"/><path class="cls-3" d="M122.86,21v0Z"/><path class="cls-1" d="M113.83,22.5H114v.09h0v0c-.06,0-.09,0-.09-.08Z"/><path class="cls-4" d="M111.58,24.79c0,.07,0,.17,0,.17s0-.11,0-.17"/><path class="cls-3" d="M111.58,24.79c0,.07,0,.17,0,.17S111.6,24.85,111.58,24.79Z"/><path class="cls-1" d="M108.36,26.92c.13.24-.59.52-.59.42h0v0A1.87,1.87,0,0,0,108.36,26.92Zm.72-.51h.09c-.13.17-.36.42-.6.42v-.15A2.06,2.06,0,0,1,109.08,26.41Zm.17-.17h.17v0a.1.1,0,0,1-.09,0,.22.22,0,0,1-.16.09v0s0-.05.08-.05Zm0-.22h.08a.51.51,0,0,1-.34.13v0h0Z"/><path class="cls-3" d="M106.71,28.15a.2.2,0,0,1,.08.17c-.07,0-.21,0-.21-.05h.08Z"/><path class="cls-1" d="M106.45,28.32l.13,0h0v0h-.05s0,0-.08,0v-.08h0Z"/><path class="cls-5" d="M106,28.74c0,.1-.11.25-.25.25V29h0c.07,0,.3-.18.3-.13S106,28.78,106,28.74Z"/><path class="cls-1" d="M105.14,29.21c.06,0,.12,0,.12,0s-.08,0-.08,0-.1,0,0,0Z"/><path class="cls-3" d="M100.13,32.43v.08c.05,0,.09,0,.09-.08Zm1.27-.72v0Zm1-.64s0,0,0,.09l-.17,0v0h.17a.16.16,0,0,1,.12,0c0-.06,0,0,.05,0Zm.25-.17c0,.05,0,.09.09.09v0h.13v0Zm1.23-.72v0s0,0,0,.05H104S103.89,30.2,103.86,30.18Zm.3-.17s.09.07.09.13h0Zm.47-.34s0,0,0,.09.12-.08.12,0h.09Z"/><path class="cls-1" d="M114.76,34.63h0s-.09.19-.09.09A.36.36,0,0,0,114.76,34.63Z"/><path class="cls-3" d="M91.4,37.05c0,.06,0,.13,0,.13v0A.36.36,0,0,1,91.4,37.05Zm3.69-1.86c0,.05,0,.08,0,.08v0Z"/><path class="cls-1" d="M34,45.87c0,.06,0,0,.05,0V46s0-.05,0-.05Zm0-.34c.06,0,.09,0,.09.13s0,0,0-.08ZM28.08,44.3c0,.05,0,.09,0,.13h0c0-.06,0-.08,0-.08V44.3Zm-1-.42c.07,0,.21.07.21.17s-.08,0-.08,0Zm81.3-3.77h.13s0,.08,0,.08v.08h-.09ZM16.08,38.24h0s0,0,0,.08,0,0,0,0,0,0,0,0ZM3.82,37.65s.08.06.08.12h0c0-.05,0,0,0,0Zm10.94-.3h.13v.08h0Z"/><path class="cls-3" d="M35.63,46.08v.05c-.05,0,0,0,0,0A.36.36,0,0,1,35.63,46.08Z"/><path class="cls-1" d="M45.72,60.93h0s0,0,0,0,0,0-.08,0Zm4.37-.13h.08s.08.09,0,.09V61h-.08ZM74.22,57c.07,0,.21,0,.21.13h0C74.33,57.05,74.27,57.05,74.22,57ZM15.61,52.49c.06,0,.12,0,.12.13h0c0-.06,0,0,0,0A.59.59,0,0,1,15.61,52.49Zm71.63-.17s-.09.13-.09,0h.09Zm.13-.09h0Zm.68-.29h.12c0,.05,0,.08,0,.08v0A.83.83,0,0,1,88.05,51.94ZM13.4,50.83s0,0,0,.09-.1,0,0,0Zm-.93-.5h0c0,.05,0,0,0,0s0,0-.08,0Zm81.34-1.15h.13A.15.15,0,0,1,93.81,49.18ZM41.52,46.59c.06,0,.13,0,.13,0s0,0-.09,0A.36.36,0,0,0,41.52,46.59Z"/><path class="cls-6" d="M44.35,0c.38,0,.51.27.82.43l.67.14v0s-.08-.08,0-.08v0l.22.09a1.58,1.58,0,0,1,.38,0c.27.09.55.41.84.41l0-.14h.08c.11.22.4.35.4.62h-.05v0h-.35v.05l.33.16.26.07c.06,0,.07.12.16.12s.39-.09.39,0,.26.26.38.4l.15.2c.19.16.83.24.83.58h0v0h-.6l-.27,0v0c-.07.13-.27.09-.39.09v.09c.18,0,.52,0,.52.26.29,0,.92.24.92.57h.35c.26-.11.48.14.65.29s0,.27-.17.27-.11.09-.17.09v0a.26.26,0,0,1-.09-.18h0l-.17,0c0,.06,0,.11,0,.17-.16,0-.42.05-.53-.07s0-.06,0-.06v0c.06,0,0,0,0,0h0v0c-.06,0,0,0,0,0-.09.09-.26.42-.11.55s.29,0,.29.11,0,.09,0,.09h.09v0c.15,0,.48-.23.48-.43h.05v.08h0c0,.06,0,.12,0,.18h.08c.17-.08,1.45,0,1.45.17a1.84,1.84,0,0,0-.62,0l-.27.09a3.21,3.21,0,0,0-.63.06,3.17,3.17,0,0,1-.49.12c0,.06.13.13.13.22l.35,0v.08c-.05,0-.07.09-.14.09v0h.49v.17c-.13,0-.75.33-.75.22s-.14-.13-.22-.13,0,.12,0,.17h-.18V6.26h0c.06-.08.2-.27.31-.27s.17,0,.17,0h0s-.21-.2-.21-.13L50,6c-.15.09-.34.1-.46.25s0,0,0,0v0c.09,0,.27.14.14.14v0c.07,0,.26,0,.26-.09s.14.09.22.09l0-.13c-.06,0,0,0,0,0a3.62,3.62,0,0,0,.57,0v0h0a.87.87,0,0,1-.29.39c-.08,0-.37.08-.37.09s-.39.18-.39.26a.52.52,0,0,1-.44.35v0a.22.22,0,0,1,.09.17c-.06,0-.17-.08-.17,0a3.57,3.57,0,0,0-.34.43c0,.12-.07.24-.11.36l-.39.83c0,.06,0,.12.05.17l-.27,0v0l-.32.87a5.56,5.56,0,0,0-.6,2c-.23.2-.14.56-.19.86l-.09.32a1.94,1.94,0,0,0,0,.34c0,.12-.06.24-.1.36s0,.35,0,.52-.05.32-.07.48l-.12.57c0,.59.08,1.13.14,1.71l.12.62,0,.78c0,.09.15.61.15.61.06.21.13.42.19.62l.06.51a2.3,2.3,0,0,0,.35.7c.17.26.05.44.49.43.06,0,.18-.05.18,0,.17.05,1.14.18,1.14-.09h.08c.07.12.2.05.31.05V21.7c.12.05.92.08.92,0h0c.29.07.47-.09.7-.09s.3-.17.48-.17v0s0-.09,0-.13h.09v0c.12,0,.83-.12.83,0h0a1.61,1.61,0,0,1,.61-.27,1.67,1.67,0,0,1,.84-.26v0a.56.56,0,0,1,0-.13h0s.09,0,.09.09h0a.52.52,0,0,1,.44-.31c.08,0,.22-.06.22-.17s0,0,0,0h0c0,.06,0,0,.05,0a.43.43,0,0,1,.35-.13c0-.13.22-.21.22-.35.41-.07.69-.41,1.08-.55,0,0,0,0,0,0v-.09c.25-.05.45-.26.7-.26l.35-.26c.18-.17.35-.35.54-.5L59,18l.46-.45.53-.43.32-.39.26-.26c.06-.1.12-.2.19-.3s.45-.48.45-.6h0c.1,0,.22-.25.22-.35l-.17,0v-.05h0c.05,0,.22-.13.22,0s0,0,0,0a2.3,2.3,0,0,0,.18-.4,1.85,1.85,0,0,0,.5-.68l0-.34.14-.12a2.18,2.18,0,0,0,.19-.48l0-.21h.08c0,.05.06.13.14.13s-.18-.26-.09-.26l.29-.56.09-.49a2.32,2.32,0,0,1,.22-.41,2.63,2.63,0,0,0,.14-.95h-.22v-.05h0c0-.12.07-.08.17-.08s.08-.35.13-.35v0l-.3.09V9.71a3.05,3.05,0,0,1,0-1s.08.08.08,0-.11-.35,0-.35v0c.06,0,0,0,0,0-.18,0-.31-.35-.32-.53s0-.23,0-.34-.23-.62-.35-.62v0c.34-.27-.4-.79-.4-1-.24,0-.33-.18-.53-.22h-.29a10,10,0,0,0-1.27-.12v0h0c0-.06,0-.11,0-.17h0v0h-.09v0s0,.09.05.13l-.44.09v0h0c0-.06,0-.08,0-.08s.26-.17.26,0h0S60,5,60.1,5c.16-.15.21,0,.35,0s.09,0,.09-.09l.31-.08V4.81h.08c0,.08.09.26.18.26V5c.06,0,.22-.09.22-.17h.09c0,.06,0,.13.13.13v0l.17,0c-.13-.23-.29-.15-.52-.14-.07,0-.13,0-.21,0l-.27.08c0-.08-.11-.26-.22-.26s0,.09-.09.09,0-.18,0-.18S59,4.4,59,4.2c.07,0,.27.11.27,0s.13,0,.13,0,.07-.07.1-.08c.46-.2.46,0,.86,0,0-.06,0-.14.09-.14a.5.5,0,0,1,0-.13h0v0a1,1,0,0,1-.39,0c-.1,0-.31-.25-.31-.22a.85.85,0,0,0-.31-.13v0c0,.06,0,.18-.13.18v0c-.11,0-.18-.13-.28-.18a1.31,1.31,0,0,0-.59,0c0-.06,0-.13,0-.13s.25-.3.39-.3V3c-.06,0-.13,0-.13,0s0-.09-.08-.09-.14.11-.14.18-.19,0-.35,0V3h0c0-.08.22-.21.22-.31h.09c0,.06.05.13.13.13s0-.13.13-.13V2.63l-.35-.09s-.06.13-.13.13,0-.15,0-.22h0s-.06.09-.13.09,0-.13.09-.13V2.28c-.19,0-.31-.07-.31-.27-.09,0-.39-.08-.39-.17s-.21-.08-.32-.09-.47,0-.69,0v0h0c0-.12,0-.23,0-.35l.13,0c0-.05-.08-.08-.08-.13S56,1.13,56,1s0,0,0-.09-.15-.18-.27-.18a.75.75,0,0,1,.66-.39,4.13,4.13,0,0,1,1.27,0l.44.12v0l.13,0,.07.08L59,.59c.11,0,.2.15.32.15s.16,0,.22,0a2.17,2.17,0,0,1,.41.19l.32.1c.09,0,.16.15.28.15v.05h0c0-.07,0-.22,0-.22v0l.66.17.57.3.47.12a2.93,2.93,0,0,1,1,.94c.05.06.31.29.31.22s0,0,0,0c.39.16,1,.83,1.4.83a.51.51,0,0,0,.12.27,10.41,10.41,0,0,0,1.1.69v0c0-.06,0-.09,0-.09v0h0c0,.07,0,.22,0,.22s.12.22.22.22a.86.86,0,0,0,.53.26c0,.06-.09.1-.09.18h0v0h.09v0s.09,0,.09-.09h.09l.26.34c.08.07.26.1.26.23,0-.09,0-.17,0-.26h0v0a1.6,1.6,0,0,0,.44,0v.09a.38.38,0,0,0-.13.26c.14,0,.38.2.42.37a1.23,1.23,0,0,0,0,.2l0,.05h0v0h0v0s0,0,0-.09h.09c0,.11,0,.37.13.36s.07-.14.18-.14.3,0,.3.09h0c0,.15,0,.35.22.35.15-.2.39-.07.52.08l.39.27c.11.12,0,.38.17.46l.26.06.17.09.15.31.52.51a4.79,4.79,0,0,1,.46.79l.26.37c.08.15.16.3.23.45s.08.06.15.06a10.71,10.71,0,0,0,.41,1.67c0,.22.09.58.11.78s0,.2,0,.3.11.45.11.71c-.06.55-.11,1.11-.16,1.66,0,.15-.07.3-.11.44l-.06.42c-.07.15-.13.31-.2.46s-.11.37-.16.56a3.55,3.55,0,0,0-.6,1.49l0,0a3.3,3.3,0,0,0-.58.82l-.23.28c-.37.54-.73,1.07-1.14,1.59-.26.34-.75.67-.93,1l0,.09V23c-.38,0-.62.48-.88.71s-.87.6-1.24,1c-.06,0-.24.25-.15.25l-.48.22-.94.61-.71.34a6,6,0,0,1-.7.39c-.07,0-.15.07-.15.15a1.16,1.16,0,0,0-.61.16,4.31,4.31,0,0,1-1.7.62v.05a2.11,2.11,0,0,1-.43.12,11.93,11.93,0,0,1-2.11.39,10.74,10.74,0,0,1-1.14.13l-.74,0c-.1,0-.19-.1-.31-.1v.05l.17,0v.09h0v0a5.19,5.19,0,0,1-.74.09c-.08,0-.48-.2-.48,0a3,3,0,0,0-1.42,0l0,0v0c-.11-.06-1.18-.55-1.18-.26h-.09c0-.07,0-.17-.08-.17v0c-.25.13-.42,0-.66,0s-.49,0-.74-.05l-.36-.13a11.87,11.87,0,0,1-1.53-.47l-.6-.11-.61-.25c-.4-.16-.68-.45-1.15-.45,0-.05-.09-.07-.09-.13s0,0,0,0c-.45,0-1.42-.88-1.8-1.17a2,2,0,0,0-.46-.22l-.26-.24-.31-.18c-.27-.18-.72-.59-1.06-.59-.22-.36-.64-.48-.93-.74l-1.86-1.68a12.16,12.16,0,0,1-1.34-1.64,2.5,2.5,0,0,0-.23-.23,2.31,2.31,0,0,0-.35-.68A10.63,10.63,0,0,1,38,17.13c0-.05,0-.11-.1-.11a1.43,1.43,0,0,0-.05-.52,2.4,2.4,0,0,1-.21-.69c0-.07,0-.13,0-.19a.59.59,0,0,1-.09-.35h0v.22h-.09a1.42,1.42,0,0,1,0-.31c.17-.24,0-.83,0-1.13,0-.06,0-.05,0-.05s-.26-.09-.26-.17c.2,0,0-.33,0-.4s.08-.08.13-.08,0-.24,0-.35.07-.08.07-.14-.09-.13,0-.13-.24-.39-.13-.39,0-.13.13-.13-.13-.18-.05-.18c.1-.42-.06-.91.08-1.32,0,0,0,0,0,0a.58.58,0,0,1-.13-.31c.24-.19-.1-.83,0-.83v0h.09c0,.06,0,.14.13.14l0-1.18s0,0,0,0l.1-.27c0-.12,0-.47.12-.47-.17-.35.08-.39.08-.66h0s.13,0,.13-.13,0-.18,0-.26a5.8,5.8,0,0,0,.39-1.22,2.84,2.84,0,0,0,.4-1.06L39,3.78l.15-.38c0-.06.12,0,.12-.12s0-.22.09-.22l0,0V2.93c.17-.09.18-.21.27-.37s.31-.46.47-.68c0,0,.08-.09,0-.09v0c.17,0,.43-.18.43-.39.05,0,.09-.08.09,0,.26-.14.41-.42.7-.49v0c.06,0,.05,0,.05,0a1.49,1.49,0,0,1,.83-.39s.08-.19.08-.09a3.56,3.56,0,0,1,.57,0,.61.61,0,0,1,.3-.08,3.7,3.7,0,0,1,.5-.19L44.35,0"/><path class="cls-6" d="M55.73.66h0c-.05,0-.13.06-.13.13h-.13V.74h0v0h.18v0"/><path class="cls-7" d="M55.73.66h0c-.05,0-.13.06-.13.13h-.13V.74h0v0h.18Z"/><path class="cls-6" d="M60.06.74c.08,0,.22.07.22.18h0V.87h-.05c-.08,0-.09-.05-.13-.13"/><path class="cls-7" d="M60.06.74c.08,0,.22.07.22.18h0V.87h-.05C60.11.84,60.1.82,60.06.74Z"/><path class="cls-6" d="M56.12,1.44c.07.09.11.26,0,.32a.24.24,0,0,1-.27-.18h.09l.22-.14"/><path class="cls-7" d="M56.12,1.44c.07.09.11.26,0,.32a.24.24,0,0,1-.27-.18h.09Z"/><path class="cls-6" d="M57.61,3.24h.17V3.5c-.07,0-.17-.13-.26-.13v0c.06,0,0,0,0-.05l0,0"/><path class="cls-7" d="M57.61,3.24h.17V3.5c-.07,0-.17-.13-.26-.13v0c.06,0,0,0,0-.05Z"/><path class="cls-6" d="M59.18,3.94s.19.08.09.08v.05l-.09-.13"/><path class="cls-7" d="M59.18,3.94s.19.08.09.08v.05Z"/><path class="cls-6" d="M58.4,4.38a.2.2,0,0,1,.08.17H58.4v0l0,0h0V4.38"/><path class="cls-7" d="M58.4,4.38a.2.2,0,0,1,.08.17H58.4v0l0,0h0Z"/><path class="cls-6" d="M58.53,4.42s.08.13,0,.13V4.42"/><path class="cls-7" d="M58.53,4.42s.08.13,0,.13Z"/><path class="cls-6" d="M58.79,4.77V4.9s-.08-.09,0-.09v0"/><path class="cls-7" d="M58.79,4.77V4.9s-.08-.09,0-.09Z"/><path class="cls-6" d="M59.58,5h0c0,.08-.17.2-.17.31H59.4v0h0v0A.92.92,0,0,1,59.58,5"/><path class="cls-7" d="M59.58,5h0c0,.08-.17.2-.17.31H59.4v0h0v0A.92.92,0,0,1,59.58,5Z"/><path class="cls-6" d="M50.3,5.07h.13a.15.15,0,0,1-.13,0"/><path class="cls-7" d="M50.3,5.07h.13A.15.15,0,0,1,50.3,5.07Z"/><path class="cls-6" d="M52.36,5.12s.13,0,.13.09h0v.08h-.22V5.21l0-.09"/><path class="cls-7" d="M52.36,5.12s.13,0,.13.09h0v.08h-.22V5.21Z"/><path class="cls-6" d="M50.78,5.69c.08,0,.22,0,.22.08h0l-.18-.08"/><path class="cls-7" d="M50.78,5.69c.08,0,.22,0,.22.08h0Z"/><path class="cls-6" d="M51.57,5.69l.22,0v.09h0s-.22.09-.22,0,0-.09,0-.13"/><path class="cls-7" d="M51.57,5.69l.22,0v.09h0s-.22.09-.22,0S51.56,5.73,51.57,5.69Z"/><path class="cls-6" d="M52.4,5.73h.31v0h-.09c0,.05-.13.06-.13.14h-.13V5.77s0,0,0,0"/><path class="cls-7" d="M52.4,5.73h.31v0h-.09c0,.05-.13.06-.13.14h-.13V5.77S52.39,5.75,52.4,5.73Z"/><path class="cls-6" d="M67.89,5.86c0,.06,0,0,0,0V6s0,0,.08,0l0,0"/><path class="cls-8" d="M67.89,5.86c0,.06,0,0,0,0V6s0,0,.08,0Z"/><path class="cls-6" d="M68.64,6c.1,0,.23.17.3.17v0h-.09L68.64,6"/><path class="cls-7" d="M68.64,6c.1,0,.23.17.3.17v0h-.09Z"/><path class="cls-6" d="M68.28,6.17c0,.06,0,.09,0,.09s0,0,0,0l-.09-.13"/><path class="cls-8" d="M68.28,6.17c0,.06,0,.09,0,.09s0,0,0,0Z"/><path class="cls-6" d="M68.94,6.3l.18,0v0l-.18-.09"/><path class="cls-7" d="M68.94,6.3l.18,0v0Z"/><path class="cls-6" d="M62.64,6.39s0-.06.06,0,0,.06-.06,0"/><path class="cls-7" d="M62.64,6.39s0-.06.06,0S62.69,6.43,62.64,6.39Z"/><path class="cls-6" d="M69.38,6.61c.06,0,0,0,0,0s0,0,0,.09h-.18c0-.06,0,0,0,0s0,0,0,0v0"/><path class="cls-7" d="M69.38,6.61c.06,0,0,0,0,0s0,0,0,.09h-.18c0-.06,0,0,0,0s0,0,0,0Z"/><path class="cls-6" d="M37.44,8h.09c0,.06,0,.09-.09.09V8"/><path class="cls-7" d="M37.44,8h.09c0,.06,0,.09-.09.09Z"/><path class="cls-6" d="M63.12,9.67V9.8s-.08-.09,0-.09v0"/><path class="cls-7" d="M63.12,9.67V9.8s-.08-.09,0-.09Z"/><path class="cls-6" d="M63.3,10.63s.13.13,0,.13a.18.18,0,0,1,0-.13"/><path class="cls-7" d="M63.3,10.63s.13.13,0,.13A.18.18,0,0,1,63.3,10.63Z"/><path class="cls-6" d="M37,11.81c.06,0,.08.13,0,.13v-.13"/><path class="cls-7" d="M37,11.81c.06,0,.08.13,0,.13Z"/><path class="cls-6" d="M47.55,26.38h.08c0,.06,0,.09-.08.09v-.09"/><path class="cls-6" d="M48,26.69c.12,0,.28.17.39.17V27h0L48,26.69"/><path class="cls-6" d="M53.32,28c.11,0,.35,0,.35.18-.11,0-.48,0-.48-.13l.13-.05"/><path class="cls-6" d="M53.76,28.13c.07,0,.26,0,.26.05h0v0h0v0l-.17,0-.09-.18"/><path class="cls-9" d="M0,80.68c.8,3.08,3.83,4.22,8.21,4.22,5,0,8.05-1.67,8.05-4.67,0-5.88-13-3-13-7.48,0-1.68,2.63-2.56,4.87-2.56,2.72,0,5,.82,5.84,2.81l1.93-.73c-1.25-2.55-4.07-3.4-7.77-3.4-3.07,0-7,1.09-7,3.88,0,6,13,3,13,7.71,0,1.87-2.54,3.11-6,3.11-3.62,0-5.94-1.07-6.13-3.64L0,80.68"/><path class="cls-10" d="M27,78.73l4.17-7.53,4,7.53H27m3.44-9.48L21.55,84.51H23.7l2.6-4.58h9.59l2.45,4.58h2.23L32.12,69.25Z"/><polyline class="cls-9" points="47.09 84.51 49.17 84.51 49.17 71.69 49.23 71.69 61.7 84.51 63.75 84.51 63.75 69.25 61.67 69.25 61.67 82.07 61.6 82.07 49.14 69.25 47.09 69.25 47.09 84.51"/><rect class="cls-9" x="72.78" y="69.25" width="2.08" height="15.26"/><polyline class="cls-9" points="83.43 84.51 85.51 84.51 85.51 79.67 90.26 76.3 98.46 84.51 101 84.51 91.76 75.25 100.27 69.25 97.36 69.25 85.51 77.74 85.51 69.25 83.43 69.25 83.43 84.51"/><path class="cls-9" d="M123.17,69.25h-2.08V79.52c0,3-2.66,4-5.94,4s-5.94-1.07-5.94-4V69.25h-2.08V79.56c0,3.5,3.18,5.34,8,5.34s8-1.84,8-5.34V69.25"/><path class="cls-6" d="M71.22,13.91V14s0,0,0,.08h0l-.08-.13"/><path class="cls-6" d="M70.82,14a2.5,2.5,0,0,1,.05.29c0,.06.13.07.13.15h0c0-.06-.13-.22,0-.22s0-.09,0-.09V14h-.22"/><path class="cls-6" d="M71,14.7c0,.06,0,.13.09.13v0S71,14.72,71,14.7"/><path class="cls-6" d="M70.56,14.92V15s.09,0,.09-.09h-.09"/><path class="cls-6" d="M70,16.32c0,.06-.08.18,0,.18a.56.56,0,0,1,.09.21h0a.5.5,0,0,0-.14-.39"/><path class="cls-6" d="M70.34,17.06c0,.07-.12.18-.22.18v.13c0,.05.09.22.13.22v0h0c.06-.16.26-.34.26-.52h0l-.18-.05"/><path class="cls-6" d="M70,17.19v.09c.05,0,.09,0,.09-.09H70"/><path class="cls-6" d="M70,17.46a.1.1,0,0,0,0,.09c.05,0,.09,0,.09-.09h0"/><path class="cls-6" d="M70,17.85c0,.06,0,.13,0,.13s0,0,0,0L70,17.85"/><path class="cls-6" d="M69.42,18V18s0,0,0,0l0-.09"/><path class="cls-6" d="M69.47,18.16v.08s.08,0,.08-.08h-.08"/><path class="cls-6" d="M69.82,18.29v0s-.07.09-.13.09,0,0,0,0v.05h0v0h0v-.26"/><path class="cls-6" d="M69.69,19.65c0,.05,0,0,0,0v0a.1.1,0,0,1,.09,0l0,0"/><path class="cls-6" d="M68.55,19.73c0,.07-.11.22,0,.22v0h0a.54.54,0,0,0,0-.18"/><path class="cls-6" d="M69.33,19.73v.05s-.1,0,0,0,0,.09.13.09l-.09-.18"/><path class="cls-6" d="M68.85,19.86v.05s0,0,.05,0l-.05-.09"/><path class="cls-6" d="M68.68,20a.1.1,0,0,0,0,.09s.08,0,.08-.09h0"/><path class="cls-6" d="M68.68,20.91s0,0,0,.09,0,0,0,.09h.09l-.09-.18"/><path class="cls-6" d="M68.42,21.13a.51.51,0,0,0-.09.27s-.29.26-.18.26v-.05c.15-.13.36-.25.27-.48"/><path class="cls-11" d="M66.88,22.75c0,.06,0,.13.05.13s0-.08-.05-.13"/><path class="cls-11" d="M67.54,22.14v0m-.09.09s0,0,0,.08.09,0,.09-.08Z"/><path class="cls-6" d="M47.15,1.62c0,.07,0,.26.09.26s.08-.17.17-.17V1.66h-.08l-.18,0"/><path class="cls-6" d="M46.63,1.79v.14s0,0,0-.05.13,0,.13,0h0V1.79s0,.05-.09.05l0-.05"/><path class="cls-6" d="M46.1,1.88c0,.06,0,.13.09.13l-.09-.13"/><path class="cls-6" d="M45.53,2.14s-.07.09,0,.09V2.14"/><path class="cls-6" d="M44.92,2.28c0,.06,0,.08,0,.08v.09h0c0-.09,0-.12-.09-.17"/><path class="cls-6" d="M48.77,4c.06.09.31.16.31.18s0,0,0,0h.05v0s0,0,0-.05h-.09l-.35,0"/><path class="cls-6" d="M48.51,4.2c0,.06,0,.13,0,.13l0-.13"/><path class="cls-6" d="M48.29,4.42c0,.06,0,.17,0,.17V4.51h.05l-.09-.09"/><path class="cls-6" d="M49.43,4.77c.06,0,.17.09.17.17h0a.52.52,0,0,0-.22-.17"/><path class="cls-6" d="M47.76,5.56s0,.08.05.13h0l-.09-.13"/><path class="cls-6" d="M48.42,3.37c-.13.1-.24,0-.39,0s-.12.13-.05.13v0H48c.11,0,.63,0,.67,0l-.28-.17"/><path class="cls-6" d="M49.25,5v.17a1.94,1.94,0,0,0-.7-.13l.09.26h-.09c-.18,0-.56.08-.55.3s.25.18.38.18.1-.13.17-.13.31,0,.31-.21H49l.26,0c.21-.2.35-.28,0-.48"/><path class="cls-6" d="M48.29,5.43h.17c0,.08-.05.17-.08.26h-.05l0-.26"/><path class="cls-6" d="M58.83,3.37v0"/><path class="cls-8" d="M58.83,3.37v0Z"/><path class="cls-6" d="M59.14,3.59v0"/><path class="cls-8" d="M59.14,3.59v0Z"/><path class="cls-6" d="M61.24,5V5"/><path class="cls-8" d="M61.24,5V5Z"/><path class="cls-6" d="M57.43,1.62s.11.09.18.09l-.18-.09"/><path class="cls-8" d="M57.43,1.62s.11.09.18.09Z"/><path class="cls-6" d="M58.13,2.14a.26.26,0,0,0,.18.09l-.18-.09"/><path class="cls-8" d="M58.13,2.14a.26.26,0,0,0,.18.09Z"/><path class="cls-6" d="M58.44,2.14v0"/><path class="cls-8" d="M58.44,2.14v0Z"/></g></g></svg>