<svg xmlns="http://www.w3.org/2000/svg" viewBox="0 0 103.21 28.39"><defs><style>.cls-1{fill:#007ebb;}</style></defs><title>sfa</title><g id="Layer_2" data-name="Layer 2"><g id="Layer_1-2" data-name="Layer 1"><path class="cls-1" d="M100.7,16.84c.12,0,.25,0,.37,0a2,2,0,0,0,1.68-1.64,1.87,1.87,0,0,0-.62-1.74,2.09,2.09,0,0,0-1.89-.46,1.93,1.93,0,0,0-1.56,1.64,1.84,1.84,0,0,0,.63,1.72,2,2,0,0,0,1.39.5m2.51-1.66s-.06.08-.06.12a2.16,2.16,0,0,1-.92,1.55,2.55,2.55,0,0,1-3.45-.41,2.09,2.09,0,0,1-.47-.94,2.47,2.47,0,0,1,.18-1.75,2.36,2.36,0,0,1,1.7-1.27,2.49,2.49,0,0,1,1.81.3,2.26,2.26,0,0,1,1.1,1.43,2,2,0,0,1,0,.24.29.29,0,0,0,.07.18Z"/><path class="cls-1" d="M100.54,28.39a1.15,1.15,0,0,0-.4-.12,2.42,2.42,0,0,1-1.55-1.06A2.38,2.38,0,0,1,98.23,26a2.9,2.9,0,0,1,.1-.88,2.36,2.36,0,0,1,.43-.85l.06-.09.16.11c.07,0,.12.11.19.17a1.42,1.42,0,0,1-.11.18,2.06,2.06,0,0,0-.41,1.22,1.82,1.82,0,0,0,1,1.75,2.15,2.15,0,0,0,1.27.23,2.27,2.27,0,0,0,1-.32,1.77,1.77,0,0,0,.8-1.14,2.29,2.29,0,0,0-.3-1.73.71.71,0,0,0-.1-.14.25.25,0,0,0-.15-.08H101.1l0,0c-.06.06,0,.14,0,.21,0,.33,0,.66,0,1s-.05.25-.28.24-.12,0-.13-.12V24.09c0-.09.05-.12.14-.13h1.51a.37.37,0,0,1,.36.17,3,3,0,0,1,.51,1.11.68.68,0,0,1,0,.2.24.24,0,0,0,.07.18v.54a.24.24,0,0,0-.07.18,1.84,1.84,0,0,1-.26.82,2.28,2.28,0,0,1-1.55,1.11,1.76,1.76,0,0,0-.45.12Z"/><path class="cls-1" d="M103.21,9.24c-.07,0-.06.13-.07.2a1.63,1.63,0,0,1-.81,1.29,1.94,1.94,0,0,1-.94.28H98.62c-.29,0-.31,0-.3-.33,0-.1.05-.13.15-.14h2.69a1.93,1.93,0,0,0,.75-.15,1.27,1.27,0,0,0,.79-.88,1.79,1.79,0,0,0,0-1.12,1.25,1.25,0,0,0-.74-.75,2.5,2.5,0,0,0-.9-.15H98.43a.11.11,0,0,1-.1-.1.17.17,0,0,1,0-.07c0-.27,0-.29.27-.29h2.57a2.42,2.42,0,0,1,1,.19,1.68,1.68,0,0,1,1,1.21.68.68,0,0,1,0,.2.24.24,0,0,0,.07.2Z"/><path class="cls-1" d="M48.48,9.18h-1.8c-.18,0-.19,0-.21-.21a2.69,2.69,0,0,0-.93-1.9,4.65,4.65,0,0,0-1.36-.83,8.55,8.55,0,0,0-2-.54,11.17,11.17,0,0,0-2.31-.08,7.82,7.82,0,0,0-2.82.67A4.72,4.72,0,0,0,35.89,7a2.83,2.83,0,0,0-1,1.58A2.53,2.53,0,0,0,35.66,11a5.08,5.08,0,0,0,1.47,1,16.27,16.27,0,0,0,2.27.74l2.81.7c1.11.28,2.21.59,3.29,1a14.45,14.45,0,0,1,1.72.75,6.89,6.89,0,0,1,1.46,1.06A5.6,5.6,0,0,1,50.29,19a8.85,8.85,0,0,1,.17,1,7.32,7.32,0,0,1,0,.94,6.23,6.23,0,0,1-1.38,3.88,7.92,7.92,0,0,1-2.44,2A11.71,11.71,0,0,1,43.54,28a12,12,0,0,1-1.32.2,12.73,12.73,0,0,1-1.95.09l-1.13-.09A12,12,0,0,1,37.8,28a10.76,10.76,0,0,1-4.09-1.74,6.88,6.88,0,0,1-2-2.23A5.77,5.77,0,0,1,31,22.12c0-.2-.07-.41-.09-.61a1.74,1.74,0,0,1,0-.32c0-.06,0-.09.1-.1l.17,0a6.06,6.06,0,0,1,2.42.38,4.92,4.92,0,0,1,1.55.9c.17.14.33.28.48.43a4.55,4.55,0,0,0,1.54,1,8.77,8.77,0,0,0,2,.56,11.49,11.49,0,0,0,1.18.1,9.3,9.3,0,0,0,1.18,0,8.69,8.69,0,0,0,1.68-.29,7,7,0,0,0,1.51-.6,3.72,3.72,0,0,0,1.11-.86,2.78,2.78,0,0,0,.65-1.75,2.52,2.52,0,0,0-.31-1.32,3,3,0,0,0-.68-.79A5.65,5.65,0,0,0,44.1,18a18.66,18.66,0,0,0-2.3-.74l-3.16-.79a28.19,28.19,0,0,1-3.55-1.14,8.18,8.18,0,0,1-2-1.15,5.87,5.87,0,0,1-2-3.35A7.54,7.54,0,0,1,30.88,9a6.26,6.26,0,0,1,1.88-4.41,8.37,8.37,0,0,1,2.57-1.73A12.27,12.27,0,0,1,38,2c.38-.07.76-.13,1.14-.17.55-.05,1.1-.09,1.66-.09a13.72,13.72,0,0,1,1.43.09,11.11,11.11,0,0,1,1.8.31,11,11,0,0,1,3.1,1.25,7.76,7.76,0,0,1,2,1.77A6,6,0,0,1,50.4,8.09c0,.23.06.46.09.69a2.8,2.8,0,0,1,0,.29.12.12,0,0,1-.1.1H48.48"/><path class="cls-1" d="M8.52,25.16l-.29-.28c-.54-.58-1.08-1.16-1.61-1.75C5.78,22.19,5,21.21,4.23,20.2a32,32,0,0,1-2.4-3.62,18.43,18.43,0,0,1-1.35-3,10.83,10.83,0,0,1-.41-1.68A6.23,6.23,0,0,1,0,10.87,8.43,8.43,0,0,1,.33,8.53,12.71,12.71,0,0,1,2.76,3.9,11.69,11.69,0,0,1,5.61,1.32,8.38,8.38,0,0,1,8.23.18,7.69,7.69,0,0,1,9.74,0a6.42,6.42,0,0,1,3.07.75,5.23,5.23,0,0,1,2,1.78,5.37,5.37,0,0,1,.8,2.11,6.79,6.79,0,0,1,0,1.56,6.89,6.89,0,0,1-.47,1.89,7.76,7.76,0,0,1-1.46,2.33c-.29.32-.59.62-.9.93-.54.55-1.07,1.12-1.56,1.72a12.67,12.67,0,0,0-2.26,4,13.22,13.22,0,0,0-.52,2.06,17.17,17.17,0,0,0-.21,2.16c0,.54,0,1.09,0,1.63a8.31,8.31,0,0,0,.07.86c0,.32.08.64.11,1,0,.07,0,.14,0,.22v.22"/><path class="cls-1" d="M81,10.47a.67.67,0,0,0-.17.27c-.7,1.55-1.44,3.07-2.17,4.61l-1.45,3a.88.88,0,0,0-.1.22.35.35,0,0,0,0,.15h7.68l.11,0s0-.07,0-.08c-1.26-2.71-2.59-5.38-3.82-8.09L81,10.47M68.3,28.29c0-.09.06-.16.09-.22l.79-1.65,1.68-3.48,2.55-5.3c.61-1.28,1.23-2.57,1.85-3.85L77.8,8.51c.62-1.29,1.24-2.59,1.87-3.88L80.9,2.07,81,1.82c0,.08.08.13.11.19.44.92.88,1.84,1.33,2.76l2.74,5.7L87,14.28l2.53,5.26,1.86,3.86q1.13,2.34,2.26,4.7c0,.06.08.12,0,.21l-.17,0c-.54,0-1.08,0-1.63,0a3.9,3.9,0,0,1-2.32-.8,3.53,3.53,0,0,1-1-1.27C88,25,87.42,23.82,86.83,22.6a3.54,3.54,0,0,0-.16-.34.2.2,0,0,0-.2-.12H75.79c-.37,0-.34,0-.5.31l-2.7,5.62c-.13.27-.1.26-.43.26H68.6a.67.67,0,0,1-.3,0"/><path class="cls-1" d="M59,28.32H55.32c-.3,0-.31,0-.31-.3V2.27c0-.1,0-.21,0-.32a.12.12,0,0,1,.13-.12H72.93a2.08,2.08,0,0,1,.25,0c.19,0,.22,0,.22.21v.2a6.2,6.2,0,0,1-.47,2.21,3.12,3.12,0,0,1-.4.62A2,2,0,0,1,71,5.81H59.18c-.13,0-.16.05-.17.17a1,1,0,0,0,0,.17v6a1.41,1.41,0,0,0,0,.2.13.13,0,0,0,.13.12h9.74a.1.1,0,0,1,.11.11.76.76,0,0,1,0,.15v3.44c0,.28,0,.29-.3.29H59.43a.79.79,0,0,0-.4.05.68.68,0,0,0,0,.14A2.44,2.44,0,0,0,59,17V28a.89.89,0,0,1,0,.35"/><path class="cls-1" d="M19.12,9.66l-.05,0L19,9.83a15.06,15.06,0,0,1-1.35,2.25c-.53.75-1.11,1.47-1.7,2.18s-1.16,1.4-1.68,2.14A11.31,11.31,0,0,0,13,18.69a9.31,9.31,0,0,0-.7,3.12,7,7,0,0,0,0,.79,4.75,4.75,0,0,0,.16,1,3.49,3.49,0,0,0,2.31,2.54,6.49,6.49,0,0,0,1.44.31,5.24,5.24,0,0,0,1.53-.09,5.94,5.94,0,0,0,2.87-1.5,8.24,8.24,0,0,0,2.62-6v-.39A5.94,5.94,0,0,0,23,17a12.55,12.55,0,0,0-1-2.71,25.12,25.12,0,0,0-1.6-2.81c-.38-.56-.77-1.11-1.16-1.66-.05-.07-.08-.15-.18-.18m-.84-4,.4.45a39.87,39.87,0,0,1,3.59,4.79,23.45,23.45,0,0,1,1.91,3.65,12.34,12.34,0,0,1,.7,2.21,7.6,7.6,0,0,1,.19,1.5c0,.43,0,.87,0,1.31a10.34,10.34,0,0,1-.31,1.82,9.86,9.86,0,0,1-2.09,4,8.42,8.42,0,0,1-3.42,2.44,6.9,6.9,0,0,1-1.65.42,6.34,6.34,0,0,1-1.23.06,7.21,7.21,0,0,1-3.23-.92,5.13,5.13,0,0,1-2.28-2.76,6.58,6.58,0,0,1-.35-1.44,8.47,8.47,0,0,1-.09-1.13,11.11,11.11,0,0,1,.18-1.82,11.23,11.23,0,0,1,1.17-3.32,15,15,0,0,1,1.39-2.13c.54-.69,1.09-1.36,1.64-2s1.05-1.3,1.53-2a11.42,11.42,0,0,0,1.53-3A9,9,0,0,0,18.22,6c0-.08,0-.16.06-.29"/><path class="cls-1" d="M98.77,21.92h1.85c.15,0,.17,0,.18-.2v-.07c0-.44,0-.87,0-1.31a1.43,1.43,0,0,0-.07-.46,1,1,0,0,0-1-.79.91.91,0,0,0-.9.54,1.39,1.39,0,0,0-.14.6c0,.49,0,1,0,1.48a.88.88,0,0,0,0,.2m2.37-2c.12,0,.17-.06.24-.11l1.5-1.13c.06,0,.11-.1.21-.09a1.24,1.24,0,0,1,0,.43.21.21,0,0,1-.07.12.49.49,0,0,1-.14.11l-1.38,1-.12.09a.33.33,0,0,0-.17.33c0,.33,0,.66,0,1,0,.05,0,.1,0,.14a.12.12,0,0,0,.1.1h1.53c.23,0,.26,0,.25.26v0c0,.12,0,.15-.15.16H98.43a.12.12,0,0,1-.1-.1.49.49,0,0,1,0-.12c0-.68,0-1.36,0-2a1.72,1.72,0,0,1,.22-.83,1.26,1.26,0,0,1,1.17-.69,1.23,1.23,0,0,1,1.18.68,2.54,2.54,0,0,1,.16.38c0,.07,0,.14.08.22"/><path class="cls-1" d="M99.85,5h.84c.26,0,.29,0,.29-.28s0-.61,0-.92a2,2,0,0,0-.09-.6,1.06,1.06,0,0,0-.91-.83,1,1,0,0,0-1.06.52,1.47,1.47,0,0,0-.18.71c0,.39,0,.77,0,1.16,0,.2,0,.23.22.24h.89m3.21.44-.2,0H98.44c-.07,0-.11,0-.11-.11a.76.76,0,0,1,0-.15V3.54a2.11,2.11,0,0,1,.13-.75,1.36,1.36,0,0,1,1.11-.94,1.45,1.45,0,0,1,1.64.9,1.81,1.81,0,0,1,.17.72c0,.37,0,.74,0,1.11a2.11,2.11,0,0,0,0,.25.12.12,0,0,0,.11.11H103c.08,0,.12,0,.13.12a.53.53,0,0,1,0,.32"/></g></g></svg>