<svg xmlns="http://www.w3.org/2000/svg" xmlns:xlink="http://www.w3.org/1999/xlink" viewBox="0 0 521.57 443.33"><defs><style>.cls-1{fill:none;}.cls-2{fill:#fff200;}.cls-3{clip-path:url(#clip-path);}.cls-4{clip-path:url(#clip-path-4);}</style><clipPath id="clip-path" transform="translate(-2773.7 -4058.18)"><rect class="cls-1" width="7384.81" height="4677.92"/></clipPath><clipPath id="clip-path-4" transform="translate(-2773.7 -4058.18)"><rect class="cls-1" width="7384.81" height="4677.92"/></clipPath></defs><title>viega</title><g id="Layer_2" data-name="Layer 2"><g id="Layer_1-2" data-name="Layer 1"><rect class="cls-2" y="250.46" width="521.57" height="192.87"/><rect width="521.57" height="230.91"/><g class="cls-3"><path class="cls-2" d="M2911.29,4139.62h-26.13l-13.59,42.9c-2.3,7.24-4.76,15.71-5.83,20.3-1-4.42-3.52-13.25-5.82-20.3l-13.59-42.9h-26.84l33.36,92.68h25.08Z" transform="translate(-2773.7 -4058.18)"/></g><g class="cls-3"><path class="cls-2" d="M3025.54,4175.45c-.71-8.3-5.65-16.59-16.6-16.59-8.82,0-14.29,7.24-15.18,16.59ZM3049.2,4186a75.27,75.27,0,0,1-.36,7.78h-55.43c4.54,29,37.08,18.7,44.65,12.4l.42.11,3.73,18.6c-5.91,4.57-16.38,9.31-29.73,9.31-26.66,0-43.6-18.9-43.6-48.2,0-28.42,17.82-48.36,41.3-48.36,24.72,0,39,21.89,39,48.36" transform="translate(-2773.7 -4058.18)"/></g><rect class="cls-2" x="152.72" y="81.44" width="25.07" height="92.68"/><g class="cls-3"><path class="cls-2" d="M2960.16,4104.37a21.2,21.2,0,1,0-21.2,21.2,21.41,21.41,0,0,0,21.2-21.2" transform="translate(-2773.7 -4058.18)"/></g><g class="cls-4"><path class="cls-2" d="M3142.55,4216.4c1.41,44.68-25.7,52.85-58.46,52.33l-3.84-20.33.22-.25c18.72,0,39.14.57,37.72-21.86-4.6,4.06-10.77,7.76-19.61,7.76-19.76,0-36-14.82-36-49.43,0-27.71,13.06-47.13,36-47.13a29.42,29.42,0,0,1,19.61,7.23l.08-5.29h24.28Zm-24.72-12.87v-34.95c-3.7-5.13-9.35-8-16.42-8-9.35,0-14.47,8.12-14.47,23.66,0,19.07,6.36,27,15.89,27,7.59,0,11.47-3.18,15-7.76" transform="translate(-2773.7 -4058.18)"/></g><g class="cls-4"><path class="cls-2" d="M3238.21,4232.58h-24.15l-.21-6.18c-4.42,4.6-12.18,8.12-20.84,8.12-17.3,0-34.6-10.59-34.6-33,0-20.48,16.6-30.71,37.6-30.71,8.48,0,13.95,1.76,17.84,3.7v-4.59c0-10.6-13.84-19.5-41.23-5.28l-.36-.11-3.47-18.61c15.39-10,69.42-18.55,69.42,25.78Zm-24.48-27.47v-11.65c-4.24-2.65-8.3-3.88-16.95-3.88-9.18,0-14.12,4.23-14.12,11.65,0,6.53,3.71,12.35,14.12,12.35,7.95,0,14.31-4.05,16.95-8.47" transform="translate(-2773.7 -4058.18)"/></g></g></g></svg>