<svg xmlns="http://www.w3.org/2000/svg" xmlns:xlink="http://www.w3.org/1999/xlink" viewBox="0 0 120.45 52.45"><defs><style>.cls-1{fill:none;}.cls-2{fill:#1d1d1b;}.cls-3{clip-path:url(#clip-path);}</style><clipPath id="clip-path" transform="translate(0)"><rect class="cls-1" width="120.45" height="52.45"/></clipPath></defs><title>zierath</title><g id="Layer_2" data-name="Layer 2"><g id="Layer_1-2" data-name="Layer 1"><rect class="cls-2" x="50.98" y="44.97" width="10.58" height="0.44" transform="translate(-13.82 62.4) rotate(-52.56)"/><g class="cls-3"><path class="cls-2" d="M63.66,9.84h-.21a7.21,7.21,0,0,0-6.17,3.06V10.1H55.05V31.18h2.23v-13c0-3.37,2-6.39,5.64-6.39.27,0,.51,0,.74,0Z" transform="translate(0)"/><path class="cls-2" d="M40.46,31.18c3.46,0,5.64-.73,7.44-3.21l-1.62-1.38c-1.36,1.91-2.85,2.64-5.82,2.64-4.33,0-6-1.78-6-5.11V21.77h6.82c4.6,0,7.35-2.21,7.35-6a5.73,5.73,0,0,0-1.53-4.08c-1.35-1.39-3.06-1.91-6.21-1.91H37.35c-3.36,0-5.13,2.32-5.13,5.51v9c0,4.38,2.64,6.85,8.24,6.85m-6-15.94c0-2.24,1-3.5,3.27-3.5l3.2,0c3.85,0,5.51,1.3,5.51,4.08S44.66,20,41.07,20H34.51Z" transform="translate(0)"/><polygon class="cls-2" points="0 29.05 12.69 12.03 0 12.03 0 10.06 15.05 10.06 15.05 12.16 2.32 29.18 15.05 29.18 15.05 31.15 0 31.15 0 29.05"/><rect class="cls-2" x="22.6" width="2.23" height="3.38"/><rect class="cls-2" x="22.6" y="10.06" width="2.23" height="21.08"/><path class="cls-2" d="M118.22,18.07c0-4.07-2-6.3-5.82-6.3s-5.94,2.27-5.94,6.3V31.15h-2.23V0h2.23V12.56a7.75,7.75,0,0,1,6.21-2.76c4.85,0,7.78,3,7.78,7.87V31.15h-2.23Z" transform="translate(0)"/><path class="cls-2" d="M74.16,9.8c-3.45,0-5.64.74-7.43,3.21l1.62,1.39c1.35-1.91,2.84-2.65,5.81-2.65,4.33,0,6,1.78,6,5.12v2.34H73.29c-4.59,0-7.35,2.21-7.35,6a5.71,5.71,0,0,0,1.53,4.07c1.36,1.39,3.06,1.91,6.21,1.91h3.6c3.36,0,5.12-2.31,5.12-5.51v-9c0-4.38-2.64-6.85-8.24-6.85m6,16c0,2.23-1,3.5-3.27,3.5l-3.2,0c-3.85,0-5.51-1.3-5.51-4.08S70,21,73.55,21h6.56Z" transform="translate(0)"/><path class="cls-2" d="M90.53,25.67V11.76H87.65V10.1h2.88V3.36h2.23V10.1h4.77v1.66H92.76v14c0,2.23,1,3.5,3.24,3.5h1.53v2H95.61c-3.33,0-5.08-2.31-5.08-5.51" transform="translate(0)"/><path class="cls-2" d="M22.43,47.56V39.62h.68v7.93c0,.74.24,1.1,1,1.1h.47v.6H24c-1.06,0-1.56-.66-1.56-1.69" transform="translate(0)"/><path class="cls-2" d="M26.26,39.62h.85v.85h-.85Zm.08,3.11H27v6.52h-.69Z" transform="translate(0)"/><path class="cls-2" d="M32.14,49.34c-1.78,0-2.87-1.28-2.87-3.35s1.09-3.34,2.87-3.34a2.53,2.53,0,0,1,2.15,1l-.47.43a2,2,0,0,0-1.68-.82,2,2,0,0,0-1.73.86A3.08,3.08,0,0,0,30,46a3.06,3.06,0,0,0,.45,1.87,2,2,0,0,0,1.73.87,2,2,0,0,0,1.68-.83l.47.43a2.51,2.51,0,0,1-2.15,1" transform="translate(0)"/><path class="cls-2" d="M40.66,45.21c0-1.26-.63-2-1.8-2a1.72,1.72,0,0,0-1.84,2v4h-.69V39.62H37V43.5a2.38,2.38,0,0,1,1.92-.85,2.24,2.24,0,0,1,2.41,2.44v4.16h-.69Z" transform="translate(0)"/><path class="cls-2" d="M44.06,47.55v-4.3h-.9v-.52h.9V40.65h.68v2.08h1.48v.52H44.74v4.31c0,.69.32,1.09,1,1.09h.47v.6h-.6a1.52,1.52,0,0,1-1.56-1.7" transform="translate(0)"/><path class="cls-2" d="M67.78,49.34a3.56,3.56,0,0,1-2.64-.94l.47-.47a2.81,2.81,0,0,0,2.14.8c1.29,0,2-.45,2-1.33,0-.69-.38-1-1.25-1.1l-1.08-.09c-1.32-.11-2-.68-2-1.71s.93-1.85,2.35-1.85a3.83,3.83,0,0,1,2.28.69l-.46.46a3,3,0,0,0-1.82-.56c-1.09,0-1.67.45-1.67,1.26s.41,1,1.33,1.1l1,.09c1.09.11,1.91.44,1.91,1.71s-1,1.94-2.61,1.94" transform="translate(0)"/><path class="cls-2" d="M76.69,48.77a2.26,2.26,0,0,1-1.6.57,2.2,2.2,0,0,1-1.94-.92v3.95h-.69V42.73h.69v.84a2.18,2.18,0,0,1,1.94-.92,2.26,2.26,0,0,1,1.6.57A3.91,3.91,0,0,1,77.53,46a4,4,0,0,1-.84,2.78M75,43.26c-1.6,0-1.85,1.38-1.85,2.73s.25,2.74,1.85,2.74,1.84-1.38,1.84-2.74-.25-2.73-1.84-2.73" transform="translate(0)"/><path class="cls-2" d="M79.69,39.62h.86v.85h-.86Zm.08,3.11h.69v6.52h-.69Z" transform="translate(0)"/><path class="cls-2" d="M85.52,48.71a2.26,2.26,0,0,0,1.8-.78l.52.4a2.94,2.94,0,0,1-2.36,1c-1.8,0-2.77-1.17-2.77-3.35s1-3.34,2.61-3.34,2.61,1.18,2.61,3.18v.31H83.4c0,1.67.73,2.57,2.12,2.57M87,44.35a1.86,1.86,0,0,0-3.38,0,3.56,3.56,0,0,0-.23,1.24h3.84A2.94,2.94,0,0,0,87,44.35" transform="translate(0)"/><path class="cls-2" d="M92.18,52.45A2.79,2.79,0,0,1,90,51.58l.46-.46a2.11,2.11,0,0,0,1.69.72c1.37,0,2-1,2-2.26V48.42a2.18,2.18,0,0,1-1.93.92,2.26,2.26,0,0,1-1.6-.57A3.91,3.91,0,0,1,89.79,46a3.87,3.87,0,0,1,.84-2.77,2.26,2.26,0,0,1,1.6-.57,2.15,2.15,0,0,1,1.93.92v-.84h.69v6.89a2.58,2.58,0,0,1-2.67,2.83m.14-9.19c-1.6,0-1.84,1.38-1.84,2.73s.24,2.74,1.84,2.74,1.84-1.38,1.84-2.74-.24-2.73-1.84-2.73" transform="translate(0)"/><path class="cls-2" d="M99.91,48.71a2.28,2.28,0,0,0,1.8-.78l.52.4a3,3,0,0,1-2.36,1c-1.8,0-2.77-1.17-2.77-3.35s1-3.34,2.61-3.34,2.61,1.18,2.61,3.18v.31H97.79c0,1.67.73,2.57,2.12,2.57m1.49-4.36a1.86,1.86,0,0,0-3.38,0,3.56,3.56,0,0,0-.23,1.24h3.84a2.94,2.94,0,0,0-.23-1.24" transform="translate(0)"/><path class="cls-2" d="M104.53,47.56V39.62h.69v7.93c0,.74.23,1.1,1,1.1h.48v.6h-.6c-1.07,0-1.57-.66-1.57-1.69" transform="translate(0)"/></g></g></g></svg>