<svg xmlns="http://www.w3.org/2000/svg" viewBox="0 0 462.59 133.36"><defs><style>.cls-1{fill:#1e427e;fill-rule:evenodd;}</style></defs><title>Asset 1</title><g id="Layer_2" data-name="Layer 2"><g id="Layer_1-2" data-name="Layer 1"><path class="cls-1" d="M263.49,111.74H258V94h5.49Zm77.12,0h-6.38V92.59h6.38ZM302,92.59v19.15h-6.39V92.59ZM444.5,81.42v30.49h6V81.42h11.7v51.94H451.06V124.5H444.5v8.86H432.8v-8c0-1.78-2.66-.54-3.54-.89V111.91c.88-.17,2.3.36,3.54-.53v-30Zm-19.85,0V93.83H406.39V120.6H413v-6.92H409.4V100.92h15.07l.18,25.17c.18,3.37-3.55,7.27-6.56,7.27h-17c-.89-.53-2.48-.35-3.55-1.41-.35-.18-2.48-3.2-2.48-3.9V86.91c.36-2.12,2.84-5.31,5.32-5.49Zm-54.61,0v39.36h7.45V81.42h11.88v51.94H363.84a7.78,7.78,0,0,1-3-1.41c-.35-.18-2.3-2.84-2.3-3.9V81.42Zm-22.51,0c3.37.35,5.49,4.43,5.49,6.73v29.61c.36,2.66-3.54,6.74-6,7.09l4.07,8.51h-11c-.53-1.24-1.24-2.66-1.77-3.72s-1.42-5-3.19-5a1.33,1.33,0,0,0-1.07.35v8.33H322.53v-8.68h-3.37V111.74a11.2,11.2,0,0,0,3.37,0V81.42Zm-38.83,0c4.08.53,5.68,4.61,5.68,7.44v28c-.18.88-.18,1.77-.36,2.48a5.84,5.84,0,0,1-1.42,3,9,9,0,0,1-4.08,2.13c0,.18-.17.35-.17.53l3.9,7.8v.53H301.43l-4.07-8.68h-1.95v8.68H283.88v-8.68h-3.37V111.74a11.2,11.2,0,0,0,3.37,0V81.42Zm-39,0c1.24-.36,5.49,3.54,5.49,5.49v46.45H263.32V124.5h-5.68c-.71,8.51,0,8.86-.53,8.86h-11c.18-.17.35-.35,0-8.68a10.57,10.57,0,0,0-3.37,0V111.74a11.2,11.2,0,0,0,3.37,0V87.62c-.35-2.12,3.19-6,5.5-6.2Zm-31,0V93.83L221.3,120.6h17.37v12.76h-31V120.42l17-26.06v-.53h-17.2V81.42ZM219.53,18c3.19-.18,3,3.37,3,5.5,0,.7-.18,4.07-.71,4.61a2.87,2.87,0,0,1-1.59.88H209.78c-.71-.53-1.42-.53-2.13-1.42V19.37C208,18.3,209.6,18,210.31,18ZM313,16c2.83.35,2.66,3.37,2.66,5.32,0,.88-.18,3.9-.71,4.43a4.54,4.54,0,0,1-2.31,1.06H302.32c-.89-.53-2.84-1.24-2.84-2.48V18.48A2.84,2.84,0,0,1,302.14,16Zm-50.88,0c3,.18,2.65,3.55,2.65,5.32a11.12,11.12,0,0,1-.35,3.9c-.18.71-2.48,1.59-2.66,1.59H251.44c-.36-.17-2.66-.71-2.66-1.77V17.59A2.86,2.86,0,0,1,251.26,16ZM462.59,5.54V60.85H447.7V5.54ZM444.5,5.36l.18,23.05c0,.53-.35.53-.35,1.06,0,5.5-8.69,8.16-12.41,8.16H406.74V51.1a30,30,0,0,1-1.24,3.72c-1.77,3.37-5.67,5-8.33,5.5a24.85,24.85,0,0,1-2.84.53H371.64V49.51h13.83c3.54.53,6.56-3.19,6.2-5.85V18.13h15.07V27h17.38c1.59-.18,5.67-2.3,5.14-4.43V5.36Zm-40.77-.18c3.19-.35,2.83,3.73,2.83,5.32a22.45,22.45,0,0,1-.35,4.26s-1.6,1.42-2.13,1.42H393.8a7.53,7.53,0,0,1-2.13-1.42V6.6a2.4,2.4,0,0,1,2.48-1.42Zm-34.93,0V51.63c-.53,5-6.73,8.51-10.81,8.87-.53,0-.89.35-1.42.35H333.7V49.51h14c2.65,0,5.67-1.78,6-4.61V5.18Zm-47.16,0c3.73.18,9.4,2.31,9.4,7.1V50.75c-.18.88-.35,1.59-.53,2.48-.53,1.59-1.77,4.26-3.9,5.32-1.42.71-6.21,2.3-8.16,2.3h-34V50.22H310.3c1.59-.18,4.25-.18,5.32-2.66V37.63H294c-2.48.35-9.58-2.13-9.58-6.74V11.74c.18-4.43,5.85-6.38,9-6.56Zm-50.88,0c2.84-.17,9.4,2.31,9.4,6.74V51.28a4.48,4.48,0,0,0-.36,1.24c-.53,5.14-7.09,8-10.63,8-.53,0-1.07.35-1.6.35h-48a3.47,3.47,0,0,0-1.24-.35c-.89-.18-1.95-.36-2.66-.53-2.66-.36-7.27-3.73-7.8-6.92,0-.17-.18-.17-.18-.53V30.71h14.54c.17.18,0,.36.53,14.54,0,2.48,3.19,4.43,5.49,4.79l30.85.18c1.95-.18,5.32-.18,6-3.37a64.56,64.56,0,0,1-.53-9.22H243.11c-3-.36-8-.89-9.4-5.67,0-.18-.18-.18-.18-.54v-20c.53-4.43,5.85-6.21,9-6.21Zm-50.88,0c3.19-.17,2.84,3.9,2.84,5.32s.17,3.9-.89,4.79a2.83,2.83,0,0,1-1.77.89H210c-.53-.36-2.3-.89-2.3-1.6v-8a2.68,2.68,0,0,1,2.48-1.42ZM178.13,108.83c0,1.75-3.62,3.38-4.37,3.38a.59.59,0,0,1-.63-.63c0-1,1.38-3.25,2.5-3.37a4.13,4.13,0,0,1,1.25-.13C177.51,108.08,178.13,108.08,178.13,108.83Zm.38-11.51c0,2.38-2.88,2.76-3.75,2.76l-5.51-.25-6.88.25c-1.5.25-3.13.25-4.5.5s-4,1-4.38,1c-.62,0-1.38-.25-1.38-.88,0-1.25,2.26-2.25,3.13-2.63a42.67,42.67,0,0,1,16.39-4C173.38,94.07,178.51,94,178.51,97.32Zm-48.66-6a2,2,0,0,1,1.62,1.75c0,1.13-.75.63-1.5,1.38a2.4,2.4,0,0,1,.13.62c0,.63-3.63,1.75-4.76,2.25-9.88,3.88-20,7.63-29.89,11-3.51,1.13-7.13,2.38-10.64,3.5h-.37v-.25c2.25-.75,4.63-1.62,6.88-2.5s4.5-1.75,6.75-2.75c1.63-.63,3.38-1.5,5-2.25,1.87-.88,3.75-1.75,5.63-2.75.87-.38,1.75-1,2.62-1.38,2.13-1.13,12.89-7.51,13-7.51s.25.38.63.38,1.38-.38,1.75-.38h2.38a.82.82,0,0,0,.5-.62c0-.38-.13-.38-.38-.5Zm45.41-8.13c0,.62-1,1.25-1.5,1.37-.13-.12-.13-.12-.13-.37a1.21,1.21,0,0,1,1.13-1.13C175.13,83.06,175.13,83.19,175.26,83.19Zm1.25-2.25v.5a7.14,7.14,0,0,1-1.13.87H175c-.13-.12-.13,0-.13-.37s.5-.75.88-1Zm-2.25-2.26c0,.25-.5.88-.88.88h-5.13a9.28,9.28,0,0,1-2.25.5h-.75s-.13,0-.13-.25c0-1.5,6-2.25,6.63-2.25S174.26,77.43,174.26,78.68Zm3.5,2.38c0,4.75-10.51,7.26-11,7.51-13.51,4.75-27.15,9.5-40.53,13.76-15,4.63-30.27,9.13-45.28,12.76-1.76.37-4.76,1.25-5.13,1.25h-.5v-.25c1.25-.25,2.62-.63,4-1,4.13-1,8.38-2.26,12.51-3.51,7.5-2.25,14.89-4.87,22.52-7.88,4.87-2,10-4,15-6.25a317.51,317.51,0,0,0,30.9-15.76c4.75-2.88,7-4.51,11.5-4.51C173.76,77.18,177.76,77.68,177.76,81.06ZM54.29.13c.88.12,1.75,0,4.5.25,9.26.75,50.92,3.37,50.92,21.89,0,6.13-4.51,12.63-11.76,18.14-10.88,8.25-22.27,15-33.28,21.26q-10.5,6-21,12.76c-8,5.13-16.89,10.88-24.9,19.52-4.25,4.5-7.38,9.75-7.38,14.26,0,11.75,21.27,13.13,24.15,13.51,1.37.12,3.87.5,4.25.5h4.13c21.51-1.88,43.28-6.63,64.92-13.26,7.63-2.38,15.64-4.76,23.52-7.38,7.38-2.38,14.76-4.76,22.14-7,5.76-1.75,12.76-3.88,19-3.88,4.5,0,12.88,1.25,12.88,8.76,0,10.51-16.64,20.39-24.77,23.14-3.13,1-6,2-8.75,2.75C138,129,123.22,132,108.58,132.85l-8,.38-23.4-.13a16.77,16.77,0,0,0-2.12-.25H72.3c-11.38-1-24.14-2-34-4.63C27.9,125.59,12,118.09,7.63,105.7c-.12-.5-1.13-4.12-1.13-4.75V97.07c2.51-18,26-28.89,35.66-33.65,15.38-7.63,31.15-15.13,46.78-22.64,5.76-2.75,15.64-8.63,18.14-15.89V22.27c-.12-.13-.25-.63-.37-.75a4.8,4.8,0,0,0-1.13-1.76c-4.25-4.25-9.51-6.5-13.89-8.38A94.4,94.4,0,0,0,74.43,6.13c-3.25-.63-6.63-1.38-10-1.88q-9-1.31-18-1.87c-.38,0-1.13-.13-1.5-.13H41.66A11.61,11.61,0,0,0,39.78,2H19.89c-.88.13-1.75.13-5.25.25L0,3.5V3.25C1.13,3,2.38,2.75,3.63,2.5c2.5-.37,5.13-.87,7.63-1.12C15,1,19.14.63,23,.38L31.77,0Z"/></g></g></svg>